<svg width="5103" height="1053" viewBox="0 0 5103 1053" fill="none" xmlns="http://www.w3.org/2000/svg">
<g clip-path="url(#clip0_1575_86)">
<path d="M5027.06 147.755L4890.33 667.7L4508.4 289.339L5027.06 147.755ZM88.9372 96.1448C111.75 55.5571 111.748 55.5569 111.748 55.552C111.772 55.5657 111.838 55.6054 111.896 55.6391C112.013 55.7018 112.198 55.8044 112.449 55.9469C112.953 56.2274 113.725 56.6582 114.762 57.2339C116.837 58.3853 119.973 60.1164 124.14 62.3939C132.475 66.9487 144.932 73.693 161.274 82.3589C193.959 99.6957 242.175 124.723 304.008 155.32L262.709 238.78C200.035 207.767 151.04 182.339 117.641 164.624C100.942 155.767 88.1389 148.837 79.4734 144.099C75.1406 141.731 71.8419 139.91 69.6071 138.671C68.4898 138.052 67.6384 137.577 67.0568 137.253C66.766 137.09 66.5426 136.965 66.387 136.878C66.3093 136.835 66.2485 136.801 66.2048 136.776C66.1829 136.764 66.1654 136.754 66.1521 136.746C66.1496 136.745 66.1247 136.731 88.9372 96.1448ZM703.516 338.848C825.65 390.989 963.146 446.246 1112.61 500.872L1080.65 588.333C929.473 533.082 790.436 477.206 666.955 424.488L703.516 338.848ZM1529.26 640.022C1665.45 681.146 1807.52 719.682 1953.67 753.637L1932.6 844.34C1784.29 809.884 1640.27 770.813 1502.34 729.165L1529.26 640.022ZM2383.83 836.937C2527.34 858.925 2672.85 875.136 2818.85 883.925L2813.25 976.875C2664.12 967.898 2515.76 951.356 2369.73 928.982L2383.83 836.937ZM3255.36 886.453C3400.96 878.805 3545.47 862.086 3687.4 834.678L3705.06 926.108C3558.51 954.406 3409.71 971.593 3260.24 979.444L3255.36 886.453ZM4105.12 718.353C4239.36 668.279 4369.64 606.075 4494.55 530.147L4542.92 609.717C4412.72 688.867 4277.1 753.586 4137.67 805.601L4105.12 718.353Z" fill="black"/>
</g>
<defs>
<clipPath id="clip0_1575_86">
<rect width="5103" height="1053" fill="white"/>
</clipPath>
</defs>
</svg>
