<svg width="5432" height="2947" viewBox="0 0 5432 2947" fill="none" xmlns="http://www.w3.org/2000/svg">
<g clip-path="url(#clip0_1575_84)">
<path d="M5246.51 2946.57L5405.44 2320.57L4783.85 2495.9L5246.51 2946.57ZM26.9298 126.737C27.2813 182.669 27.2795 182.668 27.276 182.673C27.3096 182.673 27.4021 182.669 27.4829 182.668C27.6424 182.67 27.8961 182.67 28.2431 182.666C28.9355 182.664 29.9975 182.661 31.4229 182.66C34.2737 182.657 38.5768 182.663 44.2816 182.695C55.6913 182.759 72.7084 182.922 94.9263 183.326C139.365 184.13 204.602 185.891 287.392 189.724L292.566 77.9776C208.65 74.0929 142.361 72.299 96.9518 71.4772C74.2465 71.0662 56.7584 70.8976 44.8944 70.833C38.9625 70.8001 34.4363 70.7935 31.3667 70.7949C29.8318 70.7958 28.6611 70.7986 27.8608 70.8012C27.4606 70.8028 27.1531 70.8042 26.9391 70.8049C26.832 70.8055 26.7483 70.8059 26.6881 70.8063C26.658 70.8065 26.6336 70.8069 26.6152 70.807C26.6121 70.8065 26.5777 70.807 26.9298 126.737ZM814.057 229.372C972.757 245.66 1149.41 267.614 1338.28 297.2L1355.59 186.681C1164.57 156.758 985.929 134.558 825.479 118.092L814.057 229.372ZM1857.13 393.46C2024.19 429.506 2195.93 471.697 2369.28 521.073L2399.92 413.487C2224.01 363.382 2049.91 320.616 1880.73 284.111L1857.13 393.46ZM2869.82 683.893C3033.43 744.31 3195.78 811.96 3354.33 887.7L3402.55 786.758C3240.6 709.396 3075.06 640.432 2908.57 578.953L2869.82 683.893ZM3814.54 1139.1C3963.11 1231.88 4105.24 1333.56 4238.44 1444.96L4310.22 1359.16C4172.67 1244.12 4026.3 1139.46 3873.8 1044.22L3814.54 1139.1ZM4609.74 1810.34C4721.67 1941.09 4822.37 2082.28 4909.45 2234.78L5006.6 2179.31C4915.83 2020.35 4810.98 1873.4 4694.71 1737.59L4609.74 1810.34Z" fill="black"/>
</g>
<defs>
<clipPath id="clip0_1575_84">
<rect width="5432" height="2947" fill="white"/>
</clipPath>
</defs>
</svg>
