<svg width="4309" height="1974" viewBox="0 0 4309 1974" fill="none" xmlns="http://www.w3.org/2000/svg">
<g clip-path="url(#clip0_1575_88)">
<path d="M4309.4 429.223L4045.58 23.4093L3820.38 457.188L4309.4 429.223ZM44.6976 1893.73C75.812 1921.92 75.8106 1921.92 75.8115 1921.92C75.8288 1921.9 75.8749 1921.85 75.9159 1921.81C75.9999 1921.72 76.1311 1921.58 76.309 1921.38C76.6669 1921 77.2154 1920.41 77.9535 1919.62C79.4298 1918.03 81.6633 1915.65 84.6377 1912.5C90.5866 1906.2 99.4964 1896.85 111.235 1884.73C134.712 1860.48 169.497 1825.19 214.526 1781.21L155.407 1721.64C109.767 1766.21 74.418 1802.08 50.4284 1826.85C38.4332 1839.23 29.2761 1848.85 23.0914 1855.4C19.9988 1858.67 17.6493 1861.18 16.0591 1862.88C15.2641 1863.74 14.6589 1864.39 14.2456 1864.83C14.0391 1865.05 13.8804 1865.23 13.7699 1865.34C13.7148 1865.4 13.6716 1865.45 13.6406 1865.48C13.625 1865.5 13.6127 1865.51 13.6032 1865.53C13.6013 1865.53 13.5838 1865.55 44.6976 1893.73ZM509.416 1509.18C600.676 1429.41 704.376 1342.56 818.627 1252.8L766.478 1187.12C650.923 1277.9 546.059 1365.73 453.794 1446.38L509.416 1509.18ZM1140.77 1013.83C1247.29 939.453 1359.64 865.597 1476.79 794.492L1433.17 722.899C1314.29 795.055 1200.4 869.93 1092.53 945.256L1140.77 1013.83ZM1826.26 599.452C1944.47 539.351 2066.03 483.621 2190.09 434.103L2159.25 356.137C2032.53 406.715 1908.6 463.549 1788.31 524.707L1826.26 599.452ZM2567.64 306.388C2695.95 271.055 2825.85 243.805 2956.5 226.448L2946.24 143.094C2811.34 161.018 2677.59 189.101 2545.88 225.37L2567.64 306.388ZM3351 205.889C3481.32 210.148 3611.6 225.931 3741.07 255.008L3760.74 172.973C3625.78 142.661 3490.17 126.26 3354.81 121.834L3351 205.889Z" fill="black"/>
</g>
<defs>
<clipPath id="clip0_1575_88">
<rect width="4309" height="1974" fill="white"/>
</clipPath>
</defs>
</svg>
