<svg xmlns="http://www.w3.org/2000/svg" width="88" height="25" viewBox="0 0 88 25" fill="none">
<path d="M43.2959 1.83523L43.2496 2.83416L43.2838 2.83574L43.3179 2.83499L43.2959 1.83523ZM84.8856 24.3637L87.1633 13.0435L76.2209 16.7311L84.8856 24.3637ZM2.35608 24.9316C3.68803 23.3393 5.04075 21.8552 6.40527 20.4727L4.98183 19.0678C3.57881 20.4893 2.18919 22.014 0.822026 23.6484L2.35608 24.9316ZM15.5587 12.7018C19.1399 10.1851 22.669 8.25741 25.9882 6.80244L25.1852 4.9707C21.7486 6.47714 18.1027 8.46951 14.4087 11.0654L15.5587 12.7018ZM37.3968 3.29096C39.781 2.88166 41.7754 2.76582 43.2496 2.83416L43.3422 0.836304C41.6958 0.759978 39.5543 0.89131 37.0584 1.3198L37.3968 3.29096ZM43.2959 1.83523C43.3179 2.83499 43.3179 2.83499 43.3178 2.83499C43.3178 2.83499 43.3177 2.83499 43.3177 2.83499C43.3177 2.83499 43.3177 2.835 43.3177 2.83499C43.3177 2.83499 43.3178 2.83499 43.318 2.83499C43.3184 2.83498 43.3193 2.83496 43.3205 2.83494C43.3229 2.83489 43.3269 2.83481 43.3324 2.83472C43.3434 2.83452 43.3606 2.83424 43.3838 2.83394C43.4302 2.83333 43.5005 2.83262 43.5937 2.83226C43.78 2.83155 44.0573 2.83226 44.4157 2.83811C45.1327 2.8498 46.1736 2.88199 47.4594 2.96418L47.587 0.968248C46.266 0.883821 45.1933 0.850522 44.4483 0.838375C44.0758 0.832301 43.785 0.831513 43.586 0.832274C43.4865 0.832655 43.4099 0.833423 43.3575 0.834112C43.3313 0.834456 43.3111 0.834781 43.2972 0.835027C43.2902 0.83515 43.2847 0.835254 43.2808 0.83533C43.2789 0.835369 43.2774 0.8354 43.2762 0.835424C43.2756 0.835436 43.2752 0.835447 43.2748 0.835455C43.2746 0.835459 43.2744 0.835462 43.2743 0.835465C43.2742 0.835467 43.2741 0.835469 43.2741 0.83547C43.274 0.835471 43.2739 0.835473 43.2959 1.83523ZM55.7672 3.9643C58.3366 4.42353 61.1025 5.0666 63.8687 5.96561L64.4869 4.06354C61.617 3.13083 58.7597 2.46747 56.1191 1.9955L55.7672 3.9643ZM71.4795 9.22389C73.8848 10.5606 76.1199 12.169 78.038 14.1026L79.4579 12.6941C77.384 10.6034 74.9896 8.88651 72.451 7.47571L71.4795 9.22389Z" fill="black"/>
</svg>