<svg xmlns="http://www.w3.org/2000/svg" width="58" height="46" viewBox="0 0 58 46" fill="none">
<path d="M3.31316 45.9828L0.470184 39.6648L7.36324 40.3617L3.31316 45.9828ZM57.6865 0.777344C57.801 1.36632 57.801 1.36632 57.8011 1.36631C57.8011 1.36631 57.8011 1.36631 57.8011 1.36631C57.801 1.36631 57.801 1.36632 57.801 1.36633C57.8008 1.36636 57.8006 1.3664 57.8003 1.36647C57.7996 1.3666 57.7985 1.36681 57.797 1.36711C57.7939 1.3677 57.7892 1.36863 57.7829 1.36989C57.7701 1.37241 57.7508 1.37627 57.7249 1.38149C57.6732 1.39193 57.5956 1.4078 57.4932 1.42927C57.2885 1.4722 56.9849 1.53752 56.5922 1.62651C55.8067 1.80449 54.6647 2.07712 53.244 2.45473L52.9358 1.295C54.3721 0.913236 55.5285 0.637106 56.327 0.456172C56.7263 0.3657 57.0362 0.299017 57.2469 0.25482C57.3523 0.232721 57.4329 0.216242 57.4875 0.205222C57.5148 0.199711 57.5356 0.195565 57.5497 0.192763C57.5568 0.191362 57.5622 0.190296 57.5659 0.189565C57.5678 0.189199 57.5692 0.188916 57.5702 0.188717C57.5708 0.188617 57.5712 0.188538 57.5715 0.18848C57.5716 0.188451 57.5717 0.188427 57.5718 0.188408C57.5719 0.188399 57.5719 0.188389 57.572 0.188384C57.572 0.188375 57.572 0.188367 57.6865 0.777344ZM44.2248 5.24864C41.4934 6.21522 38.5177 7.38169 35.4607 8.76951L34.9647 7.67684C38.0576 6.27271 41.0657 5.09364 43.8244 4.11739L44.2248 5.24864ZM27.0853 13.0953C24.4046 14.6719 21.777 16.4304 19.3099 18.3846L18.5648 17.444C21.0817 15.4503 23.7562 13.6611 26.477 12.061L27.0853 13.0953ZM12.5141 24.8291C10.4712 27.1905 8.69859 29.7596 7.30141 32.5503L6.22838 32.0131C7.67558 29.1224 9.50674 26.4712 11.6066 24.0439L12.5141 24.8291Z" fill="black"/>
</svg>