<svg xmlns="http://www.w3.org/2000/svg" width="58" height="47" viewBox="0 0 58 47" fill="none">
<path d="M54.6868 46.7797L57.5298 40.4617L50.6368 41.1586L54.6868 46.7797ZM0.313477 1.57422C0.198991 2.1632 0.198965 2.16319 0.198946 2.16319C0.198948 2.16319 0.198936 2.16318 0.198941 2.16319C0.19895 2.16319 0.198986 2.16319 0.199049 2.16321C0.199174 2.16323 0.199405 2.16328 0.199742 2.16334C0.200414 2.16347 0.201509 2.16369 0.203023 2.16398C0.206052 2.16458 0.210758 2.1655 0.217124 2.16677C0.229855 2.16929 0.249223 2.17315 0.275074 2.17837C0.326778 2.1888 0.404416 2.20468 0.506775 2.22614C0.711497 2.26908 1.01508 2.33439 1.40782 2.42338C2.19333 2.60136 3.33527 2.87399 4.75596 3.25161L5.06421 2.09187C3.62791 1.71011 2.47154 1.43398 1.673 1.25305C1.27371 1.16258 0.963826 1.09589 0.753089 1.0517C0.647719 1.0296 0.567129 1.01312 0.512537 1.0021C0.485241 0.996586 0.464444 0.99244 0.450298 0.989638C0.443224 0.988237 0.437814 0.987171 0.434085 0.98644C0.43222 0.986074 0.430776 0.985791 0.429755 0.985592C0.429244 0.985492 0.428839 0.985413 0.428541 0.985355C0.428391 0.985326 0.428268 0.985302 0.428172 0.985283C0.428123 0.985274 0.428071 0.985264 0.428047 0.985259C0.428001 0.98525 0.427962 0.985242 0.313477 1.57422ZM13.7752 6.04551C16.5066 7.0121 19.4823 8.17856 22.5393 9.56639L23.0353 8.47372C19.9424 7.06958 16.9343 5.89051 14.1756 4.91426L13.7752 6.04551ZM30.9147 13.8922C33.5954 15.4688 36.223 17.2273 38.6901 19.1815L39.4352 18.2409C36.9183 16.2472 34.2438 14.458 31.523 12.8578L30.9147 13.8922ZM45.4859 25.6259C47.5288 27.9874 49.3014 30.5565 50.6986 33.3472L51.7716 32.81C50.3244 29.9193 48.4933 27.2681 46.3934 24.8408L45.4859 25.6259Z" fill="black"/>
</svg>