<svg xmlns="http://www.w3.org/2000/svg" width="58" height="47" viewBox="0 0 58 47" fill="none">
<path d="M3.31313 46.5727L0.470159 40.2546L7.36322 40.9516L3.31313 46.5727ZM57.6865 1.36719C57.801 1.95616 57.801 1.95616 57.8011 1.95616C57.8011 1.95616 57.8011 1.95615 57.8011 1.95615C57.801 1.95616 57.801 1.95616 57.801 1.95618C57.8008 1.9562 57.8006 1.95624 57.8003 1.95631C57.7996 1.95644 57.7985 1.95666 57.797 1.95695C57.7939 1.95755 57.7892 1.95847 57.7829 1.95973C57.7701 1.96226 57.7508 1.96612 57.7249 1.97134C57.6732 1.98177 57.5956 1.99765 57.4932 2.01911C57.2885 2.06205 56.9849 2.12736 56.5922 2.21635C55.8067 2.39433 54.6647 2.66696 53.244 3.04457L52.9358 1.88484C54.3721 1.50308 55.5285 1.22695 56.327 1.04602C56.7263 0.955544 57.0362 0.888861 57.2469 0.844664C57.3523 0.822565 57.4329 0.806086 57.4875 0.795065C57.5148 0.789555 57.5356 0.785409 57.5497 0.782606C57.5568 0.781205 57.5622 0.78014 57.5659 0.779408C57.5678 0.779043 57.5692 0.77876 57.5702 0.778561C57.5708 0.778461 57.5712 0.778382 57.5715 0.778324C57.5716 0.778295 57.5717 0.778271 57.5718 0.778252C57.5719 0.778243 57.5719 0.778232 57.572 0.778228C57.572 0.778219 57.572 0.778211 57.6865 1.36719ZM44.2248 5.83848C41.4934 6.80507 38.5177 7.97153 35.4607 9.35936L34.9647 8.26669C38.0576 6.86255 41.0657 5.68348 43.8244 4.70723L44.2248 5.83848ZM27.0853 13.6852C24.4045 15.2618 21.777 17.0203 19.3099 18.9745L18.5648 18.0338C21.0817 16.0402 23.7561 14.2509 26.477 12.6508L27.0853 13.6852ZM12.5141 25.4189C10.4711 27.7804 8.69857 30.3494 7.30139 33.1402L6.22835 32.6029C7.67557 29.7123 9.50671 27.061 11.6065 24.6338L12.5141 25.4189Z" fill="black"/>
</svg>