<svg width="106" height="27" viewBox="0 0 106 27" fill="none" xmlns="http://www.w3.org/2000/svg">
<path d="M105.354 26.9431L104.357 15.4392L94.8927 22.0541L105.354 26.9431ZM0.646484 10.0195C0.981255 10.9618 0.98122 10.9618 0.98119 10.9619C0.981189 10.9619 0.981165 10.9619 0.981162 10.9619C0.981156 10.9619 0.981174 10.9619 0.981217 10.9618C0.981303 10.9618 0.981488 10.9617 0.981772 10.9616C0.982338 10.9614 0.983299 10.9611 0.984653 10.9606C0.987361 10.9597 0.991641 10.9582 0.997479 10.9561C1.00916 10.952 1.02707 10.9457 1.05113 10.9373C1.09925 10.9205 1.17194 10.8953 1.26845 10.8623C1.46147 10.7963 1.74975 10.699 2.12726 10.5752C2.88231 10.3275 3.99414 9.97369 5.41453 9.55166L4.84489 7.63449C3.4052 8.06226 2.27541 8.4217 1.50387 8.6748C1.11809 8.80135 0.821826 8.90132 0.62113 8.96998C0.520781 9.0043 0.444319 9.0308 0.392499 9.04887C0.366589 9.05791 0.346839 9.06484 0.333343 9.06959C0.326595 9.07197 0.321411 9.0738 0.317802 9.07507C0.315998 9.07571 0.314587 9.07621 0.313572 9.07657C0.313064 9.07675 0.312655 9.0769 0.312346 9.07701C0.312191 9.07706 0.312061 9.07711 0.311955 9.07715C0.311902 9.07716 0.311842 9.07719 0.311816 9.0772C0.311761 9.07721 0.311713 9.07723 0.646484 10.0195ZM14.54 7.1247C17.3153 6.46667 20.4271 5.79874 23.79 5.18785L23.4325 3.22005C20.0312 3.83793 16.8845 4.51335 14.0786 5.17866L14.54 7.1247ZM33.1163 3.7627C36.1489 3.38914 39.2966 3.09182 42.5138 2.90633L42.3987 0.909649C39.134 1.09788 35.943 1.39939 32.8718 1.7777L33.1163 3.7627ZM51.9224 2.7126C55.0401 2.77078 58.179 2.95851 61.3013 3.30516L61.5219 1.31737C58.3327 0.963285 55.1322 0.772151 51.9597 0.712951L51.9224 2.7126ZM70.5496 4.84419C73.6036 5.53728 76.6012 6.41837 79.5052 7.51628L80.2125 5.64551C77.2139 4.51189 74.1272 3.60525 70.9923 2.89378L70.5496 4.84419ZM87.9223 11.5024C90.5809 13.052 93.1114 14.8439 95.4782 16.9067L96.7923 15.399C94.3252 13.2487 91.6909 11.3841 88.9294 9.77446L87.9223 11.5024Z" fill="#57534E"/>
</svg>
