<svg width="24" height="24" viewBox="0 0 24 24" fill="none" xmlns="http://www.w3.org/2000/svg">
<g clip-path="url(#clip0_5054_13421)">
<path fill-rule="evenodd" clip-rule="evenodd" d="M16.0346 23.15C13.185 23.15 9.13147 23.0058 6.4282 23.0058C1.37234 23.0058 0 20.0018 0 16.1823C0 12.3628 0.074554 8.13826 0.074554 6.69035C0.074554 2.39932 1.96601 0.016643 6.65462 0.016643C8.38869 0.016643 14.9108 0 17.1308 0C21.397 0 23.443 1.76967 23.443 6.95108C23.443 8.2298 23.3492 10.6236 23.3492 17.2613C23.3492 21.4358 21.3859 23.15 16.0346 23.15ZM11.7547 5.52259C3.79672 5.52259 3.41291 17.6884 11.89 17.6884C19.6325 17.6884 19.6822 5.52259 11.7547 5.52259ZM18.9477 3.11218C16.6476 3.11218 16.5371 6.60991 18.9891 6.60991C21.2258 6.60436 21.2423 3.11218 18.9477 3.11218Z" fill="#202939"/>
</g>
<defs>
<clipPath id="clip0_5054_13421">
<rect width="24" height="24" fill="white"/>
</clipPath>
</defs>
</svg>
