<?xml version="1.0" encoding="utf-8"?>
<!-- Generator: Adobe Illustrator 27.6.1, SVG Export Plug-In . SVG Version: 6.00 Build 0)  -->
<svg version="1.1" id="Layer_1" xmlns="http://www.w3.org/2000/svg" xmlns:xlink="http://www.w3.org/1999/xlink" x="0px" y="0px"
	 viewBox="0 0 841.89 595.28" style="enable-background:new 0 0 841.89 595.28;" xml:space="preserve">
<style type="text/css">
	.st0{fill:none;stroke:#606161;stroke-miterlimit:10;}
	.st1{fill:url(#SVGID_1_);}
	.st2{fill:url(#SVGID_00000065036561026384871510000010029295699547830180_);}
	.st3{fill:url(#SVGID_00000039127832841770884280000018244328457426529204_);}
	.st4{fill:url(#SVGID_00000091732019769027474980000012545378189529078691_);}
	.st5{fill:url(#SVGID_00000083057727556652630920000000927804413883568267_);}
	.st6{fill:none;stroke:#231F20;stroke-miterlimit:10;}
	.st7{fill:#000844;}
	.st8{fill:url(#SVGID_00000124120277789796015610000003409212416339231123_);}
	.st9{fill:url(#SVGID_00000167370276075879555790000004175436357404884354_);}
	.st10{fill:url(#SVGID_00000091010651143155883380000007967706902675503014_);}
	.st11{fill:url(#SVGID_00000081608166408729438350000014208835869123644835_);}
	.st12{fill:url(#SVGID_00000055669337643837589620000012762883046271591816_);}
	.st13{fill:url(#SVGID_00000077299740821824552750000011063257048737889958_);}
	.st14{fill:url(#SVGID_00000134948286474831283290000011583182198072785597_);}
	.st15{fill:url(#SVGID_00000150805750470021679970000005222607943816342188_);}
	.st16{fill:url(#SVGID_00000176722876180675013590000016276277210242604714_);}
	.st17{fill:url(#SVGID_00000152984976437365386540000017677972171694167712_);}
	.st18{fill:url(#SVGID_00000092452056708053341030000000656276018349077389_);}
	.st19{fill:url(#SVGID_00000018234690960992374150000005538087046663820970_);}
	.st20{fill:url(#SVGID_00000096052997971669038330000000364565779121553855_);}
	.st21{fill:url(#SVGID_00000142162782983534422920000014446744147087000752_);}
	.st22{fill:url(#SVGID_00000058563729316350008480000006532512383626466709_);}
	.st23{fill:url(#SVGID_00000043422212855987676240000016735653660673868453_);}
	.st24{fill:url(#SVGID_00000094588652582947266850000014491026541722766985_);}
	.st25{fill:url(#SVGID_00000041997267444349413950000008978466681608412315_);}
	.st26{fill:url(#SVGID_00000176012975450819705740000012572426493215778203_);}
	.st27{fill:url(#SVGID_00000000914207358847936410000007313952105834363312_);}
	.st28{fill:#FFFFFF;}
	.st29{fill:url(#SVGID_00000055691400589477066230000017950575281546518684_);}
	.st30{fill:url(#SVGID_00000046319681810684618110000010057908733541708962_);}
	.st31{fill:url(#SVGID_00000019642314368371652030000008834481292744930735_);}
	.st32{fill:url(#SVGID_00000120550205047877325040000010231555376149138573_);}
	.st33{fill:url(#SVGID_00000132080933119839069760000003912727617354315943_);}
	.st34{fill:url(#SVGID_00000155844249485621722880000005228451534500500118_);}
	.st35{fill:url(#SVGID_00000059995332164979823740000016212863287833892227_);}
	.st36{fill:url(#SVGID_00000105390954691106875310000007569477535748481695_);}
	.st37{fill:url(#SVGID_00000105401573510479471860000002215426980032921731_);}
	.st38{fill:url(#SVGID_00000013897525731453524250000004931613245337408700_);}
	.st39{fill:url(#SVGID_00000116918553760875667630000013951379675381164191_);}
	.st40{fill:url(#SVGID_00000018227131410828024810000003771798555249694397_);}
	.st41{fill:url(#SVGID_00000128450450385030120260000015380251230026011822_);}
	.st42{fill:url(#SVGID_00000035527289516595663610000003225653783600579249_);}
	.st43{fill:url(#SVGID_00000024705539350499040780000010040891043961035197_);}
</style>
<g>
	<linearGradient id="SVGID_1_" gradientUnits="userSpaceOnUse" x1="504.0978" y1="227.8031" x2="380.4949" y2="254.2339">
		<stop  offset="0" style="stop-color:#12178C"/>
		<stop  offset="1" style="stop-color:#007DF4"/>
	</linearGradient>
	<path class="st1" d="M406.75,311.33c37.37-8.93,67.37-35.62,67.37-35.62c14.47-9.58,38.29-40.05,18.64-65.7
		s-76.86-26.06-76.86-26.06l10.92,3.41c50.2,6.61,57.44,36.07,43.2,62.85c-14.24,26.79-51.55,42.26-51.55,42.26l-13.6,7.52
		L406.75,311.33z"/>
	
		<linearGradient id="SVGID_00000088853654495911348310000006668640213854440623_" gradientUnits="userSpaceOnUse" x1="850.8326" y1="-196.4654" x2="987.1593" y2="-196.4654" gradientTransform="matrix(-1 0 0 -1 1359.4225 13.5484)">
		<stop  offset="0" style="stop-color:#0049F9"/>
		<stop  offset="1" style="stop-color:#007DF4"/>
	</linearGradient>
	<path style="fill:url(#SVGID_00000088853654495911348310000006668640213854440623_);" d="M386.25,192.07l-13.98-78.65
		c0,0,22.25,15.49,63.79,34.36c27.83,12.64,48.83,23.11,63.1,46.44c14.27,23.33,14.04,54.8-12.45,76.81
		c-19.47,16.17-50.32,30.72-64.54,35.58c0,0,72.91-34.13,72.51-74.07C494.27,192.97,449.57,179.33,386.25,192.07z"/>
	
		<linearGradient id="SVGID_00000111179368695932822800000005828477504288326821_" gradientUnits="userSpaceOnUse" x1="868.2428" y1="-305.2656" x2="1001.0645" y2="-305.2656" gradientTransform="matrix(-1 0 0 -1 1359.4225 13.5484)">
		<stop  offset="0" style="stop-color:#0049F9"/>
		<stop  offset="1" style="stop-color:#007DF4"/>
	</linearGradient>
	<path style="fill:url(#SVGID_00000111179368695932822800000005828477504288326821_);" d="M366.58,326.89
		c0.12-0.15,0.2-0.25,0.27-0.31c0.03-0.05,0.07-0.07,0.08-0.08c-0.88,2.72-1.52,5.27-1.95,7.67c-2.02,11,0.31,18.84,5.02,24.39
		c0.91,2.72,2.37,5.52,4.51,8.37c0.05,0.07,0.1,0.13,0.18,0.22c2.57,3.03,5.19,5.83,7.82,8.38c6.36,5.91,13.25,10.67,20,14.45
		c19.62,11.05,37.94,13.98,37.94,13.98s-0.02-0.03-0.07-0.1c-1.08-1.42-13.92-18.99-26.66-64.45c-1.57-5.95-3.35-12.91-5.32-21.01
		c-0.46-1.89-0.93-3.89-1.39-5.96c-0.07-0.27-0.12-0.53-0.18-0.81c-0.02-0.1-0.05-0.2-0.07-0.3c-0.78-3.51-1.57-7.26-2.37-11.17
		c-0.02-0.05-0.03-0.1-0.03-0.15c-8.9-43.72-18.11-107.94-18.11-107.94c5.1-2.53,18.46-3.71,28.46-4.24c0.05,0,0.1-0.02,0.17-0.02
		c6.76-0.35,11.96-0.43,11.96-0.43c-8.58,37.81-9.29,72.66-5.4,103.79c0.61,5,1.34,9.92,2.2,14.73c0,0.03,0,0.07,0.02,0.1
		c0,0.03,0,0.05,0.02,0.08c15.76,89.23,67.51,144.17,67.51,144.17s-56.71-3.15-100.63-42.4
		C339.99,362.66,363.26,330.9,366.58,326.89z"/>
	
		<linearGradient id="SVGID_00000108990708693148035420000000731597935829086910_" gradientUnits="userSpaceOnUse" x1="356.0699" y1="354.544" x2="418.4543" y2="292.7425">
		<stop  offset="0" style="stop-color:#12178C"/>
		<stop  offset="1" style="stop-color:#007DF4"/>
	</linearGradient>
	<path style="fill:url(#SVGID_00000108990708693148035420000000731597935829086910_);" d="M369.99,358.55
		c0,0-34.94-25.23,34.39-58.4l2.44,11.46c0,0-46.66,16.02-37.17,45.78"/>
	
		<linearGradient id="SVGID_00000021798170088944968190000014120368747443206784_" gradientUnits="userSpaceOnUse" x1="443.9467" y1="397.6377" x2="355.3258" y2="343.9987">
		<stop  offset="0" style="stop-color:#12178C"/>
		<stop  offset="1" style="stop-color:#007DF4"/>
	</linearGradient>
	<path style="fill:url(#SVGID_00000021798170088944968190000014120368747443206784_);" d="M369.99,358.55
		c0.87,2.73,2.37,5.52,4.51,8.37c0.05,0.07,0.1,0.13,0.18,0.22c2.57,3.03,5.19,5.83,7.82,8.38c6.36,5.91,13.25,10.67,20,14.45
		c19.62,11.05,37.94,13.98,37.94,13.98s-0.02-0.03-0.07-0.1c-10.19-15.49-17.71-36.58-17.71-36.58s-34.77,5.43-52.17-8.31"/>
</g>
</svg>
