<svg width="9957" height="1281" viewBox="0 0 0.1 8871" fill="none" xmlns="http://www.w3.org/2000/svg">
<path d="M1274.83 5212.11C2258.99 4976.93 3049.06 4274.03 3049.06 4274.03C3430.14 4021.74 4057.46 3219.29 3539.96 2543.77C3022.47 1868.26 1515.8 1857.46 1515.8 1857.46L1803.38 1947.27C3125.44 2121.35 3316.11 2897.2 2941.09 3602.47C2566.07 4308 1583.48 4715.42 1583.48 4715.42L1225.31 4913.46L1274.83 5212.11Z" fill="url(#paint0_linear_1303_57)"/>
<path d="M734.94 2071.31L366.767 0C366.767 0 952.737 407.94 2046.72 904.896C2779.65 1237.78 3332.7 1513.51 3708.51 2127.93C4084.32 2742.34 4078.26 3571.13 3380.63 4150.77C2867.87 4576.62 2055.41 4959.81 1680.92 5087.8C1680.92 5087.8 3601.06 4188.96 3590.52 3137.11C3579.73 2095.01 2402.52 1735.79 734.94 2071.31Z" fill="url(#paint1_linear_1303_57)"/>
<path d="M216.916 5621.89C220.076 5617.94 222.183 5615.3 224.027 5613.72C224.817 5612.4 225.87 5611.88 226.133 5611.61C202.958 5683.25 186.103 5750.4 174.779 5813.61C121.581 6103.3 182.943 6309.78 306.984 6455.94C330.95 6527.57 369.4 6601.31 425.759 6676.37C427.075 6678.21 428.392 6679.79 430.499 6682.16C498.182 6761.96 567.182 6835.7 636.445 6902.86C803.94 7058.5 985.393 7183.86 1163.16 7283.41C1679.87 7574.42 2162.34 7651.58 2162.34 7651.58C2162.34 7651.58 2161.81 7650.79 2160.49 7648.95C2132.05 7611.55 1793.9 7148.83 1458.38 5951.61C1417.04 5794.91 1370.16 5611.61 1318.28 5398.3C1306.16 5348.52 1293.78 5295.85 1281.67 5241.33C1279.83 5234.22 1278.51 5227.38 1276.93 5220C1276.4 5217.37 1275.61 5214.74 1275.09 5212.1C1254.54 5119.66 1233.74 5020.9 1212.67 4917.93C1212.14 4916.62 1211.88 4915.3 1211.88 4913.98C977.492 3762.58 734.94 2071.3 734.94 2071.3C869.252 2004.67 1221.1 1973.6 1484.45 1959.64C1485.77 1959.64 1487.09 1959.11 1488.93 1959.11C1666.96 1949.89 1803.91 1947.79 1803.91 1947.79C1577.95 2943.54 1559.25 3861.34 1661.69 4681.17C1677.76 4812.85 1696.98 4942.42 1719.63 5069.1C1719.63 5069.89 1719.63 5070.94 1720.16 5071.73C1720.16 5072.52 1720.16 5073.05 1720.69 5073.84C2135.74 7423.78 3498.61 8870.66 3498.61 8870.66C3498.61 8870.66 2005.11 8787.7 848.447 7754.03C-483.351 6563.92 129.481 5727.49 216.916 5621.89Z" fill="url(#paint2_linear_1303_57)"/>
<path d="M306.72 6455.69C306.72 6455.69 -613.45 5791.24 1212.41 4917.68L1276.67 5219.49C1276.67 5219.49 47.8396 5641.39 297.766 6425.14" fill="url(#paint3_linear_1303_57)"/>
<path d="M306.722 6455.68C329.634 6527.57 369.138 6601.05 425.496 6676.11C426.813 6677.95 428.129 6679.53 430.236 6681.9C497.919 6761.7 566.919 6835.44 636.182 6902.6C803.677 7058.24 985.13 7183.6 1162.9 7283.15C1679.6 7574.16 2162.07 7651.32 2162.07 7651.32C2162.07 7651.32 2161.55 7650.53 2160.23 7648.69C1891.87 7240.75 1693.83 6685.33 1693.83 6685.33C1693.83 6685.33 778.131 6828.33 319.89 6466.48" fill="url(#paint4_linear_1303_57)"/>
<defs>
<linearGradient id="paint0_linear_1303_57" x1="3838.55" y1="3012.37" x2="583.378" y2="3708.44" gradientUnits="userSpaceOnUse">
<stop stop-color="#12178C"/>
<stop offset="1" stop-color="#007DF4"/>
</linearGradient>
<linearGradient id="paint1_linear_1303_57" x1="3956.85" y1="2543.87" x2="366.587" y2="2543.87" gradientUnits="userSpaceOnUse">
<stop stop-color="#0049F9"/>
<stop offset="1" stop-color="#007DF4"/>
</linearGradient>
<linearGradient id="paint2_linear_1303_57" x1="3498.34" y1="5409.2" x2="0.383461" y2="5409.2" gradientUnits="userSpaceOnUse">
<stop stop-color="#0049F9"/>
<stop offset="1" stop-color="#007DF4"/>
</linearGradient>
<linearGradient id="paint3_linear_1303_57" x1="-59.8761" y1="6350.19" x2="1583.06" y2="4722.6" gradientUnits="userSpaceOnUse">
<stop stop-color="#12178C"/>
<stop offset="1" stop-color="#007DF4"/>
</linearGradient>
<linearGradient id="paint4_linear_1303_57" x1="2254.43" y1="7485.08" x2="-79.4714" y2="6072.46" gradientUnits="userSpaceOnUse">
<stop stop-color="#12178C"/>
<stop offset="1" stop-color="#007DF4"/>
</linearGradient>
</defs>
</svg>