<svg width="574" height="199" viewBox="0 0 574 199" fill="none" xmlns="http://www.w3.org/2000/svg">
<path d="M28.4767 116.46C50.4667 111.2 68.1267 95.5 68.1267 95.5C76.6367 89.86 90.6567 71.93 79.0967 56.84C67.5367 41.75 33.8567 41.5 33.8567 41.5L40.2867 43.51C69.8367 47.4 74.0867 64.74 65.7067 80.5C57.3267 96.26 35.3667 105.37 35.3667 105.37L27.3567 109.8L28.4767 116.46Z" fill="url(#paint0_linear_1302_65)"/>
<path d="M16.4168 46.28L8.18677 0C8.18677 0 21.2768 9.11 45.7268 20.22C62.1068 27.66 74.4668 33.82 82.8668 47.55C91.2668 61.28 91.1368 79.8 75.5368 92.75C64.0768 102.27 45.9268 110.83 37.5568 113.69C37.5568 113.69 80.4668 93.61 80.2268 70.1C79.9868 46.81 53.6768 38.78 16.4168 46.28Z" fill="url(#paint1_linear_1302_65)"/>
<path d="M4.83675 125.62C4.90675 125.53 4.95675 125.47 4.99675 125.43C5.01675 125.4 5.03676 125.39 5.04676 125.38C4.52676 126.98 4.14675 128.48 3.89675 129.89C2.70675 136.36 4.08674 140.98 6.84674 144.24C7.38674 145.84 8.23675 147.49 9.49675 149.16C9.52675 149.2 9.55675 149.24 9.60675 149.29C11.1168 151.07 12.6567 152.72 14.2067 154.22C17.9467 157.7 22.0067 160.5 25.9767 162.72C37.5167 169.22 48.3068 170.95 48.3068 170.95C48.3068 170.95 48.2968 170.93 48.2668 170.89C47.6368 170.05 40.0768 159.72 32.5768 132.96C31.6468 129.46 30.6067 125.36 29.4467 120.6C29.1767 119.49 28.8968 118.31 28.6268 117.09C28.5868 116.93 28.5568 116.78 28.5168 116.61C28.5068 116.55 28.4867 116.49 28.4767 116.43C28.0167 114.36 27.5467 112.16 27.0867 109.86C27.0767 109.83 27.0667 109.8 27.0667 109.77C21.8267 84.0402 16.4068 46.2502 16.4068 46.2502C19.4068 44.7602 27.2668 44.0702 33.1568 43.7502C33.1868 43.7502 33.2167 43.7402 33.2567 43.7402C37.2367 43.5402 40.2968 43.4902 40.2968 43.4902C35.2468 65.7402 34.8267 86.2502 37.1167 104.58C37.4767 107.52 37.9068 110.42 38.4168 113.25C38.4168 113.27 38.4167 113.29 38.4267 113.31C38.4267 113.33 38.4268 113.34 38.4368 113.36C47.7068 165.88 78.1667 198.21 78.1667 198.21C78.1667 198.21 44.7867 196.36 18.9467 173.26C-10.8133 146.67 2.88675 127.98 4.83675 125.62Z" fill="url(#paint2_linear_1302_65)"/>
<path d="M6.84672 144.26C6.84672 144.26 -13.7233 129.41 27.0867 109.89L28.5167 116.64C28.5167 116.64 1.05673 126.07 6.63673 143.58" fill="url(#paint3_linear_1302_65)"/>
<path d="M6.84668 144.26C7.35668 145.87 8.23669 147.51 9.49669 149.18C9.52669 149.22 9.55669 149.26 9.60669 149.31C11.1167 151.09 12.6567 152.74 14.2067 154.24C17.9467 157.72 22.0067 160.52 25.9767 162.74C37.5167 169.24 48.3067 170.97 48.3067 170.97C48.3067 170.97 48.2967 170.95 48.2667 170.91C42.2667 161.79 37.8467 149.38 37.8467 149.38C37.8467 149.38 17.3867 152.58 7.14668 144.49" fill="url(#paint4_linear_1302_65)"/>
<path d="M173.417 113.24H149.227V147.27H129.677V61.9097C129.677 56.4297 134.037 51.6396 139.517 51.6396H172.007C192.257 51.6396 202.807 62.4697 202.807 82.4397C202.807 101.28 192.537 113.24 173.417 113.24ZM168.487 95.9397C178.327 96.0797 183.257 91.4397 183.257 82.1597C183.257 72.8797 178.617 68.2396 169.477 68.2396H149.507V95.9397H168.487Z" fill="white"/>
<path d="M211.517 61.9097C211.517 55.1597 214.757 51.6396 221.357 51.6396H231.057V147.27H211.517V61.9097Z" fill="white"/>
<path d="M299.267 120.69C299.267 116.05 296.457 112.96 290.547 111.27C284.917 109.58 278.457 107.89 271.557 106.07C252.857 101.29 243.567 92.5701 243.567 79.9101C243.987 59.8001 255.947 49.9601 279.567 50.1001C302.067 50.1001 313.737 59.9401 314.867 79.7701H303.897C299.817 79.7701 297.007 77.8001 295.177 74.1501C291.947 68.6601 286.177 65.9901 277.877 65.9901C267.747 66.1301 262.687 69.9301 262.267 77.2401C262.267 83.2901 268.317 87.6501 280.827 90.4601C287.997 92.1501 295.597 94.2601 303.607 97.0701C314.297 100.73 319.357 108.6 318.797 120.7C317.667 139.4 305.017 148.69 280.827 148.69C255.517 148.69 242.717 138.14 242.157 117.33H261.147C261.847 127.46 268.317 132.52 280.837 132.52C293.357 132.52 299.407 128.57 299.267 120.69Z" fill="white"/>
<path d="M338.207 51.6396H404.447V68.6597H376.177V147.27H356.627V68.6597H328.357V61.9097C328.367 56.4197 332.727 51.6396 338.207 51.6396Z" fill="white"/>
<path d="M450.847 51.6396L485.157 147.27H464.487L458.157 127.72H421.167L414.837 147.27H393.887L425.807 57.9697C427.217 53.7497 430.307 51.6396 435.087 51.6396H450.847ZM426.377 111.55H452.677L439.457 70.9097L426.377 111.55Z" fill="white"/>
<path d="M504.417 51.6396H514.407V87.3597H553.647V51.6396H573.477V147.27H553.647V104.94H514.407V147.27H494.577V61.9097C494.577 56.4197 498.937 51.6396 504.417 51.6396Z" fill="white"/>
<defs>
<linearGradient id="paint0_linear_1302_65" x1="85.7712" y1="67.3083" x2="13.0278" y2="82.8635" gradientUnits="userSpaceOnUse">
<stop stop-color="#12178C"/>
<stop offset="1" stop-color="#007DF4"/>
</linearGradient>
<linearGradient id="paint1_linear_1302_65" x1="88.4151" y1="56.8389" x2="8.18317" y2="56.8389" gradientUnits="userSpaceOnUse">
<stop stop-color="#0049F9"/>
<stop offset="1" stop-color="#007DF4"/>
</linearGradient>
<linearGradient id="paint2_linear_1302_65" x1="78.1687" y1="120.871" x2="-0.000251599" y2="120.871" gradientUnits="userSpaceOnUse">
<stop stop-color="#0049F9"/>
<stop offset="1" stop-color="#007DF4"/>
</linearGradient>
<linearGradient id="paint3_linear_1302_65" x1="-1.34698" y1="141.898" x2="35.3678" y2="105.527" gradientUnits="userSpaceOnUse">
<stop stop-color="#12178C"/>
<stop offset="1" stop-color="#007DF4"/>
</linearGradient>
<linearGradient id="paint4_linear_1302_65" x1="50.3708" y1="167.26" x2="-1.78491" y2="135.692" gradientUnits="userSpaceOnUse">
<stop stop-color="#12178C"/>
<stop offset="1" stop-color="#007DF4"/>
</linearGradient>
</defs>
</svg>
