<svg width="48" height="49" viewBox="0 0 48 49" fill="none" xmlns="http://www.w3.org/2000/svg">
<path d="M18.7468 1.17969C18.7468 1.69752 18.3271 2.1172 17.8093 2.1172C17.2915 2.1172 16.8718 1.69752 16.8718 1.17969C16.8718 0.661869 17.2915 0.242188 17.8093 0.242188C18.3271 0.242188 18.7468 0.661869 18.7468 1.17969Z" fill="url(#paint0_linear_2397_8380)"/>
<path d="M17.8594 36.2962C21.3179 36.2962 24.6409 35.3034 27.5215 33.4188L42.4219 48.4803C42.7877 48.8501 43.3813 48.8505 43.7476 48.4803L47.7253 44.4594C48.0916 44.0893 48.0916 43.4896 47.7253 43.1194L32.8253 28.0575C34.6897 25.1461 35.6719 21.7867 35.6719 18.2907C35.6719 16.703 35.4675 15.132 35.0647 13.612L38.4565 10.1834C39.0146 10.5173 39.665 10.7094 40.3594 10.7094C42.427 10.7094 44.1094 9.00922 44.1094 6.91881C44.1094 4.82878 42.427 3.12818 40.3594 3.12818C38.2917 3.12818 36.6094 4.82878 36.6094 6.91881C36.6094 7.62104 36.7998 8.27885 37.1305 8.84338L34.4015 11.602C32.2972 6.28173 27.7529 2.20347 22.2305 0.787165C21.7284 0.658343 21.2186 0.965592 21.0912 1.47274C20.9641 1.98025 21.2677 2.49591 21.7694 2.62436C26.9747 3.95923 31.21 7.93755 32.9443 13.0749L28.2008 17.8698C27.6423 17.5359 26.9916 17.3431 26.2969 17.3431C25.6161 17.3431 24.9631 17.5259 24.3918 17.868L21.0886 14.529C21.4189 13.9644 21.6094 13.307 21.6094 12.6048C21.6094 10.5147 19.927 8.81413 17.8594 8.81413C15.7917 8.81413 14.1094 10.5147 14.1094 12.6048C14.1094 13.307 14.2998 13.9648 14.6305 14.5293L11.3258 17.8698C10.7673 17.5359 10.1166 17.3431 9.42188 17.3431C7.35425 17.3431 5.67188 19.0437 5.67188 21.1337C5.67188 23.2241 7.35425 24.9243 9.42188 24.9243C11.4895 24.9243 13.1719 23.2241 13.1719 21.1337C13.1719 20.4322 12.9814 19.7748 12.6515 19.2106L15.9565 15.8694C16.515 16.2033 17.165 16.3954 17.8594 16.3954C18.5537 16.3954 19.2045 16.2029 19.7626 15.869L23.0658 19.208C22.7278 19.7855 22.5469 20.4455 22.5469 21.1337C22.5469 23.2241 24.2292 24.9243 26.2969 24.9243C28.3645 24.9243 30.0469 23.2241 30.0469 21.1337C30.0469 20.4322 29.8564 19.7748 29.5265 19.2106L33.5021 15.1916C33.6976 16.2081 33.7969 17.2453 33.7969 18.2907C33.7969 27.188 26.6642 34.4009 17.8594 34.4009C9.04541 34.4009 1.875 27.1739 1.875 18.2907C1.875 10.9279 6.80457 4.49451 13.8629 2.64621C14.3643 2.51479 14.6653 1.99765 14.5353 1.49088C14.4053 0.984471 13.8937 0.679813 13.3927 0.811227C5.77441 2.80612 0 9.83324 0 18.2907C0 28.2189 8.0116 36.2962 17.8594 36.2962ZM40.3594 5.0235C41.3932 5.0235 42.2344 5.8738 42.2344 6.91881C42.2344 7.96383 41.3932 8.81413 40.3594 8.81413C39.3256 8.81413 38.4844 7.96383 38.4844 6.91881C38.4844 5.8738 39.3256 5.0235 40.3594 5.0235ZM9.42188 23.029C8.38806 23.029 7.54688 22.1787 7.54688 21.1337C7.54688 20.0887 8.38806 19.2384 9.42188 19.2384C10.4557 19.2384 11.2969 20.0887 11.2969 21.1337C11.2969 22.1787 10.4557 23.029 9.42188 23.029ZM15.9844 12.6048C15.9844 11.5598 16.8256 10.7094 17.8594 10.7094C18.8932 10.7094 19.7344 11.5598 19.7344 12.6048C19.7344 13.6498 18.8932 14.5001 17.8594 14.5001C16.8256 14.5001 15.9844 13.6498 15.9844 12.6048ZM26.2969 23.029C25.2631 23.029 24.4219 22.1787 24.4219 21.1337C24.4219 20.0872 25.2612 19.2384 26.2969 19.2384C27.3307 19.2384 28.1719 20.0887 28.1719 21.1337C28.1719 22.1787 27.3307 23.029 26.2969 23.029ZM43.0847 46.4702L32.6656 35.9379L35.3174 33.2574L45.7365 43.7894L43.0847 46.4702ZM31.7109 29.6115L33.9917 31.917L31.3396 34.5979L29.0588 32.2924C30.0344 31.4946 30.9214 30.5977 31.7109 29.6115Z" fill="url(#paint1_linear_2397_8380)"/>
<defs>
<linearGradient id="paint0_linear_2397_8380" x1="16.8718" y1="1.17969" x2="18.7468" y2="1.17969" gradientUnits="userSpaceOnUse">
<stop/>
<stop offset="1"/>
</linearGradient>
<linearGradient id="paint1_linear_2397_8380" x1="0" y1="24.7578" x2="48" y2="24.7578" gradientUnits="userSpaceOnUse">
<stop/>
<stop offset="1"/>
</linearGradient>
</defs>
</svg>
