<svg width="49" height="48" viewBox="0 0 49 48" fill="none" xmlns="http://www.w3.org/2000/svg">
<path d="M47.5362 37.9504C47.5847 37.7719 47.5964 37.5855 47.5706 37.4024C47.5448 37.2193 47.4821 37.0434 47.3862 36.8853L46.2987 35.0852C46.102 34.7708 45.7926 34.5433 45.4339 34.4492C45.0751 34.3551 44.6939 34.4015 44.3682 34.5789L44.0037 34.7875C43.57 34.4694 43.0987 34.2062 42.6004 34.0037V33.6467C42.5957 33.2719 42.4424 32.9143 42.1743 32.6524C41.9061 32.3906 41.545 32.2459 41.1702 32.2501H38.9952C38.6211 32.2473 38.2611 32.3928 37.994 32.6548C37.7269 32.9169 37.5746 33.274 37.5702 33.6482V34.0059C37.075 34.2004 36.6119 34.4682 36.1962 34.8002L35.7995 34.5812C35.4738 34.4031 35.0923 34.3564 34.7333 34.4507C34.3744 34.545 34.0651 34.7731 33.869 35.0882L32.7815 36.8883C32.6856 37.0464 32.6229 37.2223 32.5971 37.4054C32.5713 37.5885 32.583 37.7749 32.6314 37.9534C32.6802 38.1361 32.7657 38.307 32.8827 38.4557C32.9996 38.6044 33.1456 38.7277 33.3117 38.8182L33.6455 39.0019C33.5812 39.4999 33.5812 40.004 33.6455 40.502L33.311 40.6865C33.145 40.7768 32.9991 40.9 32.8823 41.0486C32.7655 41.1971 32.6801 41.3679 32.6314 41.5505C32.583 41.729 32.5713 41.9154 32.5971 42.0985C32.6229 42.2815 32.6856 42.4575 32.7815 42.6156L33.869 44.4157C34.0657 44.7301 34.375 44.9576 34.7338 45.0517C35.0926 45.1458 35.4737 45.0994 35.7995 44.9219L36.164 44.7134C36.5977 45.0315 37.069 45.2947 37.5672 45.4972V45.8542C37.5719 46.2286 37.7249 46.5859 37.9926 46.8476C38.2603 47.1094 38.6208 47.2544 38.9952 47.2508H41.1702C41.5443 47.2536 41.9043 47.1081 42.1714 46.846C42.4385 46.584 42.5908 46.2269 42.5952 45.8527V45.495C43.0904 45.3005 43.5535 45.0327 43.9692 44.7007L44.3659 44.9197C44.6918 45.0971 45.073 45.1434 45.4318 45.0491C45.7906 44.9549 46.0998 44.7272 46.2965 44.4127L47.384 42.6126C47.4798 42.4545 47.5425 42.2786 47.5683 42.0955C47.5941 41.9124 47.5824 41.726 47.534 41.5475C47.4852 41.3648 47.3997 41.1939 47.2827 41.0452C47.1658 40.8965 47.0198 40.7732 46.8537 40.6827L46.5222 40.5005C46.5865 40.0025 46.5865 39.4984 46.5222 39.0004L46.8567 38.8159C47.0228 38.7254 47.1688 38.6019 47.2856 38.4531C47.4024 38.3043 47.4877 38.1332 47.5362 37.9504ZM45.0702 39.7504C45.0698 39.963 45.0545 40.1753 45.0245 40.3857C44.9887 40.6631 45.0377 40.9447 45.1652 41.1936C45.2926 41.4425 45.4925 41.647 45.7385 41.78L46.0385 41.9443L45.0484 43.5816L44.6967 43.3881C44.4498 43.2543 44.1699 43.1938 43.8898 43.2137C43.6097 43.2337 43.3411 43.3332 43.1157 43.5006C42.7745 43.7503 42.4034 43.9561 42.011 44.1134C41.7456 44.214 41.5167 44.3922 41.3539 44.6247C41.1911 44.8571 41.102 45.1332 41.0982 45.417V45.7507H39.0672V45.4185C39.0633 45.1345 38.9741 44.8583 38.8112 44.6257C38.6483 44.3931 38.4192 44.2149 38.1537 44.1142C37.7619 43.9569 37.3914 43.7507 37.0512 43.5006C36.8266 43.334 36.5593 43.2347 36.2805 43.2142C36.0016 43.1938 35.7227 43.253 35.4762 43.3851L35.123 43.5794L34.133 41.9421L34.433 41.7778C34.6788 41.6448 34.8786 41.4405 35.006 41.1917C35.1335 40.943 35.1826 40.6614 35.1469 40.3842C35.0856 39.9614 35.0856 39.532 35.1469 39.1092C35.1827 38.8318 35.1337 38.5501 35.0062 38.3012C34.8788 38.0523 34.6789 37.8479 34.433 37.7148L34.133 37.5506L35.123 35.9133L35.4747 36.1068C35.7201 36.2407 35.9987 36.3019 36.2777 36.283C36.5567 36.2642 36.8245 36.1661 37.0497 36.0003C37.3909 35.7506 37.762 35.5448 38.1545 35.3875C38.4198 35.2868 38.6487 35.1087 38.8115 34.8762C38.9743 34.6438 39.0634 34.3677 39.0672 34.0839V33.7502H41.0982V34.0824C41.1021 34.3664 41.1914 34.6426 41.3543 34.8752C41.5172 35.1078 41.7462 35.286 42.0117 35.3867C42.4034 35.5433 42.7739 35.7487 43.1142 35.998C43.3385 36.1651 43.6059 36.2648 43.8849 36.2852C44.1639 36.3057 44.4429 36.2461 44.6892 36.1135L45.0424 35.9193L46.0324 37.5566L45.7325 37.7208C45.4866 37.8538 45.2868 38.0582 45.1594 38.3069C45.0319 38.5557 44.9828 38.8372 45.0185 39.1144C45.0505 39.325 45.0678 39.5375 45.0702 39.7504Z" fill="url(#paint0_linear_2397_8416)"/>
<path d="M40.0791 36.375C39.4116 36.375 38.7591 36.573 38.2041 36.944C37.649 37.3149 37.2165 37.8422 36.961 38.4591C36.7056 39.076 36.6387 39.7548 36.769 40.4097C36.8992 41.0646 37.2206 41.6662 37.6926 42.1383C38.1646 42.6105 38.766 42.932 39.4207 43.0623C40.0754 43.1925 40.754 43.1257 41.3707 42.8702C41.9874 42.6146 42.5145 42.1819 42.8853 41.6267C43.2562 41.0715 43.4541 40.4188 43.4541 39.7511C43.4531 38.856 43.0972 37.9978 42.4645 37.3649C41.8318 36.732 40.9739 36.376 40.0791 36.375ZM40.0791 41.6267C39.7083 41.6267 39.3457 41.5167 39.0374 41.3106C38.7291 41.1045 38.4887 40.8115 38.3468 40.4688C38.2049 40.1261 38.1678 39.749 38.2401 39.3852C38.3125 39.0213 38.4911 38.6871 38.7533 38.4248C39.0155 38.1625 39.3496 37.9839 39.7133 37.9115C40.077 37.8391 40.454 37.8763 40.7966 38.0182C41.1392 38.1602 41.4321 38.4006 41.6381 38.709C41.8441 39.0175 41.9541 39.3801 41.9541 39.7511C41.9541 40.2485 41.7566 40.7256 41.4049 41.0773C41.0533 41.4291 40.5764 41.6267 40.0791 41.6267Z" fill="url(#paint1_linear_2397_8416)"/>
<path d="M35.3614 16.3864C35.494 16.3622 35.6173 16.3017 35.7177 16.2117L46.6437 5.93617C47.2233 5.39092 47.5626 4.63774 47.587 3.84232C47.6113 3.04689 47.3187 2.27437 46.7734 1.69472C46.2282 1.11506 45.4751 0.775739 44.6797 0.751405C43.8843 0.727071 43.1118 1.01972 42.5322 1.56496L31.6054 11.8412C31.5101 11.9365 31.4426 12.056 31.4104 12.187L31.3977 12.1832L30.2074 16.3917C30.1758 16.5033 30.1704 16.6208 30.1918 16.7348C30.2132 16.8489 30.2608 16.9564 30.3308 17.0489C30.4008 17.1415 30.4913 17.2165 30.5953 17.2681C30.6992 17.3198 30.8137 17.3466 30.9297 17.3465C30.9824 17.3461 31.0349 17.3404 31.0864 17.3292L35.3614 16.3984V16.3864ZM43.5582 2.65551C43.848 2.38279 44.2343 2.23637 44.632 2.24847C45.0298 2.26057 45.4065 2.43019 45.6792 2.72002C45.9519 3.00984 46.0983 3.39614 46.0862 3.79392C46.0741 4.19171 45.9045 4.56839 45.6147 4.84112L45.0679 5.35489L43.0114 3.16929L43.5582 2.65551ZM31.9909 15.5989L32.4807 13.8685L33.7482 15.2186L31.9909 15.5989ZM33.1797 12.4217L41.9194 4.19834L43.9752 6.38394L35.2347 14.6058L33.1797 12.4217Z" fill="url(#paint2_linear_2397_8416)"/>
<path d="M28.0834 22.4986C28.0864 25.007 27.3485 27.4604 25.9623 29.5509C24.5761 31.6415 22.6034 33.276 20.2917 34.2494C20.1558 34.3068 20.0399 34.4029 19.9584 34.5257C19.8769 34.6486 19.8335 34.7927 19.8334 34.9402V36.7493H16.0834V28.4291C16.0833 28.2812 16.0395 28.1367 15.9574 28.0136L11.7702 21.7313L15.0964 22.8399C15.2503 22.8911 15.4166 22.8911 15.5704 22.8399L18.8967 21.7313L16.5094 25.3127L17.7574 26.1445L21.3574 20.7443C21.4431 20.6142 21.4862 20.4607 21.4807 20.3051C21.4752 20.1495 21.4214 19.9994 21.3268 19.8757C21.2321 19.752 21.1013 19.6609 20.9525 19.6149C20.8037 19.569 20.6443 19.5705 20.4964 19.6192L15.3334 21.3383L10.1704 19.617C10.0225 19.5682 9.8631 19.5667 9.71431 19.6127C9.56552 19.6586 9.43473 19.7498 9.34008 19.8735C9.24543 19.9971 9.19163 20.1472 9.18613 20.3028C9.18064 20.4585 9.22373 20.612 9.30942 20.742L14.5834 28.6564V36.7493H10.8334V34.9402C10.8334 34.7927 10.7899 34.6486 10.7084 34.5257C10.6269 34.4029 10.511 34.3068 10.3752 34.2494C8.48145 33.4488 6.80941 32.2022 5.50162 30.6157C4.19382 29.0292 3.28906 27.15 2.86447 25.1382C2.43989 23.1265 2.50808 21.0419 3.06323 19.0622C3.61837 17.0825 4.64401 15.2664 6.05269 13.7688C7.46137 12.2712 9.21131 11.1364 11.1533 10.4614C13.0953 9.78626 15.1717 9.59083 17.2055 9.89173C19.2394 10.1926 21.1703 10.9809 22.8336 12.1894C24.497 13.3979 25.8434 14.9907 26.7582 16.8321L28.1014 16.1645C27.0885 14.1255 25.6018 12.3588 23.7658 11.0124C21.9298 9.66606 19.7979 8.77925 17.5488 8.42624C15.2996 8.07323 12.9985 8.2643 10.8384 8.98345C8.67823 9.7026 6.72182 10.9289 5.13299 12.5596C3.54417 14.1904 2.36919 16.1781 1.70646 18.3563C1.04372 20.5345 0.912523 22.8399 1.32385 25.0792C1.73518 27.3186 2.67705 29.4268 4.0706 31.2272C5.46415 33.0277 7.2688 34.4681 9.33342 35.4277V41.2495C9.33342 42.8409 9.96556 44.3671 11.0908 45.4923C12.216 46.6176 13.7421 47.2498 15.3334 47.2498C16.9247 47.2498 18.4508 46.6176 19.5761 45.4923C20.7013 44.3671 21.3334 42.8409 21.3334 41.2495V35.4277C23.7999 34.2859 25.8877 32.4614 27.3498 30.1701C28.8118 27.8788 29.587 25.2167 29.5834 22.4986H28.0834ZM15.3334 45.7497C14.4037 45.7486 13.4972 45.4596 12.7384 44.9224C11.9796 44.3852 11.4058 43.6261 11.0959 42.7496H19.5709C19.261 43.6261 18.6872 44.3852 17.9285 44.9224C17.1697 45.4596 16.2631 45.7486 15.3334 45.7497ZM19.8334 41.2495H10.8334V38.2493H19.8334V41.2495Z" fill="url(#paint3_linear_2397_8416)"/>
<path d="M29.2332 19.3332C29.1156 18.8159 28.9692 18.3056 28.7944 17.8047L27.3784 18.2982C27.5345 18.7465 27.6654 19.2033 27.7707 19.6662L29.2332 19.3332Z" fill="url(#paint4_linear_2397_8416)"/>
<defs>
<linearGradient id="paint0_linear_2397_8416" x1="32.5837" y1="39.7504" x2="47.5839" y2="39.7504" gradientUnits="userSpaceOnUse">
<stop/>
<stop offset="1"/>
</linearGradient>
<linearGradient id="paint1_linear_2397_8416" x1="36.7041" y1="39.7511" x2="43.4541" y2="39.7511" gradientUnits="userSpaceOnUse">
<stop/>
<stop offset="1"/>
</linearGradient>
<linearGradient id="paint2_linear_2397_8416" x1="30.179" y1="9.04823" x2="47.5884" y2="9.04823" gradientUnits="userSpaceOnUse">
<stop/>
<stop offset="1"/>
</linearGradient>
<linearGradient id="paint3_linear_2397_8416" x1="1.08936" y1="27.7518" x2="29.5834" y2="27.7518" gradientUnits="userSpaceOnUse">
<stop/>
<stop offset="1"/>
</linearGradient>
<linearGradient id="paint4_linear_2397_8416" x1="27.3784" y1="18.7354" x2="29.2332" y2="18.7354" gradientUnits="userSpaceOnUse">
<stop/>
<stop offset="1"/>
</linearGradient>
</defs>
</svg>
