<svg width="49" height="48" viewBox="0 0 49 48" fill="none" xmlns="http://www.w3.org/2000/svg">
<g clip-path="url(#clip0_2397_8455)">
<path opacity="0.3" d="M36.9048 20.2841V16.7891H39.6375V20.2841" fill="black"/>
<path d="M36.9048 16.7891H39.6375V20.2841" stroke="black" stroke-miterlimit="10" stroke-linecap="round" stroke-linejoin="round"/>
<path opacity="0.3" d="M13.6541 20.2841V16.7891H16.3867V20.2841" fill="black"/>
<path d="M13.6218 20.2826V16.7876H16.3542M18.3108 20.2826H16.3542V7.87891H36.9045V20.2826H35.0638" stroke="black" stroke-miterlimit="10" stroke-linecap="round" stroke-linejoin="round"/>
<path d="M18.4536 10.8516H32.4536H18.4536ZM18.4536 13.8516H33.7869H18.4536Z" fill="black"/>
<path d="M18.4536 10.8516H32.4536M18.4536 13.8516H33.7869" stroke="black" stroke-miterlimit="10" stroke-linecap="round" stroke-linejoin="round"/>
<path opacity="0.3" d="M46.439 25.1156H46.9924C47.2463 25.1148 47.4896 25.0136 47.6692 24.834C47.8487 24.6545 47.9499 24.4112 47.9507 24.1572V20.4896C47.9499 20.2357 47.8487 19.9924 47.6692 19.8128C47.4896 19.6333 47.2463 19.532 46.9924 19.5312H46.439C46.1851 19.532 45.9418 19.6333 45.7623 19.8128C45.5827 19.9924 45.4815 20.2357 45.4807 20.4896V24.1572C45.4814 24.4112 45.5826 24.6545 45.7622 24.8341C45.9418 25.0137 46.1851 25.1149 46.439 25.1156Z" fill="black"/>
<path d="M46.439 25.1156H46.9924C47.2463 25.1148 47.4896 25.0136 47.6692 24.834C47.8487 24.6545 47.9499 24.4112 47.9507 24.1572V20.4896C47.9499 20.2357 47.8487 19.9924 47.6692 19.8128C47.4896 19.6333 47.2463 19.532 46.9924 19.5312H46.439C46.1851 19.532 45.9418 19.6333 45.7623 19.8128C45.5827 19.9924 45.4815 20.2357 45.4807 20.4896V24.1572C45.4814 24.4112 45.5826 24.6545 45.7622 24.8341C45.9418 25.0137 46.1851 25.1149 46.439 25.1156Z" stroke="black" stroke-miterlimit="10" stroke-linecap="round" stroke-linejoin="round"/>
<path opacity="0.3" d="M6.16976 25.1312H6.72309C6.97702 25.1304 7.22031 25.0292 7.39986 24.8496C7.57941 24.6701 7.68063 24.4268 7.68143 24.1729V20.5052C7.68063 20.2513 7.57941 20.008 7.39986 19.8284C7.22031 19.6489 6.97702 19.5477 6.72309 19.5469H6.16976C5.91584 19.5477 5.67254 19.6489 5.49299 19.8284C5.31344 20.008 5.21222 20.2513 5.21143 20.5052V24.1729C5.21213 24.4268 5.31332 24.6702 5.49289 24.8497C5.67246 25.0293 5.91581 25.1305 6.16976 25.1312Z" fill="black"/>
<path d="M6.16903 25.1234H6.72236C6.97628 25.1226 7.21958 25.0214 7.39913 24.8418C7.57868 24.6623 7.6799 24.419 7.68069 24.1651V20.4974C7.6799 20.2435 7.57868 20.0002 7.39913 19.8206C7.21958 19.6411 6.97628 19.5399 6.72236 19.5391H6.16903C5.9151 19.5399 5.67181 19.6411 5.49226 19.8206C5.31271 20.0002 5.21148 20.2435 5.21069 20.4974V24.1651C5.2114 24.419 5.31259 24.6624 5.49216 24.8419C5.67173 25.0215 5.91508 25.1227 6.16903 25.1234Z" stroke="black" stroke-miterlimit="10" stroke-linecap="round" stroke-linejoin="round"/>
<path opacity="0.3" d="M44.5967 43.3302H8.59302C8.37953 43.3296 8.17497 43.2445 8.02401 43.0936C7.87305 42.9426 7.78797 42.7381 7.78735 42.5246V42.0596C7.78797 41.8461 7.87305 41.6415 8.02401 41.4906C8.17497 41.3396 8.37953 41.2545 8.59302 41.2539H44.5967C44.8101 41.2546 45.0147 41.3397 45.1656 41.4907C45.3165 41.6416 45.4016 41.8461 45.4024 42.0596V42.5246C45.4017 42.7381 45.3167 42.9426 45.1657 43.0936C45.0147 43.2445 44.8102 43.3296 44.5967 43.3302Z" fill="black"/>
<path d="M45.6199 20.1836H35.2865V20.4196C35.2865 21.1319 34.4715 21.5169 33.7592 21.5169H19.3099C18.5975 21.5169 18.6199 21.1319 18.6199 20.4196V20.1836H7.95319V41.7613V41.6889C7.95319 41.7183 7.81519 41.7229 7.81519 41.7526C7.81519 42.6499 8.21085 43.5169 9.10819 43.5169H43.6469C44.5442 43.5169 45.5529 42.7089 45.5529 41.8116C45.5529 41.7819 45.6199 41.6823 45.6199 41.6529V41.7613V20.1836Z" stroke="black" stroke-miterlimit="10" stroke-linecap="round" stroke-linejoin="round"/>
<path opacity="0.3" d="M12.6454 25.8685H12.1884C11.9786 25.8678 11.7776 25.7842 11.6293 25.6359C11.4809 25.4876 11.3973 25.2866 11.3967 25.0768V24.6198C11.3973 24.41 11.4809 24.209 11.6293 24.0607C11.7776 23.9123 11.9786 23.8287 12.1884 23.8281H12.6454C12.8552 23.8287 13.0562 23.9123 13.2045 24.0607C13.3528 24.209 13.4364 24.41 13.4371 24.6198V25.0768C13.4364 25.2866 13.3528 25.4876 13.2045 25.6359C13.0562 25.7842 12.8552 25.8678 12.6454 25.8685ZM21.9527 25.8685H21.4957C21.286 25.8678 21.0849 25.7842 20.9366 25.6359C20.7883 25.4876 20.7047 25.2866 20.7041 25.0768V24.6198C20.7047 24.41 20.7883 24.209 20.9366 24.0607C21.0849 23.9123 21.286 23.8287 21.4957 23.8281H21.9527C22.1625 23.8287 22.3635 23.9123 22.5118 24.0607C22.6602 24.209 22.7438 24.41 22.7444 24.6198V25.0768C22.7438 25.2866 22.6602 25.4876 22.5118 25.6359C22.3635 25.7842 22.1625 25.8678 21.9527 25.8685ZM31.2601 25.8685H30.8031C30.5933 25.8678 30.3923 25.7842 30.2439 25.6359C30.0956 25.4876 30.012 25.2866 30.0114 25.0768V24.6198C30.012 24.41 30.0956 24.209 30.2439 24.0607C30.3923 23.9123 30.5933 23.8287 30.8031 23.8281H31.2601C31.4698 23.8287 31.6708 23.9123 31.8192 24.0607C31.9675 24.209 32.0511 24.41 32.0517 24.6198V25.0768C32.0511 25.2866 31.9675 25.4876 31.8192 25.6359C31.6708 25.7842 31.4698 25.8678 31.2601 25.8685ZM40.5671 25.8685H40.1101C39.9003 25.8678 39.6993 25.7842 39.5509 25.6359C39.4026 25.4876 39.319 25.2866 39.3184 25.0768V24.6198C39.319 24.41 39.4026 24.209 39.5509 24.0607C39.6993 23.9123 39.9003 23.8287 40.1101 23.8281H40.5671C40.7768 23.8287 40.9778 23.9123 41.1262 24.0607C41.2745 24.209 41.3581 24.41 41.3587 24.6198V25.0768C41.3581 25.2866 41.2745 25.4876 41.1262 25.6359C40.9778 25.7842 40.7768 25.8678 40.5671 25.8685Z" fill="black"/>
<path d="M12.6456 25.8685H12.1886C11.9788 25.8678 11.7778 25.7842 11.6295 25.6359C11.4812 25.4876 11.3975 25.2866 11.3969 25.0768V24.6198C11.3975 24.41 11.4812 24.209 11.6295 24.0607C11.7778 23.9123 11.9788 23.8287 12.1886 23.8281H12.6456C12.8554 23.8287 13.0564 23.9123 13.2047 24.0607C13.353 24.209 13.4367 24.41 13.4373 24.6198V25.0768C13.4367 25.2866 13.353 25.4876 13.2047 25.6359C13.0564 25.7842 12.8554 25.8678 12.6456 25.8685ZM17.2993 25.8685H16.8423C16.6325 25.8678 16.4315 25.7842 16.2832 25.6359C16.1348 25.4876 16.0512 25.2866 16.0506 25.0768V24.6198C16.0512 24.41 16.1348 24.209 16.2832 24.0607C16.4315 23.9123 16.6325 23.8287 16.8423 23.8281H17.2993C17.509 23.8287 17.71 23.9123 17.8584 24.0607C18.0067 24.209 18.0903 24.41 18.0909 24.6198V25.0768C18.0903 25.2866 18.0067 25.4876 17.8584 25.6359C17.71 25.7842 17.509 25.8678 17.2993 25.8685ZM21.9529 25.8685H21.4959C21.2862 25.8678 21.0852 25.7842 20.9368 25.6359C20.7885 25.4876 20.7049 25.2866 20.7043 25.0768V24.6198C20.7049 24.41 20.7885 24.209 20.9368 24.0607C21.0852 23.9123 21.2862 23.8287 21.4959 23.8281H21.9529C22.1627 23.8287 22.3637 23.9123 22.512 24.0607C22.6604 24.209 22.744 24.41 22.7446 24.6198V25.0768C22.744 25.2866 22.6604 25.4876 22.512 25.6359C22.3637 25.7842 22.1627 25.8678 21.9529 25.8685ZM26.6066 25.8685H26.1496C25.9398 25.8678 25.7388 25.7842 25.5905 25.6359C25.4422 25.4876 25.3585 25.2866 25.3579 25.0768V24.6198C25.3585 24.41 25.4422 24.209 25.5905 24.0607C25.7388 23.9123 25.9398 23.8287 26.1496 23.8281H26.6066C26.8164 23.8287 27.0174 23.9123 27.1657 24.0607C27.314 24.209 27.3977 24.41 27.3983 24.6198V25.0768C27.3977 25.2866 27.314 25.4876 27.1657 25.6359C27.0174 25.7842 26.8164 25.8678 26.6066 25.8685ZM31.2603 25.8685H30.8033C30.5935 25.8678 30.3925 25.7842 30.2442 25.6359C30.0958 25.4876 30.0122 25.2866 30.0116 25.0768V24.6198C30.0122 24.41 30.0958 24.209 30.2442 24.0607C30.3925 23.9123 30.5935 23.8287 30.8033 23.8281H31.2603C31.47 23.8287 31.671 23.9123 31.8194 24.0607C31.9677 24.209 32.0513 24.41 32.0519 24.6198V25.0768C32.0513 25.2866 31.9677 25.4876 31.8194 25.6359C31.671 25.7842 31.47 25.8678 31.2603 25.8685ZM35.9139 25.8685H35.4569C35.2472 25.8678 35.0462 25.7842 34.8978 25.6359C34.7495 25.4876 34.6659 25.2866 34.6653 25.0768V24.6198C34.6659 24.41 34.7495 24.209 34.8978 24.0607C35.0462 23.9123 35.2472 23.8287 35.4569 23.8281H35.9139C36.1237 23.8287 36.3247 23.9123 36.473 24.0607C36.6214 24.209 36.705 24.41 36.7056 24.6198V25.0768C36.705 25.2866 36.6214 25.4876 36.473 25.6359C36.3247 25.7842 36.1237 25.8678 35.9139 25.8685ZM40.5673 25.8685H40.1103C39.9005 25.8678 39.6995 25.7842 39.5512 25.6359C39.4028 25.4876 39.3192 25.2866 39.3186 25.0768V24.6198C39.3192 24.41 39.4028 24.209 39.5512 24.0607C39.6995 23.9123 39.9005 23.8287 40.1103 23.8281H40.5673C40.777 23.8287 40.978 23.9123 41.1264 24.0607C41.2747 24.209 41.3583 24.41 41.3589 24.6198V25.0768C41.3583 25.2866 41.2747 25.4876 41.1264 25.6359C40.978 25.7842 40.777 25.8678 40.5673 25.8685ZM10.4979 30.5938H10.0409C9.83116 30.5932 9.63015 30.5096 9.48182 30.3612C9.33349 30.2129 9.24988 30.0119 9.24927 29.8021V29.3451C9.24988 29.1354 9.33349 28.9343 9.48182 28.786C9.63015 28.6377 9.83116 28.5541 10.0409 28.5535H10.4979C10.7077 28.5541 10.9087 28.6377 11.057 28.786C11.2054 28.9343 11.289 29.1354 11.2896 29.3451V29.8021C11.289 30.0119 11.2054 30.2129 11.057 30.3612C10.9087 30.5096 10.7077 30.5932 10.4979 30.5938ZM15.1516 30.5938H14.6946C14.4848 30.5932 14.2838 30.5096 14.1355 30.3612C13.9872 30.2129 13.9036 30.0119 13.9029 29.8021V29.3451C13.9036 29.1354 13.9872 28.9343 14.1355 28.786C14.2838 28.6377 14.4848 28.5541 14.6946 28.5535H15.1516C15.3614 28.5541 15.5624 28.6377 15.7107 28.786C15.859 28.9343 15.9427 29.1354 15.9433 29.3451V29.8021C15.9427 30.0119 15.859 30.2129 15.7107 30.3612C15.5624 30.5096 15.3614 30.5932 15.1516 30.5938ZM19.8049 30.5938H19.3479C19.1382 30.5932 18.9372 30.5096 18.7888 30.3612C18.6405 30.2129 18.5569 30.0119 18.5563 29.8021V29.3451C18.5569 29.1354 18.6405 28.9343 18.7888 28.786C18.9372 28.6377 19.1382 28.5541 19.3479 28.5535H19.8049C20.0147 28.5541 20.2157 28.6377 20.364 28.786C20.5124 28.9343 20.596 29.1354 20.5966 29.3451V29.8021C20.596 30.0119 20.5124 30.2129 20.364 30.3612C20.2157 30.5096 20.0147 30.5932 19.8049 30.5938ZM24.4586 30.5938H24.0016C23.7918 30.5932 23.5908 30.5096 23.4425 30.3612C23.2942 30.2129 23.2105 30.0119 23.2099 29.8021V29.3451C23.2105 29.1354 23.2942 28.9343 23.4425 28.786C23.5908 28.6377 23.7918 28.5541 24.0016 28.5535H24.4586C24.6684 28.5541 24.8694 28.6377 25.0177 28.786C25.166 28.9343 25.2497 29.1354 25.2503 29.3451V29.8021C25.2497 30.0119 25.166 30.2129 25.0177 30.3612C24.8694 30.5096 24.6684 30.5932 24.4586 30.5938ZM29.1123 30.5938H28.6553C28.4455 30.5932 28.2445 30.5096 28.0962 30.3612C27.9478 30.2129 27.8642 30.0119 27.8636 29.8021V29.3451C27.8642 29.1354 27.9478 28.9343 28.0962 28.786C28.2445 28.6377 28.4455 28.5541 28.6553 28.5535H29.1123C29.322 28.5541 29.523 28.6377 29.6714 28.786C29.8197 28.9343 29.9033 29.1354 29.9039 29.3451V29.8021C29.9033 30.0119 29.8197 30.2129 29.6714 30.3612C29.523 30.5096 29.322 30.5932 29.1123 30.5938ZM33.7659 30.5938H33.3089C33.0992 30.5932 32.8982 30.5096 32.7498 30.3612C32.6015 30.2129 32.5179 30.0119 32.5173 29.8021V29.3451C32.5179 29.1354 32.6015 28.9343 32.7498 28.786C32.8982 28.6377 33.0992 28.5541 33.3089 28.5535H33.7659C33.9757 28.5541 34.1767 28.6377 34.325 28.786C34.4734 28.9343 34.557 29.1354 34.5576 29.3451V29.8021C34.557 30.0119 34.4734 30.2129 34.325 30.3612C34.1767 30.5096 33.9757 30.5932 33.7659 30.5938ZM38.4196 30.5938H37.9626C37.7528 30.5932 37.5518 30.5096 37.4035 30.3612C37.2552 30.2129 37.1716 30.0119 37.1709 29.8021V29.3451C37.1716 29.1354 37.2552 28.9343 37.4035 28.786C37.5518 28.6377 37.7528 28.5541 37.9626 28.5535H38.4196C38.6294 28.5541 38.8304 28.6377 38.9787 28.786C39.127 28.9343 39.2107 29.1354 39.2113 29.3451V29.8021C39.2107 30.0119 39.127 30.2129 38.9787 30.3612C38.8304 30.5096 38.6294 30.5932 38.4196 30.5938ZM42.7153 30.5938H42.2583C42.0485 30.5932 41.8475 30.5096 41.6992 30.3612C41.5508 30.2129 41.4672 30.0119 41.4666 29.8021V29.3451C41.4672 29.1354 41.5508 28.9343 41.6992 28.786C41.8475 28.6377 42.0485 28.5541 42.2583 28.5535H42.7153C42.925 28.5541 43.126 28.6377 43.2744 28.786C43.4227 28.9343 43.5063 29.1354 43.5069 29.3451V29.8021C43.5063 30.0119 43.4227 30.2129 43.2744 30.3612C43.126 30.5096 42.925 30.5932 42.7153 30.5938ZM12.6456 35.3191H12.1886C11.9788 35.3185 11.7778 35.2349 11.6295 35.0866C11.4812 34.9382 11.3975 34.7372 11.3969 34.5275V34.0705C11.3975 33.8607 11.4812 33.6597 11.6295 33.5113C11.7778 33.363 11.9788 33.2794 12.1886 33.2788H12.6456C12.8554 33.2794 13.0564 33.363 13.2047 33.5113C13.353 33.6597 13.4367 33.8607 13.4373 34.0705V34.5275C13.4367 34.7372 13.353 34.9382 13.2047 35.0866C13.0564 35.2349 12.8554 35.3185 12.6456 35.3191ZM17.2993 35.3191H16.8423C16.6325 35.3185 16.4315 35.2349 16.2832 35.0866C16.1348 34.9382 16.0512 34.7372 16.0506 34.5275V34.0705C16.0512 33.8607 16.1348 33.6597 16.2832 33.5113C16.4315 33.363 16.6325 33.2794 16.8423 33.2788H17.2993C17.509 33.2794 17.71 33.363 17.8584 33.5113C18.0067 33.6597 18.0903 33.8607 18.0909 34.0705V34.5275C18.0903 34.7372 18.0067 34.9382 17.8584 35.0866C17.71 35.2349 17.509 35.3185 17.2993 35.3191ZM21.9529 35.3191H21.4959C21.2862 35.3185 21.0852 35.2349 20.9368 35.0866C20.7885 34.9382 20.7049 34.7372 20.7043 34.5275V34.0705C20.7049 33.8607 20.7885 33.6597 20.9368 33.5113C21.0852 33.363 21.2862 33.2794 21.4959 33.2788H21.9529C22.1627 33.2794 22.3637 33.363 22.512 33.5113C22.6604 33.6597 22.744 33.8607 22.7446 34.0705V34.5275C22.744 34.7372 22.6604 34.9382 22.512 35.0866C22.3637 35.2349 22.1627 35.3185 21.9529 35.3191ZM26.6066 35.3191H26.1496C25.9398 35.3185 25.7388 35.2349 25.5905 35.0866C25.4422 34.9382 25.3585 34.7372 25.3579 34.5275V34.0705C25.3585 33.8607 25.4422 33.6597 25.5905 33.5113C25.7388 33.363 25.9398 33.2794 26.1496 33.2788H26.6066C26.8164 33.2794 27.0174 33.363 27.1657 33.5113C27.314 33.6597 27.3977 33.8607 27.3983 34.0705V34.5275C27.3977 34.7372 27.314 34.9382 27.1657 35.0866C27.0174 35.2349 26.8164 35.3185 26.6066 35.3191ZM31.2603 35.3191H30.8033C30.5935 35.3185 30.3925 35.2349 30.2442 35.0866C30.0958 34.9382 30.0122 34.7372 30.0116 34.5275V34.0705C30.0122 33.8607 30.0958 33.6597 30.2442 33.5113C30.3925 33.363 30.5935 33.2794 30.8033 33.2788H31.2603C31.47 33.2794 31.671 33.363 31.8194 33.5113C31.9677 33.6597 32.0513 33.8607 32.0519 34.0705V34.5275C32.0513 34.7372 31.9677 34.9382 31.8194 35.0866C31.671 35.2349 31.47 35.3185 31.2603 35.3191ZM35.9139 35.3191H35.4569C35.2472 35.3185 35.0462 35.2349 34.8978 35.0866C34.7495 34.9382 34.6659 34.7372 34.6653 34.5275V34.0705C34.6659 33.8607 34.7495 33.6597 34.8978 33.5113C35.0462 33.363 35.2472 33.2794 35.4569 33.2788H35.9139C36.1237 33.2794 36.3247 33.363 36.473 33.5113C36.6214 33.6597 36.705 33.8607 36.7056 34.0705V34.5275C36.705 34.7372 36.6214 34.9382 36.473 35.0866C36.3247 35.2349 36.1237 35.3185 35.9139 35.3191ZM40.5673 35.3191H40.1103C39.9005 35.3185 39.6995 35.2349 39.5512 35.0866C39.4028 34.9382 39.3192 34.7372 39.3186 34.5275V34.0705C39.3192 33.8607 39.4028 33.6597 39.5512 33.5113C39.6995 33.363 39.9005 33.2794 40.1103 33.2788H40.5673C40.777 33.2794 40.978 33.363 41.1264 33.5113C41.2747 33.6597 41.3583 33.8607 41.3589 34.0705V34.5275C41.3583 34.7372 41.2747 34.9382 41.1264 35.0866C40.978 35.2349 40.777 35.3185 40.5673 35.3191Z" stroke="black" stroke-miterlimit="10" stroke-linecap="round" stroke-linejoin="round"/>
<path opacity="0.3" d="M35.1528 39.6146H17.6025C17.3927 39.6139 17.1917 39.5303 17.0433 39.382C16.895 39.2337 16.8114 39.0327 16.8108 38.8229V38.3659C16.8114 38.1561 16.895 37.9551 17.0433 37.8068C17.1917 37.6584 17.3927 37.5748 17.6025 37.5742H35.1528C35.3626 37.5748 35.5636 37.6584 35.7119 37.8068C35.8602 37.9551 35.9438 38.1561 35.9445 38.3659V38.8229C35.9438 39.0327 35.8602 39.2337 35.7119 39.382C35.5636 39.5303 35.3626 39.6139 35.1528 39.6146Z" fill="black"/>
<path d="M35.1528 39.6146H17.6025C17.3927 39.6139 17.1917 39.5303 17.0433 39.382C16.895 39.2337 16.8114 39.0327 16.8108 38.8229V38.3659C16.8114 38.1561 16.895 37.9551 17.0433 37.8068C17.1917 37.6584 17.3927 37.5748 17.6025 37.5742H35.1528C35.3626 37.5748 35.5636 37.6584 35.7119 37.8068C35.8602 37.9551 35.9438 38.1561 35.9445 38.3659V38.8229C35.9438 39.0327 35.8602 39.2337 35.7119 39.382C35.5636 39.5303 35.3626 39.6139 35.1528 39.6146Z" stroke="black" stroke-miterlimit="10" stroke-linecap="round" stroke-linejoin="round"/>
<path d="M3.53262 4.96094V8.9876M1.51929 6.97427H5.54629" stroke="black" stroke-miterlimit="10" stroke-linecap="round" stroke-linejoin="round"/>
<path d="M45.3751 5.86719V9.89385M43.3618 7.88052H47.3885" stroke="black" stroke-miterlimit="10" stroke-linecap="round" stroke-linejoin="round"/>
<path d="M8.1233 11.3867V13.7974M6.91797 12.5921H9.32864" stroke="black" stroke-miterlimit="10" stroke-linecap="round" stroke-linejoin="round"/>
</g>
<defs>
<clipPath id="clip0_2397_8455">
<rect width="48" height="48" fill="white" transform="translate(0.666748)"/>
</clipPath>
</defs>
</svg>
