<svg width="50" height="51" viewBox="0 0 50 51" fill="none" xmlns="http://www.w3.org/2000/svg">
<path d="M22.1953 34.6001H34.7448C34.7448 33.7722 34.7448 29.6329 28.8092 29.6329H22.5344C18.6339 27.3149 13.5462 27.9772 10.324 31.1231L9.98486 31.6198" stroke="url(#paint0_linear_2397_8428)" stroke-width="1.49574" stroke-miterlimit="10" stroke-linecap="round" stroke-linejoin="round"/>
<path d="M34.585 33.2723L36.6201 32.9413L41.3686 30.4583C45.4387 28.6375 48.6609 29.2997 49.0001 32.7757L39.6727 38.2381L30.6845 40.7211C29.4974 41.0521 28.4798 41.2176 27.2927 41.2176H18.8133C17.7957 41.2176 16.6086 41.7142 15.9302 42.2108L15.5911 42.3763" stroke="url(#paint1_linear_2397_8428)" stroke-width="1.49574" stroke-miterlimit="10" stroke-linecap="round" stroke-linejoin="round"/>
<path d="M1 39.0718L6.42684 33.6094L17.2805 44.2031L11.8537 49.5" stroke="url(#paint2_linear_2397_8428)" stroke-width="1.49574" stroke-miterlimit="10" stroke-linecap="round" stroke-linejoin="round"/>
<path d="M12.8586 16.3984V17.2293" stroke="url(#paint3_linear_2397_8428)" stroke-width="1.49574" stroke-miterlimit="10" stroke-linecap="round" stroke-linejoin="round"/>
<path d="M12.8586 12.2617V13.0926" stroke="url(#paint4_linear_2397_8428)" stroke-width="1.49574" stroke-miterlimit="10" stroke-linecap="round" stroke-linejoin="round"/>
<path d="M11.1682 14.7422H10.3169" stroke="url(#paint5_linear_2397_8428)" stroke-width="1.49574" stroke-miterlimit="10" stroke-linecap="round" stroke-linejoin="round"/>
<path d="M15.4104 14.7422H14.5591" stroke="url(#paint6_linear_2397_8428)" stroke-width="1.49574" stroke-miterlimit="10" stroke-linecap="round" stroke-linejoin="round"/>
<path d="M6.08374 6.46875V8.12394" stroke="url(#paint7_linear_2397_8428)" stroke-width="1.49574" stroke-miterlimit="10" stroke-linecap="round" stroke-linejoin="round"/>
<path d="M6.08374 1.5V3.15519" stroke="url(#paint8_linear_2397_8428)" stroke-width="1.49574" stroke-miterlimit="10" stroke-linecap="round" stroke-linejoin="round"/>
<path d="M4.38754 4.8125H2.69165" stroke="url(#paint9_linear_2397_8428)" stroke-width="1.49574" stroke-miterlimit="10" stroke-linecap="round" stroke-linejoin="round"/>
<path d="M9.47104 4.8125H7.77515" stroke="url(#paint10_linear_2397_8428)" stroke-width="1.49574" stroke-miterlimit="10" stroke-linecap="round" stroke-linejoin="round"/>
<path d="M42.7304 23.0176C42.2217 22.0242 41.3737 21.3619 40.3562 20.8651L36.6252 19.375" stroke="url(#paint11_linear_2397_8428)" stroke-width="1.49574" stroke-miterlimit="10" stroke-linecap="round" stroke-linejoin="round"/>
<path d="M31.5315 19.375L27.8005 21.0307C26.783 21.5274 25.935 22.1897 25.4263 23.1832" stroke="url(#paint12_linear_2397_8428)" stroke-width="1.49574" stroke-miterlimit="10" stroke-linecap="round" stroke-linejoin="round"/>
<path d="M31.5372 19.376V16.3965C30.5197 15.5689 29.8413 14.4102 29.8413 13.0859V10.603C29.8413 8.28565 31.7068 6.46484 34.081 6.46484C36.4553 6.46484 38.3208 8.28565 38.3208 10.603V13.0859C38.3208 14.4102 37.6424 15.5689 36.6249 16.3965V19.376" stroke="url(#paint13_linear_2397_8428)" stroke-width="1.49574" stroke-miterlimit="10" stroke-linecap="round" stroke-linejoin="round"/>
<path d="M38.3124 13.0859C38.3124 15.0728 36.7861 16.7285 34.9207 17.0597" stroke="url(#paint14_linear_2397_8428)" stroke-width="1.49574" stroke-miterlimit="10" stroke-linecap="round" stroke-linejoin="round"/>
<path d="M34.0715 26.3291C41.0961 26.3291 46.7906 20.7709 46.7906 13.9146C46.7906 7.05819 41.0961 1.5 34.0715 1.5C27.0469 1.5 21.3523 7.05819 21.3523 13.9146C21.3523 20.7709 27.0469 26.3291 34.0715 26.3291Z" stroke="url(#paint15_linear_2397_8428)" stroke-width="1.49574" stroke-miterlimit="10" stroke-linecap="round" stroke-linejoin="round"/>
<defs>
<linearGradient id="paint0_linear_2397_8428" x1="9.98486" y1="31.425" x2="34.7448" y2="31.425" gradientUnits="userSpaceOnUse">
<stop/>
<stop offset="1"/>
</linearGradient>
<linearGradient id="paint1_linear_2397_8428" x1="15.5911" y1="35.9245" x2="49.0001" y2="35.9245" gradientUnits="userSpaceOnUse">
<stop/>
<stop offset="1"/>
</linearGradient>
<linearGradient id="paint2_linear_2397_8428" x1="1" y1="41.5547" x2="17.2805" y2="41.5547" gradientUnits="userSpaceOnUse">
<stop/>
<stop offset="1"/>
</linearGradient>
<linearGradient id="paint3_linear_2397_8428" x1="12.8586" y1="16.8139" x2="13.8586" y2="16.8139" gradientUnits="userSpaceOnUse">
<stop/>
<stop offset="1"/>
</linearGradient>
<linearGradient id="paint4_linear_2397_8428" x1="12.8586" y1="12.6772" x2="13.8586" y2="12.6772" gradientUnits="userSpaceOnUse">
<stop/>
<stop offset="1"/>
</linearGradient>
<linearGradient id="paint5_linear_2397_8428" x1="10.3169" y1="15.2422" x2="11.1682" y2="15.2422" gradientUnits="userSpaceOnUse">
<stop/>
<stop offset="1"/>
</linearGradient>
<linearGradient id="paint6_linear_2397_8428" x1="14.5591" y1="15.2422" x2="15.4104" y2="15.2422" gradientUnits="userSpaceOnUse">
<stop/>
<stop offset="1"/>
</linearGradient>
<linearGradient id="paint7_linear_2397_8428" x1="6.08374" y1="7.29635" x2="7.08374" y2="7.29635" gradientUnits="userSpaceOnUse">
<stop/>
<stop offset="1"/>
</linearGradient>
<linearGradient id="paint8_linear_2397_8428" x1="6.08374" y1="2.3276" x2="7.08374" y2="2.3276" gradientUnits="userSpaceOnUse">
<stop/>
<stop offset="1"/>
</linearGradient>
<linearGradient id="paint9_linear_2397_8428" x1="2.69165" y1="5.3125" x2="4.38754" y2="5.3125" gradientUnits="userSpaceOnUse">
<stop/>
<stop offset="1"/>
</linearGradient>
<linearGradient id="paint10_linear_2397_8428" x1="7.77515" y1="5.3125" x2="9.47104" y2="5.3125" gradientUnits="userSpaceOnUse">
<stop/>
<stop offset="1"/>
</linearGradient>
<linearGradient id="paint11_linear_2397_8428" x1="36.6252" y1="21.1963" x2="42.7304" y2="21.1963" gradientUnits="userSpaceOnUse">
<stop/>
<stop offset="1"/>
</linearGradient>
<linearGradient id="paint12_linear_2397_8428" x1="25.4263" y1="21.2791" x2="31.5315" y2="21.2791" gradientUnits="userSpaceOnUse">
<stop/>
<stop offset="1"/>
</linearGradient>
<linearGradient id="paint13_linear_2397_8428" x1="29.8413" y1="12.9204" x2="38.3208" y2="12.9204" gradientUnits="userSpaceOnUse">
<stop/>
<stop offset="1"/>
</linearGradient>
<linearGradient id="paint14_linear_2397_8428" x1="34.9207" y1="15.0728" x2="38.3124" y2="15.0728" gradientUnits="userSpaceOnUse">
<stop/>
<stop offset="1"/>
</linearGradient>
<linearGradient id="paint15_linear_2397_8428" x1="21.3523" y1="13.9146" x2="46.7906" y2="13.9146" gradientUnits="userSpaceOnUse">
<stop/>
<stop offset="1"/>
</linearGradient>
</defs>
</svg>
