<svg width="49" height="48" viewBox="0 0 49 48" fill="none" xmlns="http://www.w3.org/2000/svg">
<path d="M42.6697 36.0039H6.66968C6.13924 36.0039 5.63054 35.7931 5.25546 35.4181C4.88039 35.043 4.66968 34.5342 4.66968 34.0038V11.336C4.66968 10.8056 4.88039 10.2968 5.25546 9.92175C5.63054 9.54666 6.13924 9.33594 6.66968 9.33594H9.33634C9.51315 9.33594 9.68272 9.40618 9.80775 9.53121C9.93277 9.65624 10.003 9.82582 10.003 10.0026C10.003 10.1795 9.93277 10.349 9.80775 10.4741C9.68272 10.5991 9.51315 10.6693 9.33634 10.6693H6.66968C6.49287 10.6693 6.3233 10.7396 6.19827 10.8646C6.07325 10.9896 6.00301 11.1592 6.00301 11.336V34.0038C6.00301 34.1806 6.07325 34.3502 6.19827 34.4752C6.3233 34.6002 6.49287 34.6705 6.66968 34.6705H42.6697C42.8465 34.6705 43.0161 34.6002 43.1411 34.4752C43.2661 34.3502 43.3363 34.1806 43.3363 34.0038V11.336C43.3363 11.1592 43.2661 10.9896 43.1411 10.8646C43.0161 10.7396 42.8465 10.6693 42.6697 10.6693H40.003C39.8262 10.6693 39.6566 10.5991 39.5316 10.4741C39.4066 10.349 39.3363 10.1795 39.3363 10.0026C39.3363 9.82582 39.4066 9.65624 39.5316 9.53121C39.6566 9.40618 39.8262 9.33594 40.003 9.33594H42.6697C43.2001 9.33594 43.7088 9.54666 44.0839 9.92175C44.459 10.2968 44.6697 10.8056 44.6697 11.336V34.0038C44.6697 34.5342 44.459 35.043 44.0839 35.4181C43.7088 35.7931 43.2001 36.0039 42.6697 36.0039Z" fill="black"/>
<path d="M31.3403 44.003H18.007C17.8302 44.003 17.6606 43.9327 17.5356 43.8077C17.4106 43.6826 17.3403 43.513 17.3403 43.3361V42.0024C17.3414 41.1183 17.6929 40.2708 18.3178 39.6458C18.9427 39.0207 19.7899 38.669 20.6737 38.668H28.6737C29.5574 38.669 30.4046 39.0207 31.0295 39.6458C31.6544 40.2708 32.0059 41.1183 32.007 42.0024V43.3361C32.007 43.513 31.9368 43.6826 31.8117 43.8077C31.6867 43.9327 31.5171 44.003 31.3403 44.003ZM18.6737 42.6692H30.6737V42.0024C30.6737 41.4718 30.4629 40.9629 30.0879 40.5877C29.7128 40.2125 29.2041 40.0017 28.6737 40.0017H20.6737C20.1432 40.0017 19.6345 40.2125 19.2595 40.5877C18.8844 40.9629 18.6737 41.4718 18.6737 42.0024V42.6692Z" fill="black"/>
<path d="M28.0028 40.003H21.3361C21.1593 40.003 20.9897 39.9327 20.8647 39.8077C20.7397 39.6826 20.6694 39.513 20.6694 39.3361V35.3348C20.6694 35.158 20.7397 34.9884 20.8647 34.8633C20.9897 34.7382 21.1593 34.668 21.3361 34.668H28.0028C28.1796 34.668 28.3491 34.7382 28.4742 34.8633C28.5992 34.9884 28.6694 35.158 28.6694 35.3348V39.3361C28.6694 39.513 28.5992 39.6826 28.4742 39.8077C28.3491 39.9327 28.1796 40.003 28.0028 40.003ZM22.0028 38.6692H27.3361V36.0017H22.0028V38.6692Z" fill="black"/>
<path d="M42.6697 36.003H6.66968C6.13924 36.003 5.63054 35.7922 5.25546 35.417C4.88039 35.0418 4.66968 34.533 4.66968 34.0024V31.3348C4.66968 31.158 4.73992 30.9884 4.86494 30.8633C4.98996 30.7382 5.15953 30.668 5.33634 30.668H44.003C44.1798 30.668 44.3494 30.7382 44.4744 30.8633C44.5994 30.9884 44.6697 31.158 44.6697 31.3348V34.0024C44.6697 34.533 44.459 35.0418 44.0839 35.417C43.7088 35.7922 43.2001 36.003 42.6697 36.003ZM6.00301 32.0017V34.0024C6.00301 34.1792 6.07325 34.3488 6.19827 34.4739C6.3233 34.599 6.49287 34.6692 6.66968 34.6692H42.6697C42.8465 34.6692 43.0161 34.599 43.1411 34.4739C43.2661 34.3488 43.3363 34.1792 43.3363 34.0024V32.0017H6.00301Z" fill="black"/>
<path d="M40.002 32.0013H9.33537C9.15856 32.0013 8.98899 31.9311 8.86396 31.8061C8.73894 31.681 8.6687 31.5115 8.6687 31.3346V7.33349C8.66976 6.44972 9.02129 5.60245 9.64618 4.97753C10.2711 4.3526 11.1183 4.00106 12.002 4H37.3354C38.2191 4.00106 39.0663 4.3526 39.6912 4.97753C40.3161 5.60245 40.6676 6.44972 40.6687 7.33349V31.3346C40.6687 31.5115 40.5985 31.681 40.4734 31.8061C40.3484 31.9311 40.1788 32.0013 40.002 32.0013ZM10.002 30.6679H39.3354V7.33349C39.3354 6.80303 39.1247 6.2943 38.7496 5.91921C38.3745 5.54412 37.8658 5.3334 37.3354 5.3334H12.002C11.4716 5.3334 10.9629 5.54412 10.5878 5.91921C10.2127 6.2943 10.002 6.80303 10.002 7.33349V30.6679Z" fill="black"/>
<path d="M14.0008 9.33463C14.7372 9.33463 15.3341 8.73768 15.3341 8.0013C15.3341 7.26492 14.7372 6.66797 14.0008 6.66797C13.2644 6.66797 12.6675 7.26492 12.6675 8.0013C12.6675 8.73768 13.2644 9.33463 14.0008 9.33463Z" fill="black"/>
<path d="M17.338 9.33463C18.0744 9.33463 18.6713 8.73768 18.6713 8.0013C18.6713 7.26492 18.0744 6.66797 17.338 6.66797C16.6016 6.66797 16.0046 7.26492 16.0046 8.0013C16.0046 8.73768 16.6016 9.33463 17.338 9.33463Z" fill="black"/>
<path d="M20.6751 9.33463C21.4115 9.33463 22.0085 8.73768 22.0085 8.0013C22.0085 7.26492 21.4115 6.66797 20.6751 6.66797C19.9388 6.66797 19.3418 7.26492 19.3418 8.0013C19.3418 8.73768 19.9388 9.33463 20.6751 9.33463Z" fill="black"/>
<path d="M40.002 12.0025H9.33537C9.15856 12.0025 8.98899 11.9323 8.86396 11.8072C8.73894 11.6821 8.6687 11.5125 8.6687 11.3357V7.33439C8.66976 6.45038 9.02129 5.60288 9.64618 4.97779C10.2711 4.3527 11.1183 4.00106 12.002 4H37.3354C38.2191 4.00106 39.0663 4.3527 39.6912 4.97779C40.3161 5.60288 40.6676 6.45038 40.6687 7.33439V11.3357C40.6687 11.5125 40.5985 11.6821 40.4734 11.8072C40.3484 11.9323 40.1788 12.0025 40.002 12.0025ZM10.002 10.6688H39.3354V7.33439C39.3354 6.80379 39.1247 6.29492 38.7496 5.91973C38.3745 5.54454 37.8658 5.33376 37.3354 5.33376H12.002C11.4716 5.33376 10.9629 5.54454 10.5878 5.91973C10.2127 6.29492 10.002 6.80379 10.002 7.33439V10.6688Z" fill="black"/>
<path d="M36.6711 8.66927H32.6711C32.4943 8.66927 32.3247 8.59903 32.1997 8.474C32.0746 8.34898 32.0044 8.17941 32.0044 8.0026C32.0044 7.82579 32.0746 7.65622 32.1997 7.5312C32.3247 7.40618 32.4943 7.33594 32.6711 7.33594H36.6711C36.8479 7.33594 37.0174 7.40618 37.1425 7.5312C37.2675 7.65622 37.3377 7.82579 37.3377 8.0026C37.3377 8.17941 37.2675 8.34898 37.1425 8.474C37.0174 8.59903 36.8479 8.66927 36.6711 8.66927Z" fill="black"/>
<path d="M30.6714 8.66927H29.3381C29.1612 8.66927 28.9917 8.59903 28.8666 8.474C28.7416 8.34898 28.6714 8.17941 28.6714 8.0026C28.6714 7.82579 28.7416 7.65622 28.8666 7.5312C28.9917 7.40618 29.1612 7.33594 29.3381 7.33594H30.6714C30.8482 7.33594 31.0178 7.40618 31.1428 7.5312C31.2678 7.65622 31.3381 7.82579 31.3381 8.0026C31.3381 8.17941 31.2678 8.34898 31.1428 8.474C31.0178 8.59903 30.8482 8.66927 30.6714 8.66927Z" fill="black"/>
<path d="M26.0082 29.9963H23.3416C22.8112 29.9963 22.3024 29.7856 21.9274 29.4105C21.5523 29.0354 21.3416 28.5267 21.3416 27.9963V25.7921C21.3422 25.7014 21.3236 25.6115 21.2871 25.5285C21.2506 25.4454 21.1969 25.371 21.1296 25.3101C20.3214 24.5909 19.7511 23.6429 19.4943 22.5919C19.2374 21.541 19.3063 20.4368 19.6917 19.4258C20.077 18.4149 20.7607 17.5451 21.6519 16.9319C22.5432 16.3186 23.5998 15.9909 24.6817 15.9922C25.7635 15.9935 26.8193 16.3238 27.7091 16.9393C28.5988 17.5547 29.2804 18.4262 29.6632 19.4381C30.0461 20.4499 30.1123 21.5543 29.8529 22.6046C29.5935 23.6549 29.0208 24.6015 28.2109 25.3188C28.1459 25.3792 28.0945 25.4526 28.06 25.5343C28.0256 25.616 28.0088 25.7041 28.0109 25.7928V27.9963C28.0109 28.2591 27.9591 28.5194 27.8584 28.7623C27.7577 29.0051 27.6102 29.2257 27.4242 29.4115C27.2382 29.5972 27.0174 29.7445 26.7744 29.8449C26.5315 29.9452 26.2711 29.9967 26.0082 29.9963ZM24.6636 17.3291C24.3951 17.3293 24.1272 17.3552 23.8636 17.4064C23.0892 17.5617 22.3787 17.9444 21.823 18.5057C21.2673 19.067 20.8917 19.7813 20.7442 20.5572C20.6123 21.2396 20.66 21.9446 20.8826 22.6029C21.1053 23.2613 21.4952 23.8505 22.0142 24.3127C22.2226 24.4987 22.3891 24.7267 22.503 24.9817C22.6169 25.2367 22.6755 25.5129 22.6749 25.7921V27.9963C22.6749 28.1731 22.7452 28.3427 22.8702 28.4677C22.9952 28.5927 23.1648 28.663 23.3416 28.663H26.0082C26.1851 28.663 26.3546 28.5927 26.4797 28.4677C26.6047 28.3427 26.6749 28.1731 26.6749 27.9963V25.7961C26.6732 25.5185 26.7305 25.2437 26.8428 24.9898C26.9552 24.7359 27.1202 24.5088 27.3269 24.3234C27.9337 23.7839 28.3619 23.0726 28.5547 22.2839C28.7475 21.4952 28.6958 20.6666 28.4064 19.908C28.1169 19.1494 27.6036 18.4969 26.9344 18.0371C26.2653 17.5772 25.4721 17.3319 24.6603 17.3337L24.6636 17.3291Z" fill="black"/>
<path d="M24.6694 15.3307C24.4925 15.3307 24.323 15.2605 24.1979 15.1355C24.0729 15.0104 24.0027 14.8409 24.0027 14.6641V13.3307C24.0027 13.1539 24.0729 12.9843 24.1979 12.8593C24.323 12.7343 24.4925 12.6641 24.6694 12.6641C24.8462 12.6641 25.0157 12.7343 25.1408 12.8593C25.2658 12.9843 25.336 13.1539 25.336 13.3307V14.6641C25.336 14.8409 25.2658 15.0104 25.1408 15.1355C25.0157 15.2605 24.8462 15.3307 24.6694 15.3307Z" fill="black"/>
<path d="M29.3887 17.2873C29.2569 17.2873 29.128 17.2482 29.0184 17.1749C28.9088 17.1017 28.8234 16.9976 28.7729 16.8758C28.7225 16.754 28.7093 16.6199 28.735 16.4906C28.7607 16.3613 28.8242 16.2426 28.9174 16.1493L29.86 15.2067C29.9858 15.0852 30.1542 15.018 30.329 15.0196C30.5038 15.0211 30.671 15.0912 30.7946 15.2148C30.9182 15.3384 30.9883 15.5056 30.9898 15.6804C30.9913 15.8552 30.9241 16.0236 30.8027 16.1493L29.86 17.092C29.735 17.217 29.5655 17.2873 29.3887 17.2873Z" fill="black"/>
<path d="M32.6689 21.9974H31.3356C31.1588 21.9974 30.9892 21.9272 30.8642 21.8021C30.7392 21.6771 30.6689 21.5075 30.6689 21.3307C30.6689 21.1539 30.7392 20.9843 30.8642 20.8593C30.9892 20.7343 31.1588 20.6641 31.3356 20.6641H32.6689C32.8458 20.6641 33.0153 20.7343 33.1404 20.8593C33.2654 20.9843 33.3356 21.1539 33.3356 21.3307C33.3356 21.5075 33.2654 21.6771 33.1404 21.8021C33.0153 21.9272 32.8458 21.9974 32.6689 21.9974Z" fill="black"/>
<path d="M30.3275 27.6545C30.1507 27.6545 29.9811 27.5842 29.8561 27.4592L28.9135 26.5165C28.792 26.3908 28.7248 26.2224 28.7263 26.0476C28.7279 25.8728 28.798 25.7056 28.9216 25.582C29.0452 25.4584 29.2124 25.3883 29.3872 25.3867C29.562 25.3852 29.7304 25.4524 29.8561 25.5739L30.7988 26.5165C30.892 26.6098 30.9555 26.7285 30.9812 26.8578C31.0069 26.9871 30.9937 27.1212 30.9432 27.243C30.8928 27.3648 30.8074 27.4689 30.6978 27.5421C30.5882 27.6154 30.4593 27.6545 30.3275 27.6545Z" fill="black"/>
<path d="M20.0035 17.2842C19.8267 17.2841 19.6572 17.2139 19.5322 17.0889L18.5895 16.1462C18.5258 16.0847 18.475 16.0111 18.4401 15.9298C18.4052 15.8485 18.3868 15.761 18.386 15.6725C18.3852 15.5839 18.4021 15.4962 18.4356 15.4142C18.4692 15.3323 18.5187 15.2579 18.5812 15.1953C18.6438 15.1327 18.7183 15.0832 18.8002 15.0496C18.8821 15.0161 18.9699 14.9993 19.0584 15C19.147 15.0008 19.2344 15.0192 19.3158 15.0541C19.3971 15.0891 19.4707 15.1399 19.5322 15.2035L20.4748 16.1462C20.5681 16.2394 20.6315 16.3582 20.6572 16.4875C20.6829 16.6168 20.6697 16.7508 20.6193 16.8726C20.5688 16.9944 20.4834 17.0985 20.3738 17.1718C20.2642 17.245 20.1353 17.2842 20.0035 17.2842Z" fill="black"/>
<path d="M18.0518 21.9974H16.7184C16.5416 21.9974 16.372 21.9272 16.247 21.8021C16.122 21.6771 16.0518 21.5075 16.0518 21.3307C16.0518 21.1539 16.122 20.9843 16.247 20.8593C16.372 20.7343 16.5416 20.6641 16.7184 20.6641H18.0518C18.2286 20.6641 18.3981 20.7343 18.5232 20.8593C18.6482 20.9843 18.7184 21.1539 18.7184 21.3307C18.7184 21.5075 18.6482 21.6771 18.5232 21.8021C18.3981 21.9272 18.2286 21.9974 18.0518 21.9974Z" fill="black"/>
<path d="M19.0603 27.6545C18.9285 27.6545 18.7996 27.6154 18.69 27.5421C18.5804 27.4689 18.495 27.3648 18.4445 27.243C18.3941 27.1212 18.3809 26.9871 18.4066 26.8578C18.4323 26.7285 18.4958 26.6098 18.589 26.5165L19.5317 25.5739C19.6574 25.4524 19.8258 25.3852 20.0006 25.3867C20.1754 25.3883 20.3426 25.4584 20.4662 25.582C20.5898 25.7056 20.6599 25.8728 20.6614 26.0476C20.663 26.2224 20.5958 26.3908 20.4743 26.5165L19.5317 27.4592C19.4699 27.5213 19.3965 27.5706 19.3156 27.6041C19.2347 27.6376 19.1479 27.6548 19.0603 27.6545Z" fill="black"/>
<path d="M27.3352 27.3333H22.0019C21.8251 27.3333 21.6555 27.2631 21.5305 27.1381C21.4054 27.013 21.3352 26.8435 21.3352 26.6667C21.3352 26.4899 21.4054 26.3203 21.5305 26.1953C21.6555 26.0702 21.8251 26 22.0019 26H27.3352C27.512 26 27.6816 26.0702 27.8066 26.1953C27.9316 26.3203 28.0019 26.4899 28.0019 26.6667C28.0019 26.8435 27.9316 27.013 27.8066 27.1381C27.6816 27.2631 27.512 27.3333 27.3352 27.3333Z" fill="black"/>
<path d="M24.6694 27.3318C24.4925 27.3318 24.323 27.2616 24.1979 27.1365C24.0729 27.0114 24.0027 26.8418 24.0027 26.6649V24.6643C24.0027 24.4875 24.073 24.3179 24.198 24.1928L25.5314 22.8591C25.6571 22.7376 25.8255 22.6704 26.0003 22.6719C26.1751 22.6734 26.3423 22.7436 26.4659 22.8672C26.5895 22.9908 26.6596 23.1581 26.6611 23.333C26.6627 23.5078 26.5955 23.6763 26.474 23.802L25.336 24.9404V26.6649C25.336 26.8418 25.2658 27.0114 25.1408 27.1365C25.0157 27.2616 24.8462 27.3318 24.6694 27.3318Z" fill="black"/>
<path d="M24.6705 25.3303C24.4937 25.3303 24.3242 25.26 24.1992 25.135L22.8659 23.8017C22.7444 23.6759 22.6772 23.5075 22.6787 23.3327C22.6803 23.1579 22.7504 22.9907 22.874 22.8671C22.9976 22.7435 23.1648 22.6734 23.3396 22.6719C23.5144 22.6704 23.6828 22.7376 23.8085 22.859L25.1419 24.1923C25.2351 24.2856 25.2985 24.4044 25.3242 24.5337C25.35 24.663 25.3368 24.797 25.2863 24.9188C25.2359 25.0406 25.1504 25.1447 25.0408 25.2179C24.9312 25.2912 24.8024 25.3303 24.6705 25.3303Z" fill="black"/>
</svg>
