<svg width="49" height="48" viewBox="0 0 49 48" fill="none" xmlns="http://www.w3.org/2000/svg">
<path d="M19.0803 0.937507C19.0803 1.45533 18.6606 1.87501 18.1428 1.87501C17.625 1.87501 17.2053 1.45533 17.2053 0.937507C17.2053 0.419681 17.625 0 18.1428 0C18.6606 0 19.0803 0.419681 19.0803 0.937507Z" fill="black"/>
<path d="M18.1929 35.6722C21.6514 35.6722 24.9744 34.69 27.855 32.8257L42.7554 47.7253C43.1212 48.0912 43.7148 48.0915 44.0811 47.7253L48.0588 43.7477C48.425 43.3815 48.425 42.7882 48.0588 42.422L33.1588 27.522C35.0232 24.6418 36.0054 21.3185 36.0054 17.8601C36.0054 16.2895 35.801 14.7353 35.3982 13.2317L38.79 9.83996C39.3481 10.1703 39.9985 10.3603 40.6929 10.3603C42.7605 10.3603 44.4429 8.67836 44.4429 6.61042C44.4429 4.54285 42.7605 2.86052 40.6929 2.86052C38.6252 2.86052 36.9429 4.54285 36.9429 6.61042C36.9429 7.30511 37.1333 7.95585 37.464 8.51431L34.735 11.2432C32.6307 5.98019 28.0864 1.94575 22.564 0.544663C22.0619 0.417224 21.5521 0.721172 21.4247 1.22287C21.2976 1.72493 21.6012 2.23505 22.1029 2.36212C27.3082 3.68264 31.5435 7.61821 33.2778 12.7004L28.5343 17.4438C27.9758 17.1134 27.3251 16.9227 26.6304 16.9227C25.9496 16.9227 25.2966 17.1036 24.7253 17.4419L21.4221 14.1388C21.7524 13.5803 21.9429 12.93 21.9429 12.2353C21.9429 10.1677 20.2605 8.48538 18.1929 8.48538C16.1252 8.48538 14.4429 10.1677 14.4429 12.2353C14.4429 12.93 14.6333 13.5807 14.964 14.1392L11.6593 17.4438C11.1008 17.1134 10.4501 16.9227 9.75537 16.9227C7.68774 16.9227 6.00537 18.605 6.00537 20.6726C6.00537 22.7405 7.68774 24.4225 9.75537 24.4225C11.823 24.4225 13.5054 22.7405 13.5054 20.6726C13.5054 19.9786 13.3149 19.3282 12.985 18.7701L16.29 15.4648C16.8485 15.7951 17.4985 15.9852 18.1929 15.9852C18.8872 15.9852 19.538 15.7948 20.0961 15.4644L23.3993 18.7676C23.0613 19.3389 22.8804 19.9918 22.8804 20.6726C22.8804 22.7405 24.5627 24.4225 26.6304 24.4225C28.698 24.4225 30.3804 22.7405 30.3804 20.6726C30.3804 19.9786 30.1899 19.3282 29.86 18.7701L33.8356 14.7943C34.0311 15.7999 34.1304 16.826 34.1304 17.8601C34.1304 26.6618 26.9977 33.7972 18.1929 33.7972C9.37891 33.7972 2.2085 26.6479 2.2085 17.8601C2.2085 10.5764 7.13806 4.21217 14.1964 2.38373C14.6978 2.25373 14.9988 1.74214 14.8688 1.24081C14.7388 0.739848 14.2272 0.438464 13.7262 0.568466C6.10791 2.54193 0.333496 9.49353 0.333496 17.8601C0.333496 27.6817 8.34509 35.6722 18.1929 35.6722ZM40.6929 4.73547C41.7267 4.73547 42.5679 5.57664 42.5679 6.61042C42.5679 7.64421 41.7267 8.48538 40.6929 8.48538C39.6591 8.48538 38.8179 7.64421 38.8179 6.61042C38.8179 5.57664 39.6591 4.73547 40.6929 4.73547ZM9.75537 22.5475C8.72156 22.5475 7.88037 21.7063 7.88037 20.6726C7.88037 19.6388 8.72156 18.7976 9.75537 18.7976C10.7892 18.7976 11.6304 19.6388 11.6304 20.6726C11.6304 21.7063 10.7892 22.5475 9.75537 22.5475ZM16.3179 12.2353C16.3179 11.2015 17.1591 10.3603 18.1929 10.3603C19.2267 10.3603 20.0679 11.2015 20.0679 12.2353C20.0679 13.2691 19.2267 14.1102 18.1929 14.1102C17.1591 14.1102 16.3179 13.2691 16.3179 12.2353ZM26.6304 22.5475C25.5966 22.5475 24.7554 21.7063 24.7554 20.6726C24.7554 19.6373 25.5947 18.7976 26.6304 18.7976C27.6642 18.7976 28.5054 19.6388 28.5054 20.6726C28.5054 21.7063 27.6642 22.5475 26.6304 22.5475ZM43.4182 45.7369L32.9991 35.3177L35.6509 32.666L46.0699 43.0848L43.4182 45.7369ZM32.0444 29.0593L34.3252 31.34L31.6731 33.992L29.3923 31.7113C30.3679 30.9222 31.2549 30.0349 32.0444 29.0593Z" fill="url(#paint0_linear_2397_8482)"/>
<defs>
<linearGradient id="paint0_linear_2397_8482" x1="0.333496" y1="24.2577" x2="48.3335" y2="24.2577" gradientUnits="userSpaceOnUse">
<stop/>
<stop offset="1"/>
</linearGradient>
</defs>
</svg>
