<svg width="5744" height="4364" viewBox="0 0 5744 4364" fill="none" xmlns="http://www.w3.org/2000/svg">
<rect width="5744" height="4364" rx="200" fill="url(#paint0_linear_1586_86)"/>
<rect x="152" y="550" width="2682.04" height="741.73" rx="130.281" fill="white"/>
<rect x="2909.55" y="550" width="2683.09" height="742.02" rx="130.331" fill="white"/>
<rect x="152" y="1368.58" width="5440.64" height="2669.42" rx="128.015" fill="white"/>
<rect x="152" y="1334.93" width="5440.64" height="2669.42" rx="128.015" fill="white"/>
<path d="M668.173 815.827V797.34M619.621 835.063L606.548 821.99M619.621 932.914L606.548 945.988M717.473 835.063L730.546 821.99M600.386 883.615H581.898M662.011 877.452L712.68 1034.94L748.285 999.332L792.792 1043.84L828.397 1008.23L783.891 963.727L819.496 928.121L662.011 877.452Z" stroke="#005BF7" stroke-width="24.6499" stroke-linecap="round" stroke-linejoin="round"/>
<path d="M3513.38 846.64V994.539M3550.36 889.777C3550.36 872.76 3533.8 858.965 3513.38 858.965C3492.96 858.965 3476.41 872.76 3476.41 889.777C3476.41 906.794 3492.96 920.59 3513.38 920.59C3533.8 920.59 3550.36 934.385 3550.36 951.402C3550.36 968.419 3533.8 982.214 3513.38 982.214C3492.96 982.214 3476.41 968.419 3476.41 951.402M3451.76 813.829C3469.89 803.342 3490.93 797.34 3513.38 797.34C3581.45 797.34 3636.63 852.521 3636.63 920.59C3636.63 988.658 3581.45 1043.84 3513.38 1043.84C3445.31 1043.84 3390.13 988.658 3390.13 920.59C3390.13 898.141 3396.13 877.093 3406.62 858.965" stroke="#005BF7" stroke-width="21.0323" stroke-linecap="round"/>
<path d="M1143.23 848.121C1134.51 848.121 1126.44 846.704 1119.03 843.871C1111.73 840.929 1105.36 836.842 1099.91 831.611C1094.57 826.272 1090.37 820.06 1087.32 812.977C1084.27 805.893 1082.74 798.101 1082.74 789.601C1082.74 781.101 1084.27 773.31 1087.32 766.226C1090.37 759.143 1094.62 752.986 1100.07 747.755C1105.52 742.415 1111.9 738.329 1119.2 735.495C1126.61 732.553 1134.67 731.082 1143.39 731.082C1152.22 731.082 1160.33 732.607 1167.75 735.659C1175.26 738.601 1181.64 743.015 1186.87 748.899L1176.25 759.197C1171.89 754.62 1166.98 751.242 1161.53 749.063C1156.08 746.774 1150.25 745.63 1144.04 745.63C1137.61 745.63 1131.62 746.72 1126.06 748.899C1120.61 751.079 1115.87 754.13 1111.84 758.053C1107.81 761.976 1104.65 766.662 1102.36 772.111C1100.18 777.451 1099.09 783.281 1099.09 789.601C1099.09 795.922 1100.18 801.807 1102.36 807.255C1104.65 812.595 1107.81 817.227 1111.84 821.15C1115.87 825.073 1120.61 828.124 1126.06 830.304C1131.62 832.483 1137.61 833.573 1144.04 833.573C1150.25 833.573 1156.08 832.483 1161.53 830.304C1166.98 828.015 1171.89 824.528 1176.25 819.842L1186.87 830.14C1181.64 836.025 1175.26 840.493 1167.75 843.544C1160.33 846.595 1152.16 848.121 1143.23 848.121ZM1231.63 846.813V746.611H1192.4V732.39H1287.05V746.611H1247.82V846.813H1231.63ZM1354.42 848.121C1345.7 848.121 1337.64 846.704 1330.23 843.871C1322.92 840.929 1316.55 836.842 1311.1 831.611C1305.76 826.272 1301.57 820.06 1298.51 812.977C1295.46 805.893 1293.94 798.101 1293.94 789.601C1293.94 781.101 1295.46 773.31 1298.51 766.226C1301.57 759.143 1305.82 752.986 1311.26 747.755C1316.71 742.415 1323.09 738.329 1330.39 735.495C1337.8 732.553 1345.86 731.082 1354.58 731.082C1363.41 731.082 1371.53 732.607 1378.94 735.659C1386.46 738.601 1392.83 743.015 1398.06 748.899L1387.44 759.197C1383.08 754.62 1378.17 751.242 1372.73 749.063C1367.28 746.774 1361.45 745.63 1355.24 745.63C1348.81 745.63 1342.81 746.72 1337.25 748.899C1331.81 751.079 1327.07 754.13 1323.03 758.053C1319 761.976 1315.84 766.662 1313.55 772.111C1311.37 777.451 1310.28 783.281 1310.28 789.601C1310.28 795.922 1311.37 801.807 1313.55 807.255C1315.84 812.595 1319 817.227 1323.03 821.15C1327.07 825.073 1331.81 828.124 1337.25 830.304C1342.81 832.483 1348.81 833.573 1355.24 833.573C1361.45 833.573 1367.28 832.483 1372.73 830.304C1378.17 828.015 1383.08 824.528 1387.44 819.842L1398.06 830.14C1392.83 836.025 1386.46 840.493 1378.94 843.544C1371.53 846.595 1363.35 848.121 1354.42 848.121Z" fill="#A3A3A3"/>
<path d="M3900.99 848.121C3892.27 848.121 3884.2 846.704 3876.79 843.871C3869.49 840.929 3863.12 836.842 3857.67 831.611C3852.33 826.272 3848.13 820.06 3845.08 812.977C3842.03 805.893 3840.5 798.101 3840.5 789.601C3840.5 781.101 3842.03 773.31 3845.08 766.226C3848.13 759.143 3852.38 752.986 3857.83 747.755C3863.28 742.415 3869.66 738.329 3876.96 735.495C3884.37 732.553 3892.43 731.082 3901.15 731.082C3909.98 731.082 3918.09 732.607 3925.5 735.659C3933.02 738.601 3939.4 743.015 3944.63 748.899L3934.01 759.197C3929.65 754.62 3924.74 751.242 3919.29 749.063C3913.84 746.774 3908.01 745.63 3901.8 745.63C3895.37 745.63 3889.38 746.72 3883.82 748.899C3878.37 751.079 3873.63 754.13 3869.6 758.053C3865.57 761.976 3862.41 766.662 3860.12 772.111C3857.94 777.451 3856.85 783.281 3856.85 789.601C3856.85 795.922 3857.94 801.807 3860.12 807.255C3862.41 812.595 3865.57 817.227 3869.6 821.15C3873.63 825.073 3878.37 828.124 3883.82 830.304C3889.38 832.483 3895.37 833.573 3901.8 833.573C3908.01 833.573 3913.84 832.483 3919.29 830.304C3924.74 828.015 3929.65 824.528 3934.01 819.842L3944.63 830.14C3939.4 836.025 3933.02 840.493 3925.5 843.544C3918.09 846.595 3909.92 848.121 3900.99 848.121ZM3967.95 846.813V732.39H4012.57C4022.6 732.39 4031.15 733.97 4038.24 737.13C4045.32 740.29 4050.77 744.867 4054.58 750.861C4058.4 756.854 4060.31 763.992 4060.31 772.274C4060.31 780.556 4058.4 787.694 4054.58 793.688C4050.77 799.573 4045.32 804.15 4038.24 807.419C4031.15 810.579 4022.6 812.159 4012.57 812.159H3976.94L3984.3 804.477V846.813H3967.95ZM3984.3 806.111L3976.94 797.938H4012.08C4022.55 797.938 4030.45 795.704 4035.79 791.236C4041.23 786.768 4043.96 780.448 4043.96 772.274C4043.96 764.101 4041.23 757.781 4035.79 753.313C4030.45 748.845 4022.55 746.611 4012.08 746.611H3976.94L3984.3 738.438V806.111ZM4137.08 848.121C4128.36 848.121 4120.3 846.704 4112.89 843.871C4105.59 840.929 4099.21 836.842 4093.76 831.611C4088.42 826.272 4084.23 820.06 4081.18 812.977C4078.13 805.893 4076.6 798.101 4076.6 789.601C4076.6 781.101 4078.13 773.31 4081.18 766.226C4084.23 759.143 4088.48 752.986 4093.93 747.755C4099.38 742.415 4105.75 738.329 4113.05 735.495C4120.46 732.553 4128.53 731.082 4137.24 731.082C4146.07 731.082 4154.19 732.607 4161.6 735.659C4169.12 738.601 4175.49 743.015 4180.73 748.899L4170.1 759.197C4165.74 754.62 4160.84 751.242 4155.39 749.063C4149.94 746.774 4144.11 745.63 4137.9 745.63C4131.47 745.63 4125.47 746.72 4119.92 748.899C4114.47 751.079 4109.73 754.13 4105.7 758.053C4101.66 761.976 4098.5 766.662 4096.21 772.111C4094.04 777.451 4092.95 783.281 4092.95 789.601C4092.95 795.922 4094.04 801.807 4096.21 807.255C4098.5 812.595 4101.66 817.227 4105.7 821.15C4109.73 825.073 4114.47 828.124 4119.92 830.304C4125.47 832.483 4131.47 833.573 4137.9 833.573C4144.11 833.573 4149.94 832.483 4155.39 830.304C4160.84 828.015 4165.74 824.528 4170.1 819.842L4180.73 830.14C4175.49 836.025 4169.12 840.493 4161.6 843.544C4154.19 846.595 4146.02 848.121 4137.08 848.121Z" fill="#A3A3A3"/>
<path d="M1145.99 964.861C1162.24 964.861 1176.04 968.331 1187.38 975.271C1198.89 982.042 1207.69 991.944 1213.79 1004.98C1219.88 1018.01 1222.93 1034.09 1222.93 1053.22C1222.93 1073.53 1219.2 1090.72 1211.76 1104.76C1204.48 1118.81 1194.32 1129.48 1181.29 1136.76C1168.25 1144.04 1153.1 1147.68 1135.84 1147.68C1126.87 1147.68 1118.32 1146.74 1110.19 1144.88C1102.07 1143.02 1095.04 1140.14 1089.12 1136.25L1101.31 1111.37C1106.21 1114.58 1111.55 1116.87 1117.3 1118.22C1123.06 1119.41 1128.98 1120 1135.08 1120C1151.83 1120 1165.12 1114.84 1174.94 1104.51C1184.76 1094.19 1189.67 1078.95 1189.67 1058.81C1189.67 1055.59 1189.58 1051.87 1189.41 1047.64C1189.24 1043.23 1188.65 1038.83 1187.63 1034.43L1197.79 1045.6C1194.91 1052.54 1190.77 1058.38 1185.35 1063.12C1179.93 1067.69 1173.58 1071.16 1166.31 1073.53C1159.03 1075.9 1150.99 1077.09 1142.18 1077.09C1130.67 1077.09 1120.26 1074.89 1110.95 1070.49C1101.81 1065.92 1094.53 1059.57 1089.12 1051.44C1083.7 1043.15 1080.99 1033.5 1080.99 1022.5C1080.99 1010.65 1083.87 1000.49 1089.63 992.029C1095.38 983.396 1103.17 976.71 1112.98 971.97C1122.97 967.23 1133.97 964.861 1145.99 964.861ZM1147.77 990.759C1141 990.759 1134.99 992.029 1129.74 994.568C1124.5 996.938 1120.35 1000.41 1117.3 1004.98C1114.42 1009.38 1112.98 1014.71 1112.98 1020.97C1112.98 1030.28 1116.2 1037.65 1122.63 1043.06C1129.07 1048.48 1137.7 1051.19 1148.53 1051.19C1155.64 1051.19 1161.9 1049.92 1167.32 1047.38C1172.74 1044.67 1176.97 1041.03 1180.02 1036.46C1183.06 1031.72 1184.59 1026.48 1184.59 1020.72C1184.59 1015.13 1183.15 1010.14 1180.27 1005.74C1177.39 1001.17 1173.25 997.53 1167.83 994.822C1162.41 992.114 1155.73 990.759 1147.77 990.759ZM1319.4 1147.68C1305.35 1147.68 1292.66 1144.12 1281.32 1137.01C1270.14 1129.9 1261.34 1119.58 1254.91 1106.03C1248.48 1092.32 1245.26 1075.73 1245.26 1056.27C1245.26 1036.8 1248.48 1020.3 1254.91 1006.76C1261.34 993.045 1270.14 982.634 1281.32 975.525C1292.66 968.415 1305.35 964.861 1319.4 964.861C1333.62 964.861 1346.32 968.415 1357.49 975.525C1368.66 982.634 1377.46 993.045 1383.89 1006.76C1390.5 1020.3 1393.8 1036.8 1393.8 1056.27C1393.8 1075.73 1390.5 1092.32 1383.89 1106.03C1377.46 1119.58 1368.66 1129.9 1357.49 1137.01C1346.32 1144.12 1333.62 1147.68 1319.4 1147.68ZM1319.4 1118.98C1327.7 1118.98 1334.89 1116.78 1340.98 1112.38C1347.08 1107.81 1351.82 1100.87 1355.2 1091.56C1358.76 1082.25 1360.54 1070.49 1360.54 1056.27C1360.54 1041.88 1358.76 1030.12 1355.2 1020.97C1351.82 1011.66 1347.08 1004.81 1340.98 1000.41C1334.89 995.838 1327.7 993.552 1319.4 993.552C1311.45 993.552 1304.34 995.838 1298.07 1000.41C1291.98 1004.81 1287.16 1011.66 1283.6 1020.97C1280.21 1030.12 1278.52 1041.88 1278.52 1056.27C1278.52 1070.49 1280.21 1082.25 1283.6 1091.56C1287.16 1100.87 1291.98 1107.81 1298.07 1112.38C1304.34 1116.78 1311.45 1118.98 1319.4 1118.98ZM1444.29 1145.14V980.095L1458.77 995.076H1406.71V967.4H1477.3V1145.14H1444.29Z" fill="black"/>
<path d="M3903.75 1175.61V936.93H3924.57V1175.61H3903.75ZM3911.62 1147.68C3897.74 1147.68 3884.46 1145.73 3871.76 1141.84C3859.06 1137.77 3848.99 1132.61 3841.55 1126.35L3852.97 1100.7C3860.08 1106.29 3868.88 1110.94 3879.38 1114.67C3889.87 1118.39 3900.62 1120.25 3911.62 1120.25C3920.93 1120.25 3928.47 1119.24 3934.22 1117.21C3939.98 1115.18 3944.21 1112.47 3946.92 1109.08C3949.63 1105.53 3950.98 1101.55 3950.98 1097.15C3950.98 1091.73 3949.03 1087.41 3945.14 1084.2C3941.25 1080.81 3936.17 1078.19 3929.91 1076.33C3923.81 1074.3 3916.96 1072.43 3909.34 1070.74C3901.89 1069.05 3894.36 1067.1 3886.74 1064.9C3879.29 1062.53 3872.44 1059.57 3866.17 1056.01C3860.08 1052.29 3855.09 1047.38 3851.19 1041.29C3847.3 1035.19 3845.35 1027.41 3845.35 1017.93C3845.35 1008.28 3847.89 999.477 3852.97 991.521C3858.22 983.396 3866.09 976.964 3876.58 972.224C3887.25 967.315 3900.71 964.861 3916.96 964.861C3927.62 964.861 3938.2 966.215 3948.69 968.923C3959.19 971.631 3968.33 975.525 3976.12 980.603L3965.71 1006.25C3957.75 1001.51 3949.54 998.038 3941.08 995.838C3932.61 993.468 3924.49 992.283 3916.7 992.283C3907.56 992.283 3900.11 993.383 3894.36 995.584C3888.77 997.784 3884.63 1000.66 3881.92 1004.22C3879.38 1007.77 3878.11 1011.83 3878.11 1016.4C3878.11 1021.82 3879.97 1026.22 3883.69 1029.61C3887.59 1032.82 3892.58 1035.36 3898.67 1037.22C3904.94 1039.09 3911.88 1040.95 3919.5 1042.81C3927.11 1044.5 3934.65 1046.45 3942.09 1048.65C3949.71 1050.85 3956.57 1053.73 3962.66 1057.28C3968.92 1060.84 3973.92 1065.66 3977.64 1071.76C3981.53 1077.85 3983.48 1085.55 3983.48 1094.86C3983.48 1104.34 3980.86 1113.14 3975.61 1121.27C3970.53 1129.22 3962.66 1135.66 3952 1140.57C3941.33 1145.31 3927.87 1147.68 3911.62 1147.68ZM4001.23 1145.14V1123.05L4071.82 1056.01C4077.74 1050.43 4082.14 1045.52 4085.02 1041.29C4087.9 1037.06 4089.76 1033.16 4090.61 1029.61C4091.62 1025.88 4092.13 1022.41 4092.13 1019.2C4092.13 1011.07 4089.34 1004.81 4083.75 1000.41C4078.17 995.838 4069.96 993.552 4059.12 993.552C4050.49 993.552 4042.62 995.076 4035.51 998.123C4028.57 1001.17 4022.56 1005.82 4017.48 1012.09L3994.37 994.314C4001.32 985.004 4010.63 977.81 4022.3 972.732C4034.15 967.484 4047.36 964.861 4061.91 964.861C4074.78 964.861 4085.95 966.976 4095.43 971.208C4105.08 975.271 4112.44 981.111 4117.52 988.728C4122.77 996.345 4125.39 1005.4 4125.39 1015.9C4125.39 1021.65 4124.63 1027.41 4123.11 1033.16C4121.58 1038.75 4118.71 1044.67 4114.47 1050.94C4110.24 1057.2 4104.06 1064.22 4095.94 1072.01L4035.25 1129.65L4028.4 1117.21H4132.25V1145.14H4001.23ZM4207.16 1147.68C4194.63 1147.68 4182.36 1145.9 4170.34 1142.34C4158.49 1138.62 4148.51 1133.54 4140.38 1127.11L4154.6 1101.46C4161.03 1106.71 4168.82 1110.94 4177.96 1114.16C4187.1 1117.38 4196.66 1118.98 4206.65 1118.98C4218.5 1118.98 4227.73 1116.61 4234.33 1111.87C4240.93 1106.97 4244.23 1100.36 4244.23 1092.07C4244.23 1083.94 4241.18 1077.51 4235.09 1072.77C4229 1068.03 4219.18 1065.66 4205.64 1065.66H4189.39V1043.06L4240.17 982.634L4244.48 995.076H4149.01V967.4H4270.13V989.49L4219.35 1049.92L4202.08 1039.76H4211.98C4233.82 1039.76 4250.15 1044.67 4260.99 1054.49C4271.99 1064.14 4277.49 1076.58 4277.49 1091.82C4277.49 1101.8 4274.95 1111.03 4269.87 1119.49C4264.8 1127.96 4257.01 1134.81 4246.52 1140.06C4236.19 1145.14 4223.07 1147.68 4207.16 1147.68Z" fill="black"/>
<path d="M574.229 2458.92V2328.87L582.703 2338.13H543.096V2320.99H593.737V2458.92H574.229ZM680.264 2460.5C669.492 2460.5 659.837 2457.74 651.298 2452.22C642.891 2446.7 636.191 2438.69 631.199 2428.18C626.339 2417.67 623.909 2404.93 623.909 2389.95C623.909 2374.98 626.339 2362.24 631.199 2351.73C636.191 2341.22 642.891 2333.2 651.298 2327.69C659.837 2322.17 669.492 2319.41 680.264 2319.41C690.905 2319.41 700.494 2322.17 709.033 2327.69C717.572 2333.2 724.272 2341.22 729.132 2351.73C733.993 2362.24 736.423 2374.98 736.423 2389.95C736.423 2404.93 733.993 2417.67 729.132 2428.18C724.272 2438.69 717.572 2446.7 709.033 2452.22C700.494 2457.74 690.905 2460.5 680.264 2460.5ZM680.264 2442.96C687.489 2442.96 693.795 2440.99 699.181 2437.05C704.698 2433.11 708.968 2427.2 711.989 2419.31C715.142 2411.43 716.718 2401.65 716.718 2389.95C716.718 2378.26 715.142 2368.48 711.989 2360.59C708.968 2352.71 704.698 2346.8 699.181 2342.86C693.795 2338.92 687.489 2336.95 680.264 2336.95C673.039 2336.95 666.668 2338.92 661.151 2342.86C655.633 2346.8 651.298 2352.71 648.145 2360.59C645.124 2368.48 643.613 2378.26 643.613 2389.95C643.613 2401.65 645.124 2411.43 648.145 2419.31C651.298 2427.2 655.633 2433.11 661.151 2437.05C666.668 2440.99 673.039 2442.96 680.264 2442.96ZM799.871 2460.5C790.15 2460.5 780.691 2458.99 771.496 2455.96C762.432 2452.94 755.009 2448.87 749.229 2443.75L758.294 2428.18C762.891 2432.52 768.868 2436.06 776.225 2438.82C783.581 2441.58 791.398 2442.96 799.674 2442.96C810.183 2442.96 818.262 2440.73 823.91 2436.26C829.559 2431.79 832.384 2425.82 832.384 2418.33C832.384 2413.21 831.136 2408.74 828.64 2404.93C826.144 2401.12 821.809 2398.23 815.634 2396.26C809.592 2394.16 801.25 2393.11 790.609 2393.11H759.279L766.57 2320.99H844.403V2338.13H773.86L784.107 2328.47L778.392 2385.42L768.146 2375.96H794.747C808.541 2375.96 819.641 2377.74 828.048 2381.28C836.456 2384.83 842.564 2389.76 846.374 2396.06C850.184 2402.24 852.088 2409.4 852.088 2417.54C852.088 2425.42 850.184 2432.65 846.374 2439.22C842.564 2445.65 836.784 2450.84 829.034 2454.78C821.415 2458.59 811.694 2460.5 799.871 2460.5ZM932.636 2458.92V2320.99H952.341V2458.92H932.636ZM1046.64 2353.5C1055.18 2353.5 1062.67 2355.14 1069.11 2358.43C1075.67 2361.71 1080.8 2366.7 1084.48 2373.4C1088.15 2380.1 1089.99 2388.57 1089.99 2398.82V2458.92H1071.08V2400.99C1071.08 2390.87 1068.58 2383.25 1063.59 2378.13C1058.73 2373.01 1051.83 2370.45 1042.9 2370.45C1036.2 2370.45 1030.35 2371.76 1025.36 2374.39C1020.37 2377.01 1016.49 2380.89 1013.74 2386.01C1011.11 2391.14 1009.79 2397.51 1009.79 2405.13V2458.92H990.878V2354.49H1009.01V2382.66L1006.05 2375.18C1009.47 2368.34 1014.72 2363.02 1021.81 2359.21C1028.91 2355.4 1037.18 2353.5 1046.64 2353.5ZM1127.76 2458.92V2345.22C1127.76 2334.98 1130.72 2326.83 1136.63 2320.79C1142.67 2314.62 1151.21 2311.53 1162.24 2311.53C1166.32 2311.53 1170.19 2312.05 1173.87 2313.11C1177.68 2314.02 1180.9 2315.54 1183.52 2317.64L1177.81 2332.02C1175.84 2330.45 1173.61 2329.26 1171.11 2328.47C1168.61 2327.56 1165.99 2327.1 1163.23 2327.1C1157.71 2327.1 1153.51 2328.67 1150.62 2331.82C1147.73 2334.85 1146.28 2339.38 1146.28 2345.42V2359.41L1146.68 2368.08V2458.92H1127.76ZM1110.03 2370.05V2354.49H1176.63V2370.05H1110.03ZM1194.56 2458.92V2312.71H1213.48V2458.92H1194.56ZM1293.44 2460.1C1284.51 2460.1 1276.63 2458.46 1269.8 2455.18C1263.1 2451.89 1257.84 2446.9 1254.03 2440.2C1250.36 2433.37 1248.52 2424.83 1248.52 2414.58V2354.49H1267.43V2412.42C1267.43 2422.66 1269.86 2430.35 1274.72 2435.47C1279.72 2440.59 1286.68 2443.16 1295.61 2443.16C1302.18 2443.16 1307.89 2441.84 1312.76 2439.22C1317.62 2436.46 1321.36 2432.52 1323.99 2427.39C1326.61 2422.14 1327.93 2415.83 1327.93 2408.48V2354.49H1346.84V2458.92H1328.91V2430.74L1331.87 2438.23C1328.45 2445.19 1323.33 2450.58 1316.5 2454.39C1309.67 2458.2 1301.98 2460.1 1293.44 2460.1ZM1429.36 2460.1C1418.19 2460.1 1408.34 2457.8 1399.8 2453.21C1391.4 2448.61 1384.83 2442.3 1380.1 2434.29C1375.5 2426.28 1373.2 2417.08 1373.2 2406.7C1373.2 2396.32 1375.43 2387.13 1379.9 2379.12C1384.5 2371.1 1390.74 2364.86 1398.62 2360.4C1406.63 2355.8 1415.63 2353.5 1425.62 2353.5C1435.73 2353.5 1444.66 2355.73 1452.41 2360.2C1460.16 2364.67 1466.21 2370.97 1470.54 2379.12C1475.01 2387.13 1477.24 2396.52 1477.24 2407.29C1477.24 2408.08 1477.18 2409 1477.05 2410.05C1477.05 2411.1 1476.98 2412.09 1476.85 2413.01H1387.98V2399.41H1467L1459.31 2404.14C1459.44 2397.44 1458.06 2391.46 1455.17 2386.21C1452.28 2380.96 1448.28 2376.88 1443.15 2373.99C1438.16 2370.97 1432.32 2369.46 1425.62 2369.46C1419.05 2369.46 1413.2 2370.97 1408.08 2373.99C1402.96 2376.88 1398.95 2381.02 1396.06 2386.41C1393.17 2391.66 1391.72 2397.7 1391.72 2404.54V2407.69C1391.72 2414.65 1393.3 2420.89 1396.45 2426.41C1399.74 2431.79 1404.27 2436 1410.05 2439.02C1415.83 2442.04 1422.46 2443.55 1429.95 2443.55C1436.12 2443.55 1441.71 2442.5 1446.7 2440.4C1451.82 2438.3 1456.29 2435.14 1460.1 2430.94L1470.54 2443.16C1465.81 2448.67 1459.9 2452.88 1452.81 2455.77C1445.85 2458.66 1438.03 2460.1 1429.36 2460.1ZM1559.27 2353.5C1567.81 2353.5 1575.3 2355.14 1581.74 2358.43C1588.31 2361.71 1593.43 2366.7 1597.11 2373.4C1600.79 2380.1 1602.62 2388.57 1602.62 2398.82V2458.92H1583.71V2400.99C1583.71 2390.87 1581.21 2383.25 1576.22 2378.13C1571.36 2373.01 1564.46 2370.45 1555.53 2370.45C1548.83 2370.45 1542.98 2371.76 1537.99 2374.39C1533 2377.01 1529.13 2380.89 1526.37 2386.01C1523.74 2391.14 1522.43 2397.51 1522.43 2405.13V2458.92H1503.51V2354.49H1521.64V2382.66L1518.68 2375.18C1522.1 2368.34 1527.35 2363.02 1534.45 2359.21C1541.54 2355.4 1549.82 2353.5 1559.27 2353.5ZM1683.15 2460.1C1672.51 2460.1 1662.99 2457.8 1654.58 2453.21C1646.3 2448.61 1639.8 2442.3 1635.07 2434.29C1630.34 2426.28 1627.98 2417.08 1627.98 2406.7C1627.98 2396.32 1630.34 2387.13 1635.07 2379.12C1639.8 2371.1 1646.3 2364.86 1654.58 2360.4C1662.99 2355.8 1672.51 2353.5 1683.15 2353.5C1692.61 2353.5 1701.02 2355.4 1708.37 2359.21C1715.86 2362.89 1721.64 2368.41 1725.71 2375.77L1711.33 2385.03C1707.91 2379.9 1703.71 2376.16 1698.72 2373.8C1693.86 2371.3 1688.6 2370.05 1682.95 2370.05C1676.12 2370.05 1670.01 2371.56 1664.63 2374.58C1659.24 2377.61 1654.97 2381.87 1651.82 2387.39C1648.67 2392.78 1647.09 2399.21 1647.09 2406.7C1647.09 2414.19 1648.67 2420.69 1651.82 2426.21C1654.97 2431.73 1659.24 2436 1664.63 2439.02C1670.01 2442.04 1676.12 2443.55 1682.95 2443.55C1688.6 2443.55 1693.86 2442.37 1698.72 2440C1703.71 2437.51 1707.91 2433.7 1711.33 2428.58L1725.71 2437.64C1721.64 2444.86 1715.86 2450.45 1708.37 2454.39C1701.02 2458.2 1692.61 2460.1 1683.15 2460.1ZM1795.17 2460.1C1784 2460.1 1774.15 2457.8 1765.61 2453.21C1757.2 2448.61 1750.64 2442.3 1745.91 2434.29C1741.31 2426.28 1739.01 2417.08 1739.01 2406.7C1739.01 2396.32 1741.24 2387.13 1745.71 2379.12C1750.31 2371.1 1756.55 2364.86 1764.43 2360.4C1772.44 2355.8 1781.44 2353.5 1791.42 2353.5C1801.54 2353.5 1810.47 2355.73 1818.22 2360.2C1825.97 2364.67 1832.02 2370.97 1836.35 2379.12C1840.82 2387.13 1843.05 2396.52 1843.05 2407.29C1843.05 2408.08 1842.98 2409 1842.85 2410.05C1842.85 2411.1 1842.79 2412.09 1842.66 2413.01H1753.79V2399.41H1832.8L1825.12 2404.14C1825.25 2397.44 1823.87 2391.46 1820.98 2386.21C1818.09 2380.96 1814.08 2376.88 1808.96 2373.99C1803.97 2370.97 1798.12 2369.46 1791.42 2369.46C1784.86 2369.46 1779.01 2370.97 1773.89 2373.99C1768.76 2376.88 1764.76 2381.02 1761.87 2386.41C1758.98 2391.66 1757.53 2397.7 1757.53 2404.54V2407.69C1757.53 2414.65 1759.11 2420.89 1762.26 2426.41C1765.55 2431.79 1770.08 2436 1775.86 2439.02C1781.64 2442.04 1788.27 2443.55 1795.76 2443.55C1801.93 2443.55 1807.52 2442.5 1812.51 2440.4C1817.63 2438.3 1822.1 2435.14 1825.91 2430.94L1836.35 2443.16C1831.62 2448.67 1825.71 2452.88 1818.62 2455.77C1811.65 2458.66 1803.84 2460.1 1795.17 2460.1ZM1869.32 2458.92V2354.49H1887.45V2382.86L1885.67 2375.77C1888.56 2368.54 1893.42 2363.02 1900.25 2359.21C1907.09 2355.4 1915.49 2353.5 1925.48 2353.5V2371.83C1924.69 2371.69 1923.9 2371.63 1923.11 2371.63C1922.46 2371.63 1921.8 2371.63 1921.14 2371.63C1911.03 2371.63 1903.01 2374.65 1897.1 2380.69C1891.19 2386.74 1888.23 2395.47 1888.23 2406.9V2458.92H1869.32ZM1979.9 2460.1C1971.23 2460.1 1962.95 2458.92 1955.07 2456.56C1947.32 2454.19 1941.21 2451.3 1936.74 2447.89L1944.63 2432.91C1949.09 2435.93 1954.61 2438.49 1961.18 2440.59C1967.75 2442.7 1974.45 2443.75 1981.28 2443.75C1990.08 2443.75 1996.38 2442.5 2000.19 2440C2004.13 2437.51 2006.1 2434.03 2006.1 2429.56C2006.1 2426.28 2004.92 2423.71 2002.56 2421.88C2000.19 2420.04 1997.04 2418.66 1993.1 2417.74C1989.29 2416.82 1985.02 2416.03 1980.29 2415.37C1975.56 2414.58 1970.83 2413.67 1966.1 2412.61C1961.37 2411.43 1957.04 2409.86 1953.1 2407.89C1949.16 2405.78 1946 2402.96 1943.64 2399.41C1941.28 2395.73 1940.09 2390.87 1940.09 2384.83C1940.09 2378.52 1941.87 2373.01 1945.41 2368.28C1948.96 2363.55 1953.95 2359.94 1960.39 2357.44C1966.96 2354.81 1974.71 2353.5 1983.64 2353.5C1990.47 2353.5 1997.37 2354.35 2004.33 2356.06C2011.42 2357.64 2017.2 2359.94 2021.67 2362.96L2013.59 2377.93C2008.86 2374.78 2003.94 2372.61 1998.81 2371.43C1993.69 2370.25 1988.57 2369.66 1983.44 2369.66C1975.17 2369.66 1968.99 2371.04 1964.92 2373.8C1960.85 2376.42 1958.81 2379.84 1958.81 2384.04C1958.81 2387.59 1960 2390.35 1962.36 2392.32C1964.86 2394.16 1968.01 2395.6 1971.82 2396.65C1975.76 2397.7 1980.09 2398.62 1984.82 2399.41C1989.55 2400.07 1994.28 2400.99 1999.01 2402.17C2003.74 2403.22 2008.01 2404.73 2011.82 2406.7C2015.76 2408.67 2018.91 2411.43 2021.28 2414.98C2023.77 2418.53 2025.02 2423.25 2025.02 2429.17C2025.02 2435.47 2023.18 2440.92 2019.5 2445.52C2015.83 2450.12 2010.64 2453.73 2003.94 2456.36C1997.24 2458.85 1989.22 2460.1 1979.9 2460.1Z" fill="#00296F"/>
<path d="M635.075 2209.76V1892.27H668.85V2209.76H635.075ZM647.234 2173.28C628.32 2173.28 610.195 2170.8 592.857 2165.85C575.519 2160.67 561.559 2154.03 550.976 2145.92L569.552 2104.72C579.685 2111.92 591.619 2117.89 605.354 2122.62C619.314 2127.12 633.386 2129.37 647.572 2129.37C658.38 2129.37 667.049 2128.36 673.578 2126.33C680.333 2124.08 685.287 2121.04 688.439 2117.21C691.591 2113.39 693.168 2108.99 693.168 2104.04C693.168 2097.74 690.691 2092.78 685.737 2089.18C680.784 2085.35 674.254 2082.31 666.148 2080.06C658.042 2077.58 649.035 2075.33 639.128 2073.31C629.446 2071.05 619.651 2068.35 609.744 2065.2C600.062 2062.05 591.168 2057.99 583.062 2053.04C574.956 2048.09 568.314 2041.56 563.135 2033.45C558.182 2025.35 555.705 2014.99 555.705 2002.38C555.705 1988.87 559.307 1976.6 566.513 1965.56C573.943 1954.31 584.976 1945.41 599.612 1938.88C614.473 1932.13 633.049 1928.75 655.34 1928.75C670.201 1928.75 684.837 1930.55 699.247 1934.15C713.658 1937.53 726.379 1942.71 737.412 1949.69L720.525 1991.23C709.492 1984.93 698.459 1980.31 687.426 1977.39C676.393 1974.23 665.585 1972.66 655.002 1972.66C644.42 1972.66 635.751 1973.9 628.996 1976.37C622.241 1978.85 617.4 1982.11 614.473 1986.17C611.546 1990 610.082 1994.5 610.082 1999.68C610.082 2005.76 612.559 2010.71 617.512 2014.54C622.466 2018.14 628.996 2021.07 637.102 2023.32C645.208 2025.57 654.102 2027.82 663.784 2030.07C673.691 2032.33 683.486 2034.92 693.168 2037.84C703.075 2040.77 712.081 2044.71 720.187 2049.66C728.293 2054.62 734.823 2061.15 739.777 2069.25C744.955 2077.36 747.545 2087.6 747.545 2099.99C747.545 2113.27 743.83 2125.43 736.399 2136.46C728.969 2147.5 717.823 2156.39 702.962 2163.15C688.327 2169.9 669.751 2173.28 647.234 2173.28ZM768.044 2169.23V2133.76L859.236 2047.64C866.441 2041.11 871.732 2035.25 875.11 2030.07C878.487 2024.9 880.739 2020.17 881.865 2015.89C883.216 2011.61 883.891 2007.67 883.891 2004.07C883.891 1994.61 880.626 1987.41 874.097 1982.45C867.792 1977.27 858.448 1974.68 846.064 1974.68C836.156 1974.68 826.925 1976.6 818.369 1980.43C810.037 1984.25 802.945 1990.22 797.09 1998.33L757.236 1972.66C766.243 1959.15 778.852 1948.45 795.064 1940.57C811.276 1932.69 829.964 1928.75 851.13 1928.75C868.693 1928.75 884.004 1931.68 897.063 1937.53C910.348 1943.16 920.593 1951.15 927.798 1961.51C935.229 1971.87 938.944 1984.25 938.944 1998.66C938.944 2006.32 937.931 2013.98 935.904 2021.63C934.103 2029.06 930.275 2036.94 924.421 2045.27C918.792 2053.6 910.461 2062.95 899.428 2073.31L823.772 2144.57L813.302 2124.64H946.712V2169.23H768.044ZM1007.12 2169.23L1102.36 1953.74L1116.55 1977.39H989.215L1013.53 1951.72V2015.89H964.898V1932.8H1154.37V1968.27L1066.56 2169.23H1007.12ZM1273.46 2173.28C1254.09 2173.28 1236.76 2168.55 1221.44 2159.09C1206.13 2149.41 1194.09 2135.45 1185.31 2117.21C1176.52 2098.97 1172.13 2076.91 1172.13 2051.01C1172.13 2025.12 1176.52 2003.05 1185.31 1984.82C1194.09 1966.58 1206.13 1952.73 1221.44 1943.27C1236.76 1933.59 1254.09 1928.75 1273.46 1928.75C1293.05 1928.75 1310.38 1933.59 1325.47 1943.27C1340.78 1952.73 1352.83 1966.58 1361.61 1984.82C1370.39 2003.05 1374.78 2025.12 1374.78 2051.01C1374.78 2076.91 1370.39 2098.97 1361.61 2117.21C1352.83 2135.45 1340.78 2149.41 1325.47 2159.09C1310.38 2168.55 1293.05 2173.28 1273.46 2173.28ZM1273.46 2127.01C1282.69 2127.01 1290.68 2124.42 1297.44 2119.24C1304.42 2114.06 1309.82 2105.84 1313.65 2094.58C1317.7 2083.33 1319.73 2068.8 1319.73 2051.01C1319.73 2033.23 1317.7 2018.7 1313.65 2007.45C1309.82 1996.19 1304.42 1987.97 1297.44 1982.79C1290.68 1977.61 1282.69 1975.02 1273.46 1975.02C1264.45 1975.02 1256.46 1977.61 1249.48 1982.79C1242.72 1987.97 1237.32 1996.19 1233.27 2007.45C1229.44 2018.7 1227.52 2033.23 1227.52 2051.01C1227.52 2068.8 1229.44 2083.33 1233.27 2094.58C1237.32 2105.84 1242.72 2114.06 1249.48 2119.24C1256.46 2124.42 1264.45 2127.01 1273.46 2127.01ZM1502.69 2173.28C1483.33 2173.28 1465.99 2168.55 1450.68 2159.09C1435.37 2149.41 1423.32 2135.45 1414.54 2117.21C1405.76 2098.97 1401.37 2076.91 1401.37 2051.01C1401.37 2025.12 1405.76 2003.05 1414.54 1984.82C1423.32 1966.58 1435.37 1952.73 1450.68 1943.27C1465.99 1933.59 1483.33 1928.75 1502.69 1928.75C1522.28 1928.75 1539.62 1933.59 1554.7 1943.27C1570.01 1952.73 1582.06 1966.58 1590.84 1984.82C1599.62 2003.05 1604.01 2025.12 1604.01 2051.01C1604.01 2076.91 1599.62 2098.97 1590.84 2117.21C1582.06 2135.45 1570.01 2149.41 1554.7 2159.09C1539.62 2168.55 1522.28 2173.28 1502.69 2173.28ZM1502.69 2127.01C1511.92 2127.01 1519.91 2124.42 1526.67 2119.24C1533.65 2114.06 1539.05 2105.84 1542.88 2094.58C1546.93 2083.33 1548.96 2068.8 1548.96 2051.01C1548.96 2033.23 1546.93 2018.7 1542.88 2007.45C1539.05 1996.19 1533.65 1987.97 1526.67 1982.79C1519.91 1977.61 1511.92 1975.02 1502.69 1975.02C1493.68 1975.02 1485.69 1977.61 1478.71 1982.79C1471.95 1987.97 1466.55 1996.19 1462.5 2007.45C1458.67 2018.7 1456.76 2033.23 1456.76 2051.01C1456.76 2068.8 1458.67 2083.33 1462.5 2094.58C1466.55 2105.84 1471.95 2114.06 1478.71 2119.24C1485.69 2124.42 1493.68 2127.01 1502.69 2127.01ZM1694.43 2115.19L1691.39 2052.03L1804.54 1932.8H1865.33L1763.33 2042.57L1732.93 2074.99L1694.43 2115.19ZM1645.46 2169.23V1932.8H1699.84V2169.23H1645.46ZM1807.24 2169.23L1723.14 2066.21L1758.94 2027.37L1871.07 2169.23H1807.24Z" fill="#00296F"/>
<path d="M609.847 1736.34C601.02 1736.34 592.792 1734.92 585.164 1732.09C577.645 1729.15 571.106 1725.01 565.549 1719.67C559.991 1714.33 555.632 1708.06 552.472 1700.87C549.42 1693.67 547.895 1685.77 547.895 1677.17C547.895 1668.56 549.42 1660.66 552.472 1653.46C555.632 1646.27 559.991 1640 565.549 1634.66C571.215 1629.33 577.808 1625.24 585.328 1622.41C592.847 1619.46 601.074 1617.99 610.01 1617.99C619.927 1617.99 628.863 1619.74 636.818 1623.22C644.882 1626.6 651.639 1631.61 657.088 1638.26L640.088 1653.95C636.164 1649.49 631.805 1646.16 627.01 1643.98C622.216 1641.69 616.985 1640.55 611.318 1640.55C605.978 1640.55 601.074 1641.42 596.606 1643.17C592.138 1644.91 588.27 1647.42 585.001 1650.68C581.731 1653.95 579.17 1657.82 577.318 1662.29C575.574 1666.76 574.702 1671.72 574.702 1677.17C574.702 1682.61 575.574 1687.57 577.318 1692.04C579.17 1696.51 581.731 1700.38 585.001 1703.65C588.27 1706.92 592.138 1709.42 596.606 1711.17C601.074 1712.91 605.978 1713.78 611.318 1713.78C616.985 1713.78 622.216 1712.69 627.01 1710.51C631.805 1708.22 636.164 1704.79 640.088 1700.21L657.088 1715.91C651.639 1722.55 644.882 1727.62 636.818 1731.11C628.863 1734.6 619.873 1736.34 609.847 1736.34ZM657.856 1734.38L708.857 1619.95H735.011L786.175 1734.38H758.386L716.539 1633.36H727.001L684.991 1734.38H657.856ZM683.357 1709.86L690.385 1689.75H749.232L756.424 1709.86H683.357ZM798.046 1734.38V1619.95H819.95L868.662 1700.7H857.056L904.951 1619.95H926.691L927.018 1734.38H902.172L902.008 1658.04H906.585L868.335 1722.28H856.402L817.335 1658.04H822.892V1734.38H798.046ZM954.166 1734.38V1619.95H1003.69C1013.94 1619.95 1022.77 1621.64 1030.18 1625.02C1037.59 1628.29 1043.31 1633.03 1047.34 1639.24C1051.37 1645.45 1053.39 1652.86 1053.39 1661.47C1053.39 1669.97 1051.37 1677.33 1047.34 1683.54C1043.31 1689.75 1037.59 1694.55 1030.18 1697.93C1022.77 1701.19 1013.94 1702.83 1003.69 1702.83H968.877L980.647 1690.9V1734.38H954.166ZM980.647 1693.84L968.877 1681.25H1002.22C1010.4 1681.25 1016.5 1679.51 1020.53 1676.02C1024.56 1672.53 1026.58 1667.68 1026.58 1661.47C1026.58 1655.15 1024.56 1650.25 1020.53 1646.76C1016.5 1643.27 1010.4 1641.53 1002.22 1641.53H968.877L980.647 1628.94V1693.84ZM1051.51 1734.38L1102.51 1619.95H1128.66L1179.83 1734.38H1152.04L1110.19 1633.36H1120.65L1078.64 1734.38H1051.51ZM1077.01 1709.86L1084.04 1689.75H1142.88L1150.08 1709.86H1077.01ZM1191.7 1734.38V1619.95H1218.18V1734.38H1191.7ZM1300.58 1736.34C1291.54 1736.34 1283.2 1734.92 1275.57 1732.09C1268.05 1729.15 1261.46 1725.01 1255.8 1719.67C1250.24 1714.33 1245.88 1708.06 1242.72 1700.87C1239.67 1693.67 1238.14 1685.77 1238.14 1677.17C1238.14 1668.56 1239.67 1660.66 1242.72 1653.46C1245.88 1646.27 1250.29 1640 1255.96 1634.66C1261.63 1629.33 1268.27 1625.24 1275.9 1622.41C1283.53 1619.46 1291.92 1617.99 1301.07 1617.99C1311.21 1617.99 1320.31 1619.68 1328.37 1623.06C1336.55 1626.44 1343.41 1631.34 1348.97 1637.77L1331.97 1653.46C1327.83 1649.1 1323.31 1645.89 1318.4 1643.82C1313.5 1641.64 1308.16 1640.55 1302.38 1640.55C1296.82 1640.55 1291.76 1641.42 1287.18 1643.17C1282.6 1644.91 1278.63 1647.42 1275.25 1650.68C1271.98 1653.95 1269.42 1657.82 1267.56 1662.29C1265.82 1666.76 1264.95 1671.72 1264.95 1677.17C1264.95 1682.51 1265.82 1687.41 1267.56 1691.88C1269.42 1696.34 1271.98 1700.27 1275.25 1703.65C1278.63 1706.92 1282.55 1709.42 1287.02 1711.17C1291.59 1712.91 1296.61 1713.78 1302.05 1713.78C1307.29 1713.78 1312.35 1712.96 1317.26 1711.33C1322.27 1709.59 1327.12 1706.7 1331.81 1702.67L1346.84 1721.79C1340.63 1726.48 1333.39 1730.07 1325.1 1732.58C1316.93 1735.09 1308.76 1736.34 1300.58 1736.34ZM1322.65 1718.36V1675.37H1346.84V1721.79L1322.65 1718.36ZM1371.44 1734.38V1619.95H1393.35L1460.86 1702.34H1450.23V1619.95H1476.39V1734.38H1454.64L1386.97 1651.99H1397.6V1734.38H1371.44ZM1549.75 1734.38V1619.95H1599.28C1609.52 1619.95 1618.35 1621.64 1625.76 1625.02C1633.17 1628.29 1638.89 1633.03 1642.92 1639.24C1646.96 1645.45 1648.97 1652.86 1648.97 1661.47C1648.97 1669.97 1646.96 1677.33 1642.92 1683.54C1638.89 1689.64 1633.17 1694.33 1625.76 1697.6C1618.35 1700.87 1609.52 1702.5 1599.28 1702.5H1564.46L1576.23 1690.9V1734.38H1549.75ZM1622.49 1734.38L1593.89 1692.86H1622.16L1651.1 1734.38H1622.49ZM1576.23 1693.84L1564.46 1681.42H1597.81C1605.98 1681.42 1612.08 1679.67 1616.12 1676.18C1620.15 1672.59 1622.16 1667.68 1622.16 1661.47C1622.16 1655.15 1620.15 1650.25 1616.12 1646.76C1612.08 1643.27 1605.98 1641.53 1597.81 1641.53H1564.46L1576.23 1628.94V1693.84ZM1694.31 1666.05H1749.4V1686.65H1694.31V1666.05ZM1696.27 1713.13H1758.55V1734.38H1669.95V1619.95H1756.42V1641.2H1696.27V1713.13ZM1812.35 1734.38L1762.99 1619.95H1791.59L1834.75 1721.3H1817.91L1861.72 1619.95H1888.03L1838.5 1734.38H1812.35ZM1921.94 1666.05H1977.03V1686.65H1921.94V1666.05ZM1923.91 1713.13H1986.18V1734.38H1897.59V1619.95H1984.06V1641.2H1923.91V1713.13ZM2007.25 1734.38V1619.95H2029.16L2096.67 1702.34H2086.04V1619.95H2112.2V1734.38H2090.46L2022.78 1651.99H2033.41V1734.38H2007.25ZM2190.11 1736.34C2173.87 1736.34 2161.17 1731.82 2152.02 1722.77C2142.87 1713.73 2138.29 1700.81 2138.29 1684.03V1619.95H2164.77V1683.05C2164.77 1693.95 2167 1701.79 2171.47 1706.59C2175.94 1711.38 2182.21 1713.78 2190.27 1713.78C2198.33 1713.78 2204.6 1711.38 2209.07 1706.59C2213.54 1701.79 2215.77 1693.95 2215.77 1683.05V1619.95H2241.92V1684.03C2241.92 1700.81 2237.35 1713.73 2228.19 1722.77C2219.04 1731.82 2206.34 1736.34 2190.11 1736.34ZM2292.45 1666.05H2347.54V1686.65H2292.45V1666.05ZM2294.41 1713.13H2356.69V1734.38H2268.09V1619.95H2354.56V1641.2H2294.41V1713.13Z" fill="black"/>
<path d="M3814.33 1734.2V1637.75H3776.41V1619.77H3873.51V1637.75H3835.58V1734.2H3814.33ZM3937.02 1645.93C3944 1645.93 3950.21 1647.29 3955.66 1650.01C3961.21 1652.74 3965.57 1656.93 3968.73 1662.6C3971.89 1668.16 3973.47 1675.35 3973.47 1684.18V1734.2H3953.04V1686.79C3953.04 1679.06 3951.19 1673.28 3947.48 1669.47C3943.89 1665.65 3938.82 1663.74 3932.28 1663.74C3927.49 1663.74 3923.24 1664.73 3919.53 1666.69C3915.83 1668.65 3912.94 1671.59 3910.87 1675.51C3908.91 1679.33 3907.93 1684.18 3907.93 1690.06V1734.2H3887.49V1612.91H3907.93V1670.45L3903.51 1663.25C3906.56 1657.7 3910.98 1653.45 3916.75 1650.5C3922.64 1647.45 3929.39 1645.93 3937.02 1645.93ZM3999.39 1734.2V1646.91H4019.83V1734.2H3999.39ZM4009.69 1632.52C4005.88 1632.52 4002.72 1631.32 4000.21 1628.93C3997.81 1626.53 3996.62 1623.64 3996.62 1620.26C3996.62 1616.78 3997.81 1613.89 4000.21 1611.6C4002.72 1609.2 4005.88 1608 4009.69 1608C4013.51 1608 4016.61 1609.15 4019.01 1611.44C4021.52 1613.62 4022.77 1616.39 4022.77 1619.77C4022.77 1623.37 4021.57 1626.42 4019.17 1628.93C4016.78 1631.32 4013.62 1632.52 4009.69 1632.52ZM4073.62 1735.34C4066.32 1735.34 4059.29 1734.41 4052.53 1732.56C4045.88 1730.6 4040.6 1728.26 4036.67 1725.53L4044.52 1710C4048.44 1712.51 4053.13 1714.58 4058.58 1716.22C4064.03 1717.85 4069.48 1718.67 4074.92 1718.67C4081.35 1718.67 4085.99 1717.8 4088.82 1716.05C4091.76 1714.31 4093.23 1711.97 4093.23 1709.02C4093.23 1706.63 4092.25 1704.83 4090.29 1703.63C4088.33 1702.32 4085.77 1701.34 4082.61 1700.69C4079.45 1700.03 4075.91 1699.43 4071.98 1698.89C4068.17 1698.34 4064.3 1697.64 4060.38 1696.76C4056.56 1695.78 4053.07 1694.42 4049.91 1692.68C4046.75 1690.82 4044.19 1688.37 4042.23 1685.32C4040.27 1682.27 4039.29 1678.24 4039.29 1673.23C4039.29 1667.67 4040.87 1662.87 4044.03 1658.84C4047.19 1654.7 4051.6 1651.54 4057.27 1649.36C4063.05 1647.07 4069.86 1645.93 4077.7 1645.93C4083.59 1645.93 4089.53 1646.58 4095.52 1647.89C4101.51 1649.2 4106.47 1651.05 4110.4 1653.45L4102.55 1668.98C4098.41 1666.47 4094.21 1664.78 4089.96 1663.91C4085.82 1662.93 4081.68 1662.44 4077.54 1662.44C4071.33 1662.44 4066.7 1663.36 4063.65 1665.22C4060.7 1667.07 4059.23 1669.41 4059.23 1672.24C4059.23 1674.86 4060.21 1676.82 4062.17 1678.13C4064.14 1679.44 4066.7 1680.47 4069.86 1681.23C4073.02 1682 4076.5 1682.65 4080.32 1683.2C4084.24 1683.63 4088.11 1684.34 4091.92 1685.32C4095.74 1686.3 4099.23 1687.66 4102.39 1689.41C4105.66 1691.04 4108.27 1693.39 4110.23 1696.44C4112.19 1699.49 4113.17 1703.47 4113.17 1708.37C4113.17 1713.82 4111.54 1718.56 4108.27 1722.59C4105.11 1726.62 4100.59 1729.78 4094.7 1732.07C4088.82 1734.25 4081.79 1735.34 4073.62 1735.34ZM4204.88 1734.2L4166.96 1619.77H4189.02L4222.86 1723.24H4211.91L4247.05 1619.77H4266.67L4300.83 1723.24H4290.21L4324.86 1619.77H4345.13L4307.21 1734.2H4284.65L4253.43 1640.86H4259.31L4227.6 1734.2H4204.88ZM4394.97 1735.34C4385.27 1735.34 4376.77 1733.43 4369.46 1729.62C4362.27 1725.7 4356.66 1720.36 4352.63 1713.6C4348.71 1706.84 4346.74 1699.16 4346.74 1690.55C4346.74 1681.83 4348.65 1674.15 4352.46 1667.5C4356.39 1660.75 4361.73 1655.46 4368.48 1651.65C4375.35 1647.83 4383.14 1645.93 4391.86 1645.93C4400.36 1645.93 4407.93 1647.78 4414.58 1651.48C4421.23 1655.19 4426.46 1660.42 4430.27 1667.18C4434.09 1673.93 4435.99 1681.89 4435.99 1691.04C4435.99 1691.91 4435.94 1692.9 4435.83 1693.98C4435.83 1695.07 4435.78 1696.11 4435.67 1697.09H4362.93V1683.52H4424.88L4416.87 1687.77C4416.98 1682.76 4415.94 1678.35 4413.76 1674.53C4411.58 1670.72 4408.59 1667.72 4404.77 1665.54C4401.07 1663.36 4396.76 1662.27 4391.86 1662.27C4386.85 1662.27 4382.43 1663.36 4378.62 1665.54C4374.91 1667.72 4371.97 1670.77 4369.79 1674.7C4367.72 1678.51 4366.69 1683.03 4366.69 1688.26V1691.53C4366.69 1696.76 4367.88 1701.4 4370.28 1705.43C4372.68 1709.46 4376.06 1712.57 4380.42 1714.74C4384.78 1716.92 4389.79 1718.01 4395.46 1718.01C4400.36 1718.01 4404.77 1717.25 4408.7 1715.73C4412.62 1714.2 4416.11 1711.8 4419.16 1708.53L4430.11 1721.12C4426.19 1725.7 4421.23 1729.24 4415.23 1731.74C4409.35 1734.14 4402.59 1735.34 4394.97 1735.34ZM4496.65 1735.34C4486.95 1735.34 4478.45 1733.43 4471.15 1729.62C4463.96 1725.7 4458.35 1720.36 4454.31 1713.6C4450.39 1706.84 4448.43 1699.16 4448.43 1690.55C4448.43 1681.83 4450.34 1674.15 4454.15 1667.5C4458.07 1660.75 4463.41 1655.46 4470.17 1651.65C4477.03 1647.83 4484.83 1645.93 4493.54 1645.93C4502.04 1645.93 4509.62 1647.78 4516.27 1651.48C4522.91 1655.19 4528.14 1660.42 4531.96 1667.18C4535.77 1673.93 4537.68 1681.89 4537.68 1691.04C4537.68 1691.91 4537.62 1692.9 4537.52 1693.98C4537.52 1695.07 4537.46 1696.11 4537.35 1697.09H4464.61V1683.52H4526.56L4518.55 1687.77C4518.66 1682.76 4517.63 1678.35 4515.45 1674.53C4513.27 1670.72 4510.27 1667.72 4506.46 1665.54C4502.75 1663.36 4498.45 1662.27 4493.54 1662.27C4488.53 1662.27 4484.12 1663.36 4480.3 1665.54C4476.6 1667.72 4473.66 1670.77 4471.48 1674.7C4469.41 1678.51 4468.37 1683.03 4468.37 1688.26V1691.53C4468.37 1696.76 4469.57 1701.4 4471.97 1705.43C4474.36 1709.46 4477.74 1712.57 4482.1 1714.74C4486.46 1716.92 4491.47 1718.01 4497.14 1718.01C4502.04 1718.01 4506.46 1717.25 4510.38 1715.73C4514.3 1714.2 4517.79 1711.8 4520.84 1708.53L4531.79 1721.12C4527.87 1725.7 4522.91 1729.24 4516.92 1731.74C4511.04 1734.14 4504.28 1735.34 4496.65 1735.34ZM4573.98 1714.74L4574.47 1689.08L4620.08 1646.91H4644.6L4605.85 1685.81L4595.07 1694.8L4573.98 1714.74ZM4557.31 1734.2V1612.91H4577.74V1734.2H4557.31ZM4623.18 1734.2L4591.31 1694.8L4604.22 1678.46L4648.03 1734.2H4623.18Z" fill="black"/>
<path d="M616.73 2711.15C610.581 2711.15 605.264 2710.24 600.779 2708.43C596.294 2706.63 592.822 2704.06 590.362 2700.73C587.903 2697.33 586.673 2693.35 586.673 2688.79C586.673 2684.31 587.83 2680.51 590.145 2677.4C592.532 2674.22 595.969 2671.83 600.454 2670.24C604.939 2668.57 610.364 2667.74 616.73 2667.74C623.096 2667.74 628.521 2668.57 633.006 2670.24C637.564 2671.83 641.036 2674.22 643.423 2677.4C645.811 2680.58 647.004 2684.38 647.004 2688.79C647.004 2693.35 645.774 2697.33 643.315 2700.73C640.855 2704.06 637.347 2706.63 632.789 2708.43C628.232 2710.24 622.879 2711.15 616.73 2711.15ZM616.73 2702.36C622.807 2702.36 627.545 2701.13 630.945 2698.67C634.417 2696.14 636.153 2692.74 636.153 2688.47C636.153 2684.27 634.417 2680.98 630.945 2678.59C627.545 2676.13 622.807 2674.9 616.73 2674.9C610.726 2674.9 606.024 2676.13 602.624 2678.59C599.224 2680.98 597.524 2684.27 597.524 2688.47C597.524 2692.74 599.224 2696.14 602.624 2698.67C606.024 2701.13 610.726 2702.36 616.73 2702.36ZM616.73 2673.6C610.943 2673.6 606.024 2672.84 601.973 2671.32C597.922 2669.73 594.811 2667.49 592.641 2664.6C590.471 2661.63 589.386 2658.12 589.386 2654.07C589.386 2649.8 590.507 2646.15 592.749 2643.11C595.064 2640 598.283 2637.61 602.407 2635.95C606.53 2634.29 611.305 2633.45 616.73 2633.45C622.228 2633.45 627.038 2634.29 631.162 2635.95C635.285 2637.61 638.504 2640 640.819 2643.11C643.134 2646.15 644.291 2649.8 644.291 2654.07C644.291 2658.12 643.206 2661.63 641.036 2664.6C638.866 2667.49 635.719 2669.73 631.596 2671.32C627.472 2672.84 622.517 2673.6 616.73 2673.6ZM616.73 2666.66C622.011 2666.66 626.134 2665.57 629.1 2663.4C632.138 2661.23 633.658 2658.27 633.658 2654.5C633.658 2650.67 632.102 2647.67 628.992 2645.5C625.881 2643.33 621.794 2642.24 616.73 2642.24C611.666 2642.24 607.615 2643.33 604.577 2645.5C601.611 2647.67 600.128 2650.67 600.128 2654.5C600.128 2658.27 601.575 2661.23 604.468 2663.4C607.434 2665.57 611.522 2666.66 616.73 2666.66ZM687.973 2711.15C682.041 2711.15 676.724 2709.63 672.022 2706.59C667.392 2703.55 663.703 2699.14 660.954 2693.35C658.277 2687.56 656.939 2680.55 656.939 2672.3C656.939 2664.05 658.277 2657.04 660.954 2651.25C663.703 2645.46 667.392 2641.05 672.022 2638.01C676.724 2634.97 682.041 2633.45 687.973 2633.45C693.832 2633.45 699.113 2634.97 703.815 2638.01C708.517 2641.05 712.206 2645.46 714.883 2651.25C717.559 2657.04 718.898 2664.05 718.898 2672.3C718.898 2680.55 717.559 2687.56 714.883 2693.35C712.206 2699.14 708.517 2703.55 703.815 2706.59C699.113 2709.63 693.832 2711.15 687.973 2711.15ZM687.973 2701.49C691.951 2701.49 695.424 2700.4 698.389 2698.23C701.428 2696.06 703.779 2692.81 705.443 2688.47C707.179 2684.13 708.047 2678.74 708.047 2672.3C708.047 2665.86 707.179 2660.47 705.443 2656.13C703.779 2651.79 701.428 2648.54 698.389 2646.37C695.424 2644.2 691.951 2643.11 687.973 2643.11C683.994 2643.11 680.485 2644.2 677.447 2646.37C674.409 2648.54 672.022 2651.79 670.285 2656.13C668.622 2660.47 667.79 2665.86 667.79 2672.3C667.79 2678.74 668.622 2684.13 670.285 2688.47C672.022 2692.81 674.409 2696.06 677.447 2698.23C680.485 2700.4 683.994 2701.49 687.973 2701.49ZM760.348 2711.15C754.416 2711.15 749.099 2709.63 744.397 2706.59C739.767 2703.55 736.078 2699.14 733.329 2693.35C730.652 2687.56 729.314 2680.55 729.314 2672.3C729.314 2664.05 730.652 2657.04 733.329 2651.25C736.078 2645.46 739.767 2641.05 744.397 2638.01C749.099 2634.97 754.416 2633.45 760.348 2633.45C766.207 2633.45 771.488 2634.97 776.19 2638.01C780.892 2641.05 784.581 2645.46 787.258 2651.25C789.935 2657.04 791.273 2664.05 791.273 2672.3C791.273 2680.55 789.935 2687.56 787.258 2693.35C784.581 2699.14 780.892 2703.55 776.19 2706.59C771.488 2709.63 766.207 2711.15 760.348 2711.15ZM760.348 2701.49C764.326 2701.49 767.799 2700.4 770.764 2698.23C773.803 2696.06 776.154 2692.81 777.818 2688.47C779.554 2684.13 780.422 2678.74 780.422 2672.3C780.422 2665.86 779.554 2660.47 777.818 2656.13C776.154 2651.79 773.803 2648.54 770.764 2646.37C767.799 2644.2 764.326 2643.11 760.348 2643.11C756.369 2643.11 752.86 2644.2 749.822 2646.37C746.784 2648.54 744.397 2651.79 742.661 2656.13C740.997 2660.47 740.165 2665.86 740.165 2672.3C740.165 2678.74 740.997 2684.13 742.661 2688.47C744.397 2692.81 746.784 2696.06 749.822 2698.23C752.86 2700.4 756.369 2701.49 760.348 2701.49ZM817.423 2691.94L816.88 2678.7L859.959 2634.32H872.329L839.016 2669.48L832.94 2676.21L817.423 2691.94ZM807.874 2710.28V2634.32H818.725V2710.28H807.874ZM861.695 2710.28L830.552 2674.04L837.823 2666.01L874.39 2710.28H861.695Z" fill="black"/>
<path d="M586.022 2939.8V2932.2L624.868 2882.5H636.587L598.066 2932.2L592.532 2930.46H653.189V2939.8H586.022ZM628.232 2958.46V2939.8L628.558 2930.46V2913.97H638.757V2958.46H628.232ZM690.728 2959.33C684.796 2959.33 679.479 2957.81 674.777 2954.77C670.147 2951.73 666.458 2947.32 663.709 2941.53C661.032 2935.75 659.694 2928.73 659.694 2920.48C659.694 2912.23 661.032 2905.22 663.709 2899.43C666.458 2893.64 670.147 2889.23 674.777 2886.19C679.479 2883.15 684.796 2881.64 690.728 2881.64C696.587 2881.64 701.868 2883.15 706.57 2886.19C711.272 2889.23 714.961 2893.64 717.638 2899.43C720.315 2905.22 721.653 2912.23 721.653 2920.48C721.653 2928.73 720.315 2935.75 717.638 2941.53C714.961 2947.32 711.272 2951.73 706.57 2954.77C701.868 2957.81 696.587 2959.33 690.728 2959.33ZM690.728 2949.67C694.706 2949.67 698.179 2948.59 701.145 2946.42C704.183 2944.25 706.534 2940.99 708.198 2936.65C709.934 2932.31 710.802 2926.92 710.802 2920.48C710.802 2914.04 709.934 2908.65 708.198 2904.31C706.534 2899.97 704.183 2896.72 701.145 2894.55C698.179 2892.38 694.706 2891.29 690.728 2891.29C686.749 2891.29 683.24 2892.38 680.202 2894.55C677.164 2896.72 674.777 2899.97 673.041 2904.31C671.377 2908.65 670.545 2914.04 670.545 2920.48C670.545 2926.92 671.377 2932.31 673.041 2936.65C674.777 2940.99 677.164 2944.25 680.202 2946.42C683.24 2948.59 686.749 2949.67 690.728 2949.67ZM763.103 2959.33C757.171 2959.33 751.854 2957.81 747.152 2954.77C742.522 2951.73 738.833 2947.32 736.084 2941.53C733.407 2935.75 732.069 2928.73 732.069 2920.48C732.069 2912.23 733.407 2905.22 736.084 2899.43C738.833 2893.64 742.522 2889.23 747.152 2886.19C751.854 2883.15 757.171 2881.64 763.103 2881.64C768.962 2881.64 774.243 2883.15 778.945 2886.19C783.647 2889.23 787.337 2893.64 790.013 2899.43C792.69 2905.22 794.028 2912.23 794.028 2920.48C794.028 2928.73 792.69 2935.75 790.013 2941.53C787.337 2947.32 783.647 2951.73 778.945 2954.77C774.243 2957.81 768.962 2959.33 763.103 2959.33ZM763.103 2949.67C767.081 2949.67 770.554 2948.59 773.52 2946.42C776.558 2944.25 778.909 2940.99 780.573 2936.65C782.309 2932.31 783.177 2926.92 783.177 2920.48C783.177 2914.04 782.309 2908.65 780.573 2904.31C778.909 2899.97 776.558 2896.72 773.52 2894.55C770.554 2892.38 767.081 2891.29 763.103 2891.29C759.124 2891.29 755.616 2892.38 752.577 2894.55C749.539 2896.72 747.152 2899.97 745.416 2904.31C743.752 2908.65 742.92 2914.04 742.92 2920.48C742.92 2926.92 743.752 2932.31 745.416 2936.65C747.152 2940.99 749.539 2944.25 752.577 2946.42C755.616 2948.59 759.124 2949.67 763.103 2949.67ZM820.178 2940.12L819.635 2926.88L862.714 2882.5H875.084L841.771 2917.66L835.695 2924.39L820.178 2940.12ZM810.629 2958.46V2882.5H821.48V2958.46H810.629ZM864.45 2958.46L833.308 2922.22L840.578 2914.19L877.145 2958.46H864.45Z" fill="black"/>
<path d="M585.913 3237.77V3230.39L616.839 3200.55C619.587 3197.95 621.613 3195.67 622.915 3193.71C624.29 3191.69 625.194 3189.84 625.628 3188.18C626.134 3186.44 626.387 3184.78 626.387 3183.19C626.387 3179.28 625.013 3176.21 622.264 3173.97C619.515 3171.72 615.5 3170.6 610.219 3170.6C606.168 3170.6 602.515 3171.29 599.26 3172.66C596.005 3173.97 593.183 3176.03 590.796 3178.85L583.418 3172.45C586.311 3168.76 590.181 3165.94 595.028 3163.98C599.947 3161.96 605.337 3160.94 611.196 3160.94C616.477 3160.94 621.07 3161.81 624.977 3163.55C628.883 3165.21 631.885 3167.64 633.983 3170.82C636.153 3174 637.238 3177.76 637.238 3182.1C637.238 3184.56 636.913 3186.99 636.262 3189.37C635.611 3191.76 634.381 3194.29 632.572 3196.97C630.764 3199.65 628.16 3202.65 624.76 3205.98L597.198 3232.56L594.594 3228.33H640.494V3237.77H585.913ZM680.343 3238.64C674.411 3238.64 669.094 3237.12 664.392 3234.08C659.762 3231.04 656.073 3226.63 653.324 3220.84C650.647 3215.05 649.309 3208.04 649.309 3199.79C649.309 3191.54 650.647 3184.53 653.324 3178.74C656.073 3172.95 659.762 3168.54 664.392 3165.5C669.094 3162.46 674.411 3160.94 680.343 3160.94C686.202 3160.94 691.483 3162.46 696.185 3165.5C700.887 3168.54 704.577 3172.95 707.253 3178.74C709.93 3184.53 711.268 3191.54 711.268 3199.79C711.268 3208.04 709.93 3215.05 707.253 3220.84C704.577 3226.63 700.887 3231.04 696.185 3234.08C691.483 3237.12 686.202 3238.64 680.343 3238.64ZM680.343 3228.98C684.322 3228.98 687.794 3227.89 690.76 3225.72C693.798 3223.55 696.149 3220.3 697.813 3215.96C699.549 3211.62 700.417 3206.23 700.417 3199.79C700.417 3193.35 699.549 3187.96 697.813 3183.62C696.149 3179.28 693.798 3176.03 690.76 3173.86C687.794 3171.69 684.322 3170.6 680.343 3170.6C676.364 3170.6 672.856 3171.69 669.817 3173.86C666.779 3176.03 664.392 3179.28 662.656 3183.62C660.992 3187.96 660.16 3193.35 660.16 3199.79C660.16 3206.23 660.992 3211.62 662.656 3215.96C664.392 3220.3 666.779 3223.55 669.817 3225.72C672.856 3227.89 676.364 3228.98 680.343 3228.98ZM752.718 3238.64C746.786 3238.64 741.469 3237.12 736.767 3234.08C732.137 3231.04 728.448 3226.63 725.699 3220.84C723.023 3215.05 721.684 3208.04 721.684 3199.79C721.684 3191.54 723.023 3184.53 725.699 3178.74C728.448 3172.95 732.137 3168.54 736.767 3165.5C741.469 3162.46 746.786 3160.94 752.718 3160.94C758.578 3160.94 763.858 3162.46 768.56 3165.5C773.262 3168.54 776.952 3172.95 779.628 3178.74C782.305 3184.53 783.643 3191.54 783.643 3199.79C783.643 3208.04 782.305 3215.05 779.628 3220.84C776.952 3226.63 773.262 3231.04 768.56 3234.08C763.858 3237.12 758.578 3238.64 752.718 3238.64ZM752.718 3228.98C756.697 3228.98 760.169 3227.89 763.135 3225.72C766.173 3223.55 768.524 3220.3 770.188 3215.96C771.924 3211.62 772.792 3206.23 772.792 3199.79C772.792 3193.35 771.924 3187.96 770.188 3183.62C768.524 3179.28 766.173 3176.03 763.135 3173.86C760.169 3171.69 756.697 3170.6 752.718 3170.6C748.739 3170.6 745.231 3171.69 742.193 3173.86C739.154 3176.03 736.767 3179.28 735.031 3183.62C733.367 3187.96 732.535 3193.35 732.535 3199.79C732.535 3206.23 733.367 3211.62 735.031 3215.96C736.767 3220.3 739.154 3223.55 742.193 3225.72C745.231 3227.89 748.739 3228.98 752.718 3228.98ZM809.793 3219.43L809.251 3206.19L852.329 3161.81H864.699L831.387 3196.97L825.31 3203.7L809.793 3219.43ZM800.244 3237.77V3161.81H811.095V3237.77H800.244ZM854.065 3237.77L822.923 3201.53L830.193 3193.5L866.761 3237.77H854.065Z" fill="black"/>
<path d="M599.911 3517.08V3445.46L604.577 3450.56H582.767V3441.12H610.653V3517.08H599.911ZM658.302 3517.95C652.37 3517.95 647.053 3516.43 642.351 3513.39C637.721 3510.35 634.032 3505.94 631.283 3500.15C628.606 3494.36 627.268 3487.35 627.268 3479.1C627.268 3470.85 628.606 3463.84 631.283 3458.05C634.032 3452.26 637.721 3447.85 642.351 3444.81C647.053 3441.77 652.37 3440.25 658.302 3440.25C664.161 3440.25 669.442 3441.77 674.144 3444.81C678.846 3447.85 682.536 3452.26 685.212 3458.05C687.889 3463.84 689.227 3470.85 689.227 3479.1C689.227 3487.35 687.889 3494.36 685.212 3500.15C682.536 3505.94 678.846 3510.35 674.144 3513.39C669.442 3516.43 664.161 3517.95 658.302 3517.95ZM658.302 3508.29C662.281 3508.29 665.753 3507.2 668.719 3505.03C671.757 3502.86 674.108 3499.61 675.772 3495.27C677.508 3490.93 678.376 3485.54 678.376 3479.1C678.376 3472.66 677.508 3467.27 675.772 3462.93C674.108 3458.59 671.757 3455.34 668.719 3453.17C665.753 3451 662.281 3449.91 658.302 3449.91C654.323 3449.91 650.815 3451 647.776 3453.17C644.738 3455.34 642.351 3458.59 640.615 3462.93C638.951 3467.27 638.119 3472.66 638.119 3479.1C638.119 3485.54 638.951 3490.93 640.615 3495.27C642.351 3499.61 644.738 3502.86 647.776 3505.03C650.815 3507.2 654.323 3508.29 658.302 3508.29ZM730.677 3517.95C724.745 3517.95 719.428 3516.43 714.726 3513.39C710.096 3510.35 706.407 3505.94 703.658 3500.15C700.982 3494.36 699.643 3487.35 699.643 3479.1C699.643 3470.85 700.982 3463.84 703.658 3458.05C706.407 3452.26 710.096 3447.85 714.726 3444.81C719.428 3441.77 724.745 3440.25 730.677 3440.25C736.536 3440.25 741.817 3441.77 746.519 3444.81C751.221 3447.85 754.911 3452.26 757.587 3458.05C760.264 3463.84 761.602 3470.85 761.602 3479.1C761.602 3487.35 760.264 3494.36 757.587 3500.15C754.911 3505.94 751.221 3510.35 746.519 3513.39C741.817 3516.43 736.536 3517.95 730.677 3517.95ZM730.677 3508.29C734.656 3508.29 738.128 3507.2 741.094 3505.03C744.132 3502.86 746.483 3499.61 748.147 3495.27C749.883 3490.93 750.751 3485.54 750.751 3479.1C750.751 3472.66 749.883 3467.27 748.147 3462.93C746.483 3458.59 744.132 3455.34 741.094 3453.17C738.128 3451 734.656 3449.91 730.677 3449.91C726.698 3449.91 723.19 3451 720.152 3453.17C717.113 3455.34 714.726 3458.59 712.99 3462.93C711.326 3467.27 710.494 3472.66 710.494 3479.1C710.494 3485.54 711.326 3490.93 712.99 3495.27C714.726 3499.61 717.113 3502.86 720.152 3505.03C723.19 3507.2 726.698 3508.29 730.677 3508.29ZM787.752 3498.74L787.21 3485.5L830.288 3441.12H842.658L809.346 3476.28L803.269 3483.01L787.752 3498.74ZM778.203 3517.08V3441.12H789.054V3517.08H778.203ZM832.024 3517.08L800.882 3480.84L808.152 3472.81L844.72 3517.08H832.024Z" fill="black"/>
<rect x="964.691" y="3379.27" width="249.864" height="99.2726" fill="#005BF7"/>
<rect x="1306.26" y="3304.39" width="249.864" height="174.148" fill="#005BF7"/>
<rect x="1647.82" y="3237.93" width="249.864" height="240.61" fill="#005BF7"/>
<rect x="1989.38" y="3132.77" width="249.864" height="345.771" fill="#005BF7"/>
<rect x="2330.95" y="2985.54" width="249.864" height="492.998" fill="#005BF7"/>
<rect x="2672.51" y="3076.4" width="249.864" height="402.138" fill="#005BF7"/>
<rect x="3014.08" y="3194.18" width="249.864" height="284.357" fill="#005BF7"/>
<rect x="3355.64" y="2853.46" width="249.864" height="625.081" fill="#005BF7"/>
<rect x="3697.21" y="2985.54" width="249.864" height="492.998" fill="#005BF7"/>
<rect x="4038.77" y="3194.18" width="249.864" height="284.357" fill="#005BF7"/>
<rect x="4380.34" y="3304.39" width="249.864" height="174.148" fill="#005BF7"/>
<rect x="4721.9" y="3132.77" width="249.864" height="345.771" fill="#005BF7"/>
<path d="M1798.4 3633.83C1792.83 3633.83 1787.83 3632.6 1783.42 3630.14C1779.08 3627.68 1775.64 3624.24 1773.11 3619.83C1770.58 3615.42 1769.32 3610.28 1769.32 3604.42C1769.32 3598.56 1770.58 3593.46 1773.11 3589.12C1775.64 3584.71 1779.08 3581.27 1783.42 3578.81C1787.83 3576.35 1792.83 3575.12 1798.4 3575.12C1803.39 3575.12 1807.84 3576.21 1811.74 3578.38C1815.65 3580.55 1818.72 3583.81 1820.97 3588.15C1823.28 3592.49 1824.44 3597.91 1824.44 3604.42C1824.44 3610.93 1823.24 3616.36 1820.86 3620.7C1818.54 3625.04 1815.43 3628.33 1811.53 3630.57C1807.62 3632.74 1803.24 3633.83 1798.4 3633.83ZM1799.26 3624.71C1802.88 3624.71 1806.14 3623.88 1809.03 3622.22C1812 3620.55 1814.31 3618.2 1815.97 3615.16C1817.71 3612.05 1818.58 3608.47 1818.58 3604.42C1818.58 3600.3 1817.71 3596.75 1815.97 3593.79C1814.31 3590.75 1812 3588.4 1809.03 3586.73C1806.14 3585.07 1802.88 3584.24 1799.26 3584.24C1795.57 3584.24 1792.28 3585.07 1789.39 3586.73C1786.5 3588.4 1784.18 3590.75 1782.44 3593.79C1780.71 3596.75 1779.84 3600.3 1779.84 3604.42C1779.84 3608.47 1780.71 3612.05 1782.44 3615.16C1784.18 3618.2 1786.5 3620.55 1789.39 3622.22C1792.28 3623.88 1795.57 3624.71 1799.26 3624.71ZM1818.47 3654.23V3617.88L1819.56 3604.53L1818.9 3591.18V3575.67H1828.89V3654.23H1818.47ZM1855.99 3633.18V3561.56L1860.66 3566.66H1838.85V3557.22H1866.74V3633.18H1855.99Z" fill="black"/>
<path d="M2792.8 3649.81C2787.23 3649.81 2782.24 3648.58 2777.83 3646.12C2773.49 3643.66 2770.05 3640.23 2767.52 3635.81C2764.99 3631.4 2763.72 3626.27 2763.72 3620.41C2763.72 3614.55 2764.99 3609.45 2767.52 3605.11C2770.05 3600.69 2773.49 3597.26 2777.83 3594.8C2782.24 3592.34 2787.23 3591.11 2792.8 3591.11C2797.8 3591.11 2802.24 3592.19 2806.15 3594.36C2810.06 3596.53 2813.13 3599.79 2815.37 3604.13C2817.69 3608.47 2818.85 3613.9 2818.85 3620.41C2818.85 3626.92 2817.65 3632.34 2815.27 3636.68C2812.95 3641.02 2809.84 3644.31 2805.93 3646.56C2802.03 3648.73 2797.65 3649.81 2792.8 3649.81ZM2793.67 3640.7C2797.29 3640.7 2800.54 3639.87 2803.44 3638.2C2806.4 3636.54 2808.72 3634.19 2810.38 3631.15C2812.12 3628.04 2812.99 3624.46 2812.99 3620.41C2812.99 3616.28 2812.12 3612.74 2810.38 3609.77C2808.72 3606.73 2806.4 3604.38 2803.44 3602.72C2800.54 3601.06 2797.29 3600.22 2793.67 3600.22C2789.98 3600.22 2786.69 3601.06 2783.8 3602.72C2780.9 3604.38 2778.59 3606.73 2776.85 3609.77C2775.12 3612.74 2774.25 3616.28 2774.25 3620.41C2774.25 3624.46 2775.12 3628.04 2776.85 3631.15C2778.59 3634.19 2780.9 3636.54 2783.8 3638.2C2786.69 3639.87 2789.98 3640.7 2793.67 3640.7ZM2812.88 3670.21V3633.86L2813.96 3620.52L2813.31 3607.17V3591.65H2823.3V3670.21H2812.88ZM2837.15 3649.16V3641.78L2868.07 3611.94C2870.82 3609.34 2872.85 3607.06 2874.15 3605.11C2875.52 3603.08 2876.43 3601.24 2876.86 3599.57C2877.37 3597.84 2877.62 3596.17 2877.62 3594.58C2877.62 3590.67 2876.25 3587.6 2873.5 3585.36C2870.75 3583.12 2866.73 3581.99 2861.45 3581.99C2857.4 3581.99 2853.75 3582.68 2850.49 3584.06C2847.24 3585.36 2844.42 3587.42 2842.03 3590.24L2834.65 3583.84C2837.54 3580.15 2841.41 3577.33 2846.26 3575.38C2851.18 3573.35 2856.57 3572.34 2862.43 3572.34C2867.71 3572.34 2872.3 3573.2 2876.21 3574.94C2880.12 3576.6 2883.12 3579.03 2885.22 3582.21C2887.39 3585.39 2888.47 3589.16 2888.47 3593.5C2888.47 3595.96 2888.14 3598.38 2887.49 3600.77C2886.84 3603.15 2885.61 3605.69 2883.8 3608.36C2882 3611.04 2879.39 3614.04 2875.99 3617.37L2848.43 3643.95L2845.83 3639.72H2891.73V3649.16H2837.15Z" fill="black"/>
<path d="M3847.79 3649.81C3842.22 3649.81 3837.22 3648.58 3832.81 3646.12C3828.47 3643.66 3825.04 3640.23 3822.5 3635.81C3819.97 3631.4 3818.71 3626.27 3818.71 3620.41C3818.71 3614.55 3819.97 3609.45 3822.5 3605.11C3825.04 3600.69 3828.47 3597.26 3832.81 3594.8C3837.22 3592.34 3842.22 3591.11 3847.79 3591.11C3852.78 3591.11 3857.23 3592.19 3861.13 3594.36C3865.04 3596.53 3868.11 3599.79 3870.36 3604.13C3872.67 3608.47 3873.83 3613.9 3873.83 3620.41C3873.83 3626.92 3872.64 3632.34 3870.25 3636.68C3867.93 3641.02 3864.82 3644.31 3860.92 3646.56C3857.01 3648.73 3852.63 3649.81 3847.79 3649.81ZM3848.65 3640.7C3852.27 3640.7 3855.53 3639.87 3858.42 3638.2C3861.39 3636.54 3863.7 3634.19 3865.36 3631.15C3867.1 3628.04 3867.97 3624.46 3867.97 3620.41C3867.97 3616.28 3867.1 3612.74 3865.36 3609.77C3863.7 3606.73 3861.39 3604.38 3858.42 3602.72C3855.53 3601.06 3852.27 3600.22 3848.65 3600.22C3844.97 3600.22 3841.67 3601.06 3838.78 3602.72C3835.89 3604.38 3833.57 3606.73 3831.84 3609.77C3830.1 3612.74 3829.23 3616.28 3829.23 3620.41C3829.23 3624.46 3830.1 3628.04 3831.84 3631.15C3833.57 3634.19 3835.89 3636.54 3838.78 3638.2C3841.67 3639.87 3844.97 3640.7 3848.65 3640.7ZM3867.86 3670.21V3633.86L3868.95 3620.52L3868.29 3607.17V3591.65H3878.28V3670.21H3867.86ZM3916.54 3650.03C3911.19 3650.03 3905.98 3649.2 3900.92 3647.53C3895.93 3645.87 3891.84 3643.63 3888.66 3640.81L3893.65 3632.23C3896.18 3634.62 3899.47 3636.57 3903.52 3638.09C3907.57 3639.61 3911.91 3640.37 3916.54 3640.37C3922.19 3640.37 3926.56 3639.18 3929.67 3636.79C3932.86 3634.33 3934.45 3631.04 3934.45 3626.92C3934.45 3622.94 3932.93 3619.76 3929.89 3617.37C3926.92 3614.91 3922.19 3613.68 3915.67 3613.68H3909.6V3606.08L3932.17 3578.3L3933.69 3582.65H3892.13V3573.2H3942.26V3580.58L3919.8 3608.25L3914.16 3604.89H3917.74C3926.92 3604.89 3933.8 3606.95 3938.35 3611.07C3942.98 3615.2 3945.3 3620.44 3945.3 3626.81C3945.3 3631.08 3944.25 3634.98 3942.15 3638.53C3940.05 3642.07 3936.87 3644.89 3932.6 3646.99C3928.41 3649.02 3923.05 3650.03 3916.54 3650.03Z" fill="black"/>
<path d="M4842.19 3649.81C4836.62 3649.81 4831.63 3648.58 4827.22 3646.12C4822.88 3643.66 4819.44 3640.23 4816.91 3635.81C4814.38 3631.4 4813.11 3626.27 4813.11 3620.41C4813.11 3614.55 4814.38 3609.45 4816.91 3605.11C4819.44 3600.69 4822.88 3597.26 4827.22 3594.8C4831.63 3592.34 4836.62 3591.11 4842.19 3591.11C4847.18 3591.11 4851.63 3592.19 4855.54 3594.36C4859.45 3596.53 4862.52 3599.79 4864.76 3604.13C4867.08 3608.47 4868.23 3613.9 4868.23 3620.41C4868.23 3626.92 4867.04 3632.34 4864.65 3636.68C4862.34 3641.02 4859.23 3644.31 4855.32 3646.56C4851.42 3648.73 4847.04 3649.81 4842.19 3649.81ZM4843.06 3640.7C4846.68 3640.7 4849.93 3639.87 4852.83 3638.2C4855.79 3636.54 4858.11 3634.19 4859.77 3631.15C4861.51 3628.04 4862.38 3624.46 4862.38 3620.41C4862.38 3616.28 4861.51 3612.74 4859.77 3609.77C4858.11 3606.73 4855.79 3604.38 4852.83 3602.72C4849.93 3601.06 4846.68 3600.22 4843.06 3600.22C4839.37 3600.22 4836.08 3601.06 4833.19 3602.72C4830.29 3604.38 4827.98 3606.73 4826.24 3609.77C4824.51 3612.74 4823.64 3616.28 4823.64 3620.41C4823.64 3624.46 4824.51 3628.04 4826.24 3631.15C4827.98 3634.19 4830.29 3636.54 4833.19 3638.2C4836.08 3639.87 4839.37 3640.7 4843.06 3640.7ZM4862.27 3670.21V3633.86L4863.35 3620.52L4862.7 3607.17V3591.65H4872.68V3670.21H4862.27ZM4886.64 3630.5V3622.9L4925.49 3573.2H4937.21L4898.69 3622.9L4893.15 3621.17H4953.81V3630.5H4886.64ZM4928.85 3649.16V3630.5L4929.18 3621.17V3604.67H4939.38V3649.16H4928.85Z" fill="black"/>
<path d="M4679.09 1752L4631 1695H4653.16L4696.06 1746.54H4683.33L4726.7 1695H4747.13L4699.2 1752H4679.09Z" fill="#5E5E5E"/>
<defs>
<linearGradient id="paint0_linear_1586_86" x1="2872" y1="0" x2="2872" y2="4364" gradientUnits="userSpaceOnUse">
<stop stop-color="white"/>
<stop offset="0.755769" stop-color="#B1CEFF"/>
</linearGradient>
</defs>
</svg>
